<svg width="120" height="221" viewBox="0 0 120 221" fill="none" xmlns="http://www.w3.org/2000/svg">
<path d="M22.6079 203.961C22.2515 203.765 21.8952 203.57 21.441 203.552C18.0381 202.148 14.3768 200.37 10.5479 200.587C6.62111 200.982 2.03771 204.263 2.13931 208.724C2.33872 213.007 7.78185 215.763 11.4326 215.449C15.8136 215.071 19.017 212.192 22.5594 209.963L22.6571 209.785C23.0309 209.526 23.5026 209.089 23.796 208.555C24.8544 207.049 24.3093 204.663 22.6079 203.961Z" fill="#F58B1F"/>
<path opacity="0.6" d="M83.5614 43.7215C79.2386 32.9762 73.5677 21.5592 62.2331 16.5926C43.5243 8.17942 21.7777 19.6217 16.2624 38.8084C15.3308 41.7361 14.9824 45.0674 14.9498 48.4429C14.9016 48.7581 14.9018 48.7582 14.8535 49.0733C14.7571 49.7037 14.7943 50.5136 15.0619 50.873C15.5474 61.4031 20.2342 71.8774 28.2665 77.3476C36.6893 84.482 49.0145 85.0804 57.675 76.9571C66.7477 68.2477 66.1718 53.0374 56.4005 45.2314C46.7629 37.6051 32.4562 45.7426 34.2794 58.0696C35.7229 67.6072 48.4389 69.87 52.0847 61.8496C53.5935 64.6361 52.4797 67.6995 48.8773 71.2192C46.5116 72.9805 43.9748 73.7519 40.951 73.4896C35.7543 73.7279 31.9387 71.2624 28.3161 67.5362C24.0246 62.9116 21.9167 56.6611 21.8855 50.5404C24.5155 35.4566 36.7194 25.2542 52.4215 26.9692C66.6786 28.6429 73.0405 38.7077 77.8019 50.8021C77.8874 51.2969 78.1549 51.6566 78.5562 52.1956C79.9204 55.9276 81.4666 59.5241 83.3767 62.8496C90.0808 74.894 100.157 83.8693 112.61 89.9582C116.972 92.0173 119.975 85.0339 115.613 82.9748C98.4459 73.9726 90.4895 60.626 83.5614 43.7215Z" fill="#FFE5CB"/>
</svg>
