<svg width="95" height="122" viewBox="0 0 95 122" fill="none" xmlns="http://www.w3.org/2000/svg">
<path opacity="0.6" d="M16.101 55.1444C10.3532 65.1998 4.9148 76.7294 8.04887 88.7009C13.0532 108.595 35.5166 118.556 53.9877 110.982C56.8622 109.897 59.6914 108.104 62.3594 106.036C62.6366 105.879 62.6365 105.879 62.9136 105.721C63.4679 105.406 64.0801 104.874 64.1961 104.441C72.1551 97.5294 77.4644 87.3565 76.7734 77.663C77.1457 66.6311 69.9707 56.5918 58.2271 54.8366C45.7682 53.1216 34.194 63.0072 34.1313 75.5135C34.1266 87.8035 49.3833 93.9788 57.922 84.9032C64.5081 77.8553 58.3964 66.4772 49.8438 68.5918C51.0938 65.68 54.1876 64.6537 59.1828 65.2965C62.0317 66.0598 64.2102 67.5713 65.8798 70.1059C69.2899 74.0344 69.7225 78.5566 69.0464 83.7094C68.0805 89.9441 64.4849 95.4743 59.703 99.295C46.2398 106.587 30.6676 103.342 22.2739 89.9615C14.7442 77.7398 18.6934 66.5069 25.2273 55.2707C25.5624 54.8967 25.6786 54.4638 25.8526 53.8147C27.9339 50.4299 29.7961 46.9864 31.22 43.4255C36.5098 30.6964 37.3006 17.2255 34.3532 3.68069C33.2633 -1.01764 25.9226 0.957801 27.0125 5.65614C30.5987 24.7061 25.0642 39.2252 16.101 55.1444Z" fill="#EEFCFF"/>
</svg>
