<svg width="493" height="672" viewBox="0 0 493 672" fill="none" xmlns="http://www.w3.org/2000/svg">
<path d="M-109.346 393.896C-96.6079 284.033 135.869 212.278 175.904 328.221C215.939 444.165 493 331.542 493 420.652C493 509.762 366.308 582 210.025 582C53.7416 582 -122.085 503.759 -109.346 393.896Z" fill="#FFE7B9"/>
<path d="M94.9388 282.504C95.2728 282.533 95.6069 282.562 95.941 282.59C96.183 289.509 95.0598 296.648 94.2997 303.481C94.2707 303.815 94.2418 304.149 94.7574 304.025C101.483 286.598 107.236 268.751 112.32 250.847C112.559 250.026 112.98 249.053 113.22 248.232C113.554 248.26 113.888 248.289 114.222 248.318C111.3 260.686 107.223 272.788 103.327 284.737C97.4219 302.403 90.7251 319.496 83.2075 336.35C82.6052 337.477 82.1843 338.45 81.582 339.576C81.3969 339.561 81.2118 339.545 81.0267 339.529C80.8778 339.516 80.7288 339.503 80.5798 339.491C80.6441 339.342 80.7084 339.193 80.7728 339.043C82.6042 334.79 84.4607 330.246 86.2903 326.014C92.0665 313.722 94.226 300.446 95.0493 287.057C94.6784 285.511 94.8231 283.841 94.9388 282.504Z" fill="#717E84"/>
<path d="M130.672 169.133C131.006 169.161 131.34 169.19 131.674 169.219C130.262 179.698 128.028 189.938 125.948 200.36C123.475 211.421 121.337 222.511 118.044 233.334C117.71 233.305 117.376 233.277 117.042 233.248C119.724 221.7 122.407 210.152 124.938 198.423C126.779 188.822 128.649 178.887 130.672 169.133Z" fill="#717E84"/>
<path d="M96.7166 215.356C97.0507 215.384 97.3847 215.413 97.7188 215.441C97.7846 216.625 97.6978 217.627 97.4295 218.782C97.0954 218.753 96.7614 218.724 96.4273 218.696C96.3991 218.662 96.3717 218.629 96.3451 218.595C95.6378 217.698 95.5119 216.742 96.2356 215.841C96.3672 215.677 96.527 215.515 96.7166 215.356Z" fill="#717E84"/>
<path d="M65.4211 372.685C65.2008 373.44 64.7222 373.888 63.94 374.55C63.9352 374.554 63.9305 374.558 63.9257 374.562C63.8624 374.615 63.7971 374.67 63.7298 374.727C63.809 373.814 63.9908 373.328 64.5723 372.787C64.6287 372.734 64.6888 372.681 64.753 372.627C64.883 372.782 65.1446 372.825 65.3314 372.741L65.3421 372.736C65.3465 372.733 65.3508 372.731 65.355 372.729L65.3652 372.723L65.3707 372.72C65.3885 372.71 65.4054 372.698 65.4211 372.685Z" fill="#717E84"/>
<path d="M24.1929 429.053C24.2982 428.809 24.4869 428.573 24.6756 428.337C24.8644 428.101 25.0531 427.865 25.1583 427.621C25.4161 427.559 25.5903 427.49 25.7646 427.421C25.9389 427.351 26.1131 427.282 26.3709 427.22C26.3008 428.029 25.7146 428.465 25.2048 428.844C25.0832 428.935 24.9659 429.022 24.8611 429.11C24.6506 429.597 24.4981 429.415 24.1929 429.053Z" fill="#717E84"/>
<path d="M14.8736 443.398C14.3291 443.856 13.7846 444.314 12.6957 445.23C12.8601 444.752 13.0576 444.412 13.2686 444.15C13.3159 444.092 13.3638 444.037 13.4123 443.985C13.4355 443.961 13.4589 443.937 13.4823 443.913C13.5127 443.883 13.5432 443.854 13.5738 443.826C13.8512 443.572 14.1354 443.399 14.387 443.188C14.4896 443.31 14.6054 443.28 14.7166 443.304C14.7707 443.315 14.8237 443.338 14.8736 443.398Z" fill="#717E84"/>
<path d="M94.4233 303.997C94.5469 304.512 94.3365 304.999 93.792 305.457C93.5158 304.76 93.7552 303.939 94.1471 303.3C94.2997 303.481 94.4523 303.663 94.4233 303.997Z" fill="#717E84"/>
<path d="M41.5266 322.182C41.2869 317.354 41.0334 312.509 40.7792 307.653C40.1885 296.366 39.5948 285.022 39.1644 273.691C38.9317 271.063 38.8499 268.307 38.8972 265.678C38.8985 265.604 38.9 265.529 38.9015 265.455C38.9052 265.276 38.9095 265.098 38.9144 264.921C39.073 264.934 39.2315 264.948 39.3901 264.961C39.5656 264.976 39.7411 264.991 39.9166 265.006C41.3029 283.969 42.5077 303.085 42.7103 322.115C42.5116 322.194 42.3424 322.248 42.1985 322.281C41.8376 322.363 41.6357 322.312 41.5266 322.182Z" fill="#717E84"/>
<path d="M117.874 414.023C108.383 416.744 98.6455 418.434 89.0894 419.971C88.7922 420.043 88.4721 420.056 88.1482 420.07C87.3482 420.104 86.5251 420.139 85.9672 421.05C85.9212 421.011 85.8734 420.977 85.8237 420.948C85.3985 420.701 84.844 420.811 84.2764 420.925C83.328 421.114 82.3431 421.31 81.8638 419.857C82.2086 419.805 82.5534 419.753 82.8982 419.7C94.3393 417.958 105.798 415.909 117.018 413.246C117.332 413.171 117.646 413.096 117.96 413.021C118.062 413.142 118.002 413.398 117.943 413.655C117.913 413.783 117.883 413.911 117.874 414.023Z" fill="#717E84"/>
<path d="M54.8231 300.775C54.7889 306.997 54.2681 313.009 53.2318 319.146C53.1412 319.107 53.056 319.074 52.9741 319.045C52.8358 318.997 52.707 318.959 52.5782 318.922C52.373 318.862 52.1678 318.803 51.9245 318.698C52.1575 317.318 52.3645 315.944 52.5457 314.573C53.0112 311.051 53.3069 307.546 53.4383 303.992C53.4833 302.777 53.509 301.555 53.5158 300.326C53.8209 300.689 54.3075 300.899 54.8231 300.775Z" fill="#717E84"/>
<path d="M48.6207 319.929C48.6365 323.632 48.3183 327.306 47.637 331.286C47.303 331.257 46.9689 331.229 46.6349 331.2C46.7399 329.988 46.8283 328.755 46.9176 327.511C47.0989 324.984 47.2837 322.407 47.6186 319.843C47.6403 319.845 47.6621 319.847 47.6838 319.849C47.9961 319.876 48.3084 319.902 48.6207 319.929Z" fill="#717E84"/>
<path d="M32.2648 250.386C32.0754 248.688 32.2201 247.017 32.6988 245.376C33.0329 245.404 33.3669 245.433 33.701 245.462C33.7158 245.595 33.7277 245.727 33.7367 245.857C33.8371 247.302 33.5998 248.622 33.3215 250.168C33.3113 250.225 33.301 250.282 33.2908 250.34C33.2828 250.384 33.2749 250.428 33.267 250.472C32.9329 250.444 32.5989 250.415 32.2648 250.386Z" fill="#717E84"/>
<path d="M66.1026 411.441C65.8921 411.928 65.6817 412.415 65.5002 412.567C65.4346 412.606 65.3686 412.645 65.3021 412.685C64.1093 413.396 62.7781 414.238 61.7467 415.106C61.2601 414.896 61.289 414.562 61.8045 414.438C62.0544 414.228 62.3054 414.005 62.5606 413.778C63.4671 412.972 64.4261 412.119 65.574 411.633C65.7458 411.56 65.9219 411.496 66.1026 411.441Z" fill="#717E84"/>
<path d="M116.505 321.03C116.839 321.059 117.173 321.087 117.355 320.935C116.996 321.979 116.132 322.658 115.243 323.356C115.019 323.532 114.794 323.709 114.575 323.893C114.392 323.878 114.309 323.871 114.301 323.842C114.295 323.819 114.34 323.781 114.422 323.712C114.422 323.712 114.27 323.531 114.451 323.378C114.843 322.738 115.598 321.794 116.505 321.03Z" fill="#717E84"/>
<path d="M29.982 327.251C30.316 327.279 30.6501 327.308 30.8026 327.489C31.0499 328.52 31.2972 329.551 31.5444 330.581C30.4476 329.646 30.2003 328.615 29.982 327.251Z" fill="#717E84"/>
<path d="M61.8045 414.438C61.7756 414.772 61.9282 414.953 61.7467 415.106C60.8681 415.536 59.9896 415.965 59.1111 416.395C59.1733 416.309 59.2359 416.219 59.2999 416.127C59.826 415.371 60.4515 414.472 61.8045 414.438Z" fill="#717E84"/>
<path d="M114.088 323.683C114.241 323.865 114.241 323.865 114.393 324.046C114.151 325.26 113.3 325.751 112.222 326.372C111.978 326.513 111.723 326.66 111.46 326.823C112.578 325.573 113.333 324.628 114.088 323.683Z" fill="#717E84"/>
<path d="M45.8484 346.107C46.0327 346.123 46.2169 346.139 46.3451 346.15C46.4494 346.159 46.5166 346.165 46.5166 346.165C46.4298 347.167 46.343 348.169 45.5591 349.448C45.2332 348.089 45.5186 347.173 45.7551 346.414C45.7667 346.376 45.7783 346.339 45.7897 346.302C45.7996 346.27 45.8094 346.238 45.819 346.206C45.829 346.173 45.8389 346.14 45.8484 346.107Z" fill="#717E84"/>
<path d="M61.965 416.471C61.8598 416.714 61.7618 416.874 61.6638 417.034C61.6017 417.135 61.5396 417.237 61.4756 417.359C61.4615 417.386 61.4473 417.415 61.433 417.444C61.4218 417.467 61.4105 417.491 61.3992 417.515C61.3871 417.542 61.3749 417.569 61.3627 417.597C60.6656 417.874 59.9686 418.151 59.4241 418.609C59.3212 418.565 59.2413 418.515 59.1843 418.462C59.0058 418.299 59.0501 418.112 59.3087 417.998C59.3585 417.976 59.4163 417.957 59.4819 417.941C59.6244 417.821 59.7679 417.688 59.9141 417.553C60.5136 416.999 61.1594 416.402 61.965 416.471Z" fill="#717E84"/>
<path d="M119.725 328.541C119.696 328.875 119.667 329.209 119.638 329.543C119.569 329.57 119.499 329.598 119.429 329.626C118.8 329.876 118.156 330.139 117.366 330.526C117.201 330.664 117.061 330.529 116.923 330.368C116.908 330.351 116.893 330.333 116.879 330.316C116.726 330.135 116.726 330.135 116.908 329.982C117.305 329.648 117.702 329.314 118.106 329.051C118.627 328.713 119.161 328.492 119.725 328.541Z" fill="#717E84"/>
<path d="M171.536 383.116C171.62 382.92 171.784 382.757 171.954 382.59C172.204 382.342 172.466 382.083 172.501 381.684C173.016 381.56 173.532 381.436 173.895 381.13C173.293 382.257 172.719 383.049 171.536 383.116Z" fill="#717E84"/>
<path d="M42.4206 239.983C42.2901 239.927 42.1705 239.883 42.0595 239.843C42.0401 239.836 42.021 239.829 42.0021 239.822C41.7263 239.722 41.5038 239.63 41.2948 239.382C41.2776 239.31 41.2574 239.235 41.2346 239.157C41.0937 238.679 40.8525 238.119 40.5899 237.807C40.8003 237.32 41.1344 237.349 41.258 237.864C41.7157 238.408 42.3259 239.134 42.4206 239.983Z" fill="#717E84"/>
<path d="M25.8757 254.214C25.5416 254.185 25.2076 254.157 24.8735 254.128C24.9932 253.718 25.151 253.353 25.3351 252.927C25.5192 252.501 25.7297 252.014 25.9546 251.36C26.3255 252.906 26.2676 253.574 25.8757 254.214Z" fill="#717E84"/>
<path d="M141.37 321.476C141.368 321.497 141.366 321.517 141.363 321.536C141.358 321.571 141.351 321.604 141.344 321.635C141.33 321.693 141.313 321.744 141.297 321.791C141.251 321.931 141.218 322.032 141.312 322.144C141.235 322.175 141.158 322.206 141.08 322.237C140.46 322.483 139.841 322.729 139.221 322.975C139.642 322.001 140.187 321.543 141.37 321.476Z" fill="#717E84"/>
<path d="M120.446 312.45C120.672 312.396 120.868 312.306 121.046 312.226C121.274 312.122 121.471 312.033 121.658 312.049C121.445 312.965 120.849 313.425 120.158 313.957C119.978 314.095 119.792 314.239 119.604 314.397C119.31 314.372 119.275 314.369 119.167 314.245C119.158 314.235 119.148 314.224 119.138 314.211C119.131 314.204 119.124 314.196 119.117 314.187C118.965 314.006 118.965 314.006 119.146 313.853C119.691 313.395 120.054 313.089 120.446 312.45Z" fill="#717E84"/>
<path d="M203.757 279.202C203.605 279.021 203.452 278.84 203.452 278.84C203.357 277.99 203.902 277.532 204.751 277.437C204.694 278.105 204.636 278.773 203.757 279.202Z" fill="#717E84"/>
<path d="M119.299 314.034C119.451 314.216 119.604 314.397 119.756 314.578C119.67 315.58 118.791 316.01 117.913 316.439C118.234 315.696 118.645 315.058 118.995 314.513C119.054 314.421 119.112 314.332 119.167 314.245C119.213 314.173 119.257 314.103 119.299 314.034Z" fill="#717E84"/>
<path d="M42.6421 355.928C42.3948 354.897 42.2712 354.382 42.9972 353.771C43.76 354.678 43.368 355.317 42.6421 355.928Z" fill="#717E84"/>
<path d="M59.3294 417.76C59.3202 417.865 59.314 417.938 59.3087 417.998C59.2975 418.127 59.2913 418.199 59.2715 418.428C59.2424 418.439 59.2134 418.451 59.1843 418.462C58.516 418.728 57.8408 418.999 56.9989 419.411C57.7827 418.132 58.4798 417.855 59.3294 417.76Z" fill="#717E84"/>
<path d="M64.8058 420.584C64.788 420.79 64.7701 420.996 64.7591 421.124C64.7522 421.203 64.748 421.252 64.748 421.252C64.0509 421.529 63.3539 421.806 62.7436 421.08C63.1745 420.718 63.6827 420.678 64.297 420.63C64.459 420.617 64.6285 420.604 64.8058 420.584Z" fill="#717E84"/>
<path d="M41.258 237.864C40.9239 237.836 40.7424 237.988 40.5899 237.807C40.4663 237.292 40.3426 236.776 40.0664 236.08C41.0397 236.5 41.1633 237.015 41.258 237.864Z" fill="#717E84"/>
<path d="M210.199 259.227C210.21 259.099 210.194 258.994 210.181 258.904C210.16 258.758 210.145 258.653 210.257 258.559C210.62 258.253 211.651 258.005 211.622 258.339C211.564 259.007 210.867 259.284 210.199 259.227Z" fill="#717E84"/>
<path d="M24.1929 429.053C24.527 429.081 24.6796 429.263 24.8611 429.11C24.8032 429.778 24.2587 430.236 23.3802 430.666C23.9536 429.874 24.164 429.387 24.1929 429.053Z" fill="#717E84"/>
<path d="M117.089 329.829C117.242 330.01 117.394 330.192 117.394 330.192C117.229 330.258 117.073 330.315 116.923 330.368C116.757 330.426 116.599 330.478 116.44 330.531C116.137 330.631 115.833 330.731 115.485 330.87C115.724 330.049 116.24 329.925 117.089 329.829Z" fill="#717E84"/>
<path d="M152.336 194.88C152.67 194.908 153.004 194.937 153.185 194.784C153.137 194.923 153.083 195.054 153.022 195.178C152.511 196.218 151.579 196.755 150.768 197.437C150.434 197.409 150.434 197.409 150.463 197.075C150.463 197.075 150.31 196.893 150.492 196.741C151.189 196.464 151.762 195.672 152.336 194.88Z" fill="#717E84"/>
<path d="M155.192 202.695C155.185 202.783 155.177 202.87 155.167 202.954C155.138 203.19 155.088 203.4 154.956 203.513L154.953 203.516C154.074 203.946 153.196 204.375 152.499 204.652C152.346 204.471 152.165 204.624 152.012 204.442C152.041 204.108 152.041 204.108 152.223 203.956C153.435 203.555 154.009 202.762 155.192 202.695Z" fill="#717E84"/>
<path d="M242.078 132.065C242.226 131.825 242.463 131.64 242.697 131.458C243.086 131.154 243.466 130.858 243.407 130.328C243.478 130.311 243.548 130.294 243.619 130.276C244.061 130.166 244.488 130.038 244.801 129.774C244.199 130.901 243.444 131.845 242.078 132.065Z" fill="#717E84"/>
<path d="M150.463 197.075C150.615 197.256 150.615 197.256 150.768 197.437C150.5 198.592 149.621 199.022 148.895 199.633C148.561 199.604 148.561 199.604 148.561 199.604L148.743 199.451C149.316 198.659 149.889 197.867 150.463 197.075Z" fill="#717E84"/>
<path d="M174.565 196.614C173.868 196.891 173.171 197.168 172.474 197.445C173.076 196.319 173.802 195.708 174.804 195.794C175.109 196.156 174.746 196.462 174.565 196.614Z" fill="#717E84"/>
<path d="M152.709 204.165C152.68 204.499 152.833 204.681 152.651 204.833C151.954 205.11 151.257 205.387 150.56 205.664C151.163 204.538 151.707 204.08 152.709 204.165Z" fill="#717E84"/>
<path d="M155.224 188.733C155.137 189.735 154.44 190.012 153.17 191.081C154.135 189.649 154.527 189.01 154.919 188.371C155.1 188.218 155.253 188.399 155.224 188.733C155.405 188.58 155.405 188.58 155.224 188.733Z" fill="#717E84"/>
<path d="M174.565 196.614C174.594 196.28 174.623 195.946 174.804 195.794C175.349 195.336 176.075 194.725 176.896 194.963C176.79 195.207 176.692 195.366 176.594 195.526C176.496 195.686 176.398 195.846 176.293 196.089C175.778 196.213 175.262 196.338 174.565 196.614Z" fill="#717E84"/>
<path d="M238.214 151.42C237.957 151.482 237.782 151.551 237.608 151.62C237.434 151.689 237.26 151.759 237.002 151.821C237.089 150.819 237.967 150.389 238.512 149.931C238.875 149.626 239.056 149.473 239.18 149.988C238.817 150.294 238.606 150.78 238.214 151.42Z" fill="#717E84"/>
<path d="M239.361 149.835C239.027 149.807 238.875 149.626 238.693 149.778C238.751 149.11 239.325 148.318 239.811 148.528C240.145 148.557 239.572 149.349 239.361 149.835Z" fill="#717E84"/>
<path d="M245.827 135.415C245.66 135.4 245.531 135.431 245.402 135.462C245.283 135.491 245.164 135.52 245.015 135.513C245.002 135.512 244.99 135.511 244.977 135.51C245.035 134.842 245.579 134.384 245.942 134.078C246.4 134.622 246.037 134.928 245.827 135.415Z" fill="#717E84"/>
<path d="M155.224 188.733C155.071 188.552 154.919 188.371 154.919 188.371C155.129 187.884 155.674 187.426 155.884 186.939C155.955 186.945 156.026 186.951 156.095 186.955C156.134 186.958 156.173 186.96 156.21 186.961C156.285 186.963 156.356 186.962 156.423 186.955C156.547 186.942 156.655 186.91 156.734 186.843C156.494 187.664 155.95 188.122 155.224 188.733Z" fill="#717E84"/>
<path d="M148.743 199.451C148.895 199.633 148.895 199.633 149.048 199.814C149.142 200.663 148.598 201.121 147.567 201.37C148.14 200.577 148.532 199.938 148.743 199.451Z" fill="#717E84"/>
<path d="M72.8828 214.661C73.079 214.746 73.241 214.909 73.4082 215.078C73.6558 215.329 73.9149 215.591 74.3137 215.625C74.895 216.684 75.3238 217.562 76.0866 218.469C75.9051 218.621 75.8762 218.955 75.7237 218.774C75.7237 218.774 75.5711 218.593 75.4185 218.411C74.5032 217.324 73.2537 216.207 72.8828 214.661Z" fill="#717E84"/>
<path d="M59.0546 125.649C58.8113 125.544 58.6062 125.484 58.401 125.425C58.2433 125.379 58.0855 125.333 57.9104 125.267C57.8577 125.247 57.8035 125.225 57.7473 125.201C57.2896 124.657 57.0134 123.96 57.2528 123.139C58.226 123.559 58.8363 124.284 59.0546 125.649Z" fill="#717E84"/>
<path d="M86.1715 234.138C86.5056 234.167 86.8397 234.196 86.9922 234.377C87.421 235.255 87.8497 236.133 88.2785 237.011C88.0681 237.497 87.734 237.469 87.6104 236.954C87.029 235.894 86.2663 234.988 86.1715 234.138Z" fill="#717E84"/>
<path d="M75.5711 218.593C75.9052 218.621 75.9051 218.621 76.2392 218.65C76.8495 219.375 77.1257 220.072 77.1914 221.255C76.2471 220.501 75.3028 219.748 75.5711 218.593Z" fill="#717E84"/>
<path d="M93.192 228.85C93.526 228.879 93.8601 228.908 93.8601 228.908C93.9548 229.757 94.3835 230.635 93.4471 231.733C93.1999 230.702 93.1051 229.853 93.192 228.85Z" fill="#717E84"/>
<path d="M76.4309 142.616C76.2494 142.769 76.2494 142.769 76.0679 142.921C75.2762 142.349 75 141.652 75.0868 140.65C75.8785 141.223 76.1547 141.919 76.4309 142.616Z" fill="#717E84"/>
<path d="M91.3928 234.081C91.7269 234.109 92.061 234.138 92.2135 234.319C92.4897 235.016 92.7659 235.712 92.0399 236.323C91.4297 235.598 91.335 234.749 91.3928 234.081Z" fill="#717E84"/>
<path d="M87.6393 236.619C87.9734 236.648 88.1548 236.495 88.3074 236.677C88.5836 237.373 89.0413 237.917 88.8019 238.738C88.0102 238.166 87.5525 237.622 87.6393 236.619Z" fill="#717E84"/>
<path d="M132.355 143.871C133.087 142.786 132.963 141.53 132.844 140.326C132.807 139.941 132.769 139.562 132.76 139.194C131.945 111.699 129.43 84.3953 126.915 57.0913C126.857 56.0454 126.799 54.9996 126.741 53.9537C126.733 53.8162 126.726 53.6786 126.718 53.5411C127.02 53.567 127.323 53.5929 127.625 53.6188C127.657 53.6215 127.688 53.6242 127.72 53.6269C128.892 62.5283 129.602 71.3901 130.316 80.3051C130.653 84.5133 130.991 88.7333 131.379 92.9748C132.681 108.775 133.626 124.875 134.093 140.773C134.097 140.902 134.101 141.031 134.104 141.16C134.228 141.676 134.504 142.372 134.628 142.888C134.78 143.069 134.751 143.403 134.57 143.556C134.178 144.195 134.578 145.407 133.394 145.474C132.726 145.417 132.631 144.567 132.355 143.871Z" fill="#717E84"/>
<path d="M134.933 143.25C134.78 143.069 134.78 143.069 134.628 142.888C134.17 142.344 134.381 141.857 134.773 141.217C134.784 141.155 134.796 141.093 134.808 141.031C135.811 135.69 136.229 130.443 136.651 125.148C136.864 122.465 137.079 119.769 137.371 117.043C137.704 117.072 138.037 117.1 138.37 117.129L138.373 117.129C138.157 119.633 137.985 122.098 137.813 124.564L137.813 124.568C137.642 127.035 137.47 129.502 137.253 132.008C137.305 132.181 137.348 132.353 137.381 132.525C137.679 134.066 137.231 135.556 136.637 137.171C136.979 139.051 135.804 140.969 135.964 143.002C135.601 143.307 135.449 143.126 135.114 143.098C135.114 143.098 135.114 143.098 134.933 143.25Z" fill="#717E84"/>
<path d="M143.923 101.62C144.026 104.321 143.795 106.993 143.229 109.637C143.164 109.631 143.098 109.626 143.033 109.62C142.764 109.597 142.496 109.574 142.227 109.551C142.44 107.092 142.653 104.633 142.866 102.175C142.884 101.961 142.903 101.748 142.921 101.534C143.255 101.563 143.589 101.592 143.923 101.62Z" fill="#717E84"/>
<path d="M136.971 137.199C137.102 135.694 137.232 134.189 137.496 132.572C137.524 132.395 137.555 132.216 137.587 132.036C137.875 132.061 138.163 132.086 138.451 132.11C138.497 132.114 138.543 132.118 138.589 132.122C138.081 134.098 138.605 135.825 136.971 137.199Z" fill="#717E84"/>
<path d="M129.222 28.5176C129.141 28.5107 129.062 28.4844 128.984 28.4479C128.901 28.4089 128.818 28.3583 128.735 28.3077C128.582 28.2136 128.428 28.1195 128.268 28.0997C128.261 28.099 128.255 28.0983 128.249 28.0978C127.973 27.4011 127.667 27.0385 127.268 25.8265C128.546 26.6089 129.156 27.3342 129.222 28.5176Z" fill="#717E84"/>
<path d="M120.524 117.283C120.789 117.306 121.055 117.329 121.32 117.352C121.389 117.357 121.457 117.363 121.526 117.369C121.984 117.913 122.26 118.61 121.657 119.736C120.713 118.982 120.437 118.285 120.524 117.283Z" fill="#717E84"/>
<path d="M114.137 43.3783C114.133 43.3733 114.128 43.3682 114.124 43.3632C113.976 43.1869 113.828 43.0106 113.679 42.8344C113.664 42.7718 113.654 42.7097 113.649 42.648C113.612 42.2013 113.832 41.7767 114.31 41.3741C114.587 42.0708 114.529 42.7389 114.137 43.3783Z" fill="#717E84"/>
<path d="M138.218 45.1035C139.22 45.1893 139.162 45.8574 139.104 46.5255C137.921 46.5924 138.676 45.6475 138.218 45.1035Z" fill="#717E84"/>
<path d="M135.296 142.945C135.63 142.973 135.964 143.002 135.964 143.002C136.088 143.517 136.182 144.367 135.667 144.491C134.999 144.434 135.754 143.489 135.296 142.945Z" fill="#717E84"/>
<path d="M134.773 141.217C134.715 141.885 134.686 142.22 134.628 142.888C133.608 142.343 133.983 141.641 134.24 140.904C134.267 140.827 134.292 140.75 134.315 140.673C134.467 140.855 134.62 141.036 134.773 141.217Z" fill="#717E84"/>
<path fill-rule="evenodd" clip-rule="evenodd" d="M93.7234 253.797C94.5836 263.293 94.9282 272.913 94.9388 282.504C94.9912 282.567 95.0445 282.619 95.0943 282.662L95.0913 282.686C95.1174 282.697 95.1411 282.708 95.1626 282.717C95.2563 282.788 95.3267 282.82 95.3364 282.817C95.3456 282.814 95.2988 282.78 95.1626 282.717C95.1409 282.701 95.118 282.683 95.0943 282.662C95.4709 279.68 95.4123 276.747 95.3541 273.839C95.3313 272.698 95.3085 271.558 95.3122 270.422C95.3593 266.646 95.0329 262.808 94.7051 258.954C94.245 253.545 93.782 248.101 94.3441 242.746C94.7675 238.829 95.1527 234.868 95.5379 230.906L95.5383 230.902L95.5386 230.899L95.539 230.895C95.9241 226.934 96.3092 222.974 96.7324 219.058C96.6647 218.776 96.5341 218.64 96.3451 218.595C96.1887 218.558 95.9926 218.582 95.7592 218.639C95.4201 218.236 95.2318 218.012 95.1239 217.754C94.9891 217.432 94.98 217.057 94.9595 216.215C94.1335 200.496 91.7898 184.816 87.2024 169.786C84.9227 162.173 82.5374 154.436 78.4256 147.402C77.5938 145.979 76.6914 144.585 75.7049 143.227C75.4148 142.882 75.1976 142.476 75.0385 142.178C74.9467 142.007 74.8743 141.871 74.8185 141.805C74.874 141.871 74.9659 142.029 75.0826 142.229L75.0848 142.233C75.2886 142.584 75.5673 143.063 75.8575 143.408C76.5394 144.371 77.22 145.348 77.8968 146.336C80.4935 150.128 83.0324 154.082 85.3611 158.019C91.9371 169.518 96.756 181.877 96.7534 195.505C96.8839 198.94 96.5357 202.402 96.1851 205.888C95.9843 207.885 95.7827 209.889 95.6697 211.901C95.6645 211.961 95.659 212.021 95.6532 212.082L95.6412 212.204L95.621 212.404C95.4989 213.6 95.3703 214.861 96.1721 215.814C96.1933 215.823 96.2144 215.832 96.2356 215.841C96.7005 216.041 97.1545 216.212 97.3558 215.747C97.6202 213.666 97.8391 211.624 98.0581 209.581C98.2771 207.539 98.4961 205.497 98.7604 203.416C100.041 190.571 97.5608 178.412 92.1974 166.512C85.148 150.765 74.4976 137.739 62.6056 125.448L62.1117 124.935C59.7861 122.516 57.3168 119.949 54.5566 117.356C54.5227 117.747 54.3842 118.014 54.2693 118.235C54.1881 118.392 54.1188 118.525 54.1068 118.664C50.4954 133.161 47.7336 147.562 47.2812 162.498C47.1603 169.722 47.7363 176.67 51.1953 183.36C54.8068 190.231 58.7813 196.797 63.2714 203.238C66.36 207.864 69.5251 212.429 72.6816 216.982L72.6836 216.985L72.6865 216.989L72.6879 216.991L72.6892 216.993C78.0538 224.731 83.3984 232.44 88.3232 240.38C90.83 244.464 93.3367 248.548 93.7234 253.797ZM72.8828 214.661C65.523 204.44 58.1921 193.886 52.2553 182.778C49.9301 178.541 48.9989 173.75 48.5833 168.835C48.094 160.885 48.7884 152.868 50.3324 144.756C53.3548 170.085 63.1372 193.132 74.3137 215.625C73.9149 215.591 73.6558 215.329 73.4082 215.078C73.241 214.909 73.079 214.746 72.8828 214.661ZM69.095 202.054C74.1822 213.258 79.6613 223.822 86.1715 234.138C86.5056 234.167 86.8397 234.196 86.9922 234.377C85.8538 231.505 84.7091 228.639 83.5649 225.775L83.5605 225.764C78.5991 213.342 73.6492 200.95 69.2791 188.273C62.7005 169.034 56.6663 149.336 54.2411 128.77C54.2989 128.102 54.1753 127.587 53.3546 127.348C53.2494 127.592 53.1823 127.88 53.1153 128.169C53.0482 128.458 52.9811 128.747 52.8759 128.99C51.1504 137.255 51.7922 145.386 53.1022 153.574C55.8457 170.466 61.8641 186.461 69.095 202.054ZM88.8278 233.94L88.8359 233.959C89.4518 235.438 90.0676 236.916 90.6827 238.394C81.4394 199.41 68.5872 161.294 55.3721 123.483C59.0945 162.569 73.9665 198.267 88.8278 233.94ZM75.5577 158.525C71.1676 147.045 65.8989 135.994 59.0546 125.649C58.8113 125.544 58.6062 125.484 58.401 125.425C58.2433 125.379 58.0855 125.333 57.9104 125.267C63.6134 142.28 69.1659 159.117 74.5398 176.105C80.6029 195.468 86.1793 214.622 91.3928 234.081C91.7269 234.109 92.061 234.138 92.2135 234.319C90.0986 208.227 84.8904 182.88 75.5577 158.525ZM93.192 228.85C90.9561 209.983 87.6891 191.364 81.8733 173.031C77.1622 157.485 70.8755 142.645 62.4977 128.636C62.4242 128.485 62.3551 128.34 62.2881 128.199C61.9644 127.518 61.6881 126.937 61.1826 126.336C62.3728 126.306 62.8755 127.045 63.3314 127.715C63.4568 127.899 63.5787 128.079 63.7103 128.235C73.4086 138.656 79.2007 151.434 83.7802 164.613C90.7298 185.399 93.5838 206.843 93.526 228.879L93.192 228.85Z" fill="#717E84"/>
<path fill-rule="evenodd" clip-rule="evenodd" d="M96.4273 218.696C96.3615 217.512 96.2958 216.329 96.7166 215.356C96.8232 212.431 97.1547 209.494 97.4898 206.525C97.9235 202.683 98.3631 198.788 98.329 194.798C97.6976 174.891 88.8831 158.152 76.5835 142.797C76.4164 142.783 76.3329 142.776 76.2875 142.814C76.2422 142.852 76.235 142.936 76.2205 143.103C76.7958 144.177 77.3544 145.255 77.8968 146.336C80.4935 150.128 83.0324 154.082 85.3611 158.019C91.9371 169.518 96.756 181.877 96.7534 195.505C96.8839 198.94 96.5357 202.402 96.1851 205.888C95.9843 207.885 95.7827 209.889 95.6697 211.901C95.6645 211.961 95.659 212.021 95.6532 212.082L95.6412 212.204L95.621 212.404C95.4989 213.6 95.3703 214.861 96.1721 215.814L96.2356 215.841C95.5119 216.742 95.6378 217.698 96.3451 218.595C96.1887 218.558 95.9926 218.582 95.7592 218.639C95.4201 218.236 95.2318 218.012 95.1239 217.754C94.9891 217.432 94.98 217.057 94.9595 216.215C94.1335 200.496 91.7898 184.816 87.2024 169.786C84.9227 162.173 82.5374 154.436 78.4256 147.402C78.3007 147.148 78.175 146.893 78.0484 146.639C89.6796 169.977 93.783 195.043 95.2226 220.948C96.0462 220.461 96.1348 219.91 96.2155 219.408C96.2564 219.153 96.2954 218.911 96.4273 218.696Z" fill="#717E84"/>
<path fill-rule="evenodd" clip-rule="evenodd" d="M130.672 169.133C130.825 168.139 130.925 167.141 131.024 166.153C131.173 164.665 131.32 163.201 131.642 161.813C132.926 156.707 132.176 151.763 130.425 146.734C127.116 137.236 123.327 127.897 119.534 118.547C117.302 113.045 115.068 107.539 112.93 101.995C111.528 98.4596 110.237 94.6682 108.965 90.9337C108.483 89.5173 108.003 88.109 107.522 86.7259C104.36 78.5473 104.234 70.2922 106.141 61.8745C109.686 46.1941 116.152 31.7731 123.467 17.2566C127.499 23.1542 131.045 28.8419 134.257 34.501C141.109 46.6971 146.901 59.4754 149.905 73.3611C152.632 86.5501 152.201 99.3004 148.066 112.07C146.61 116.464 145.085 120.853 143.556 125.252L143.555 125.256C140.303 134.614 137.034 144.02 134.37 153.634C133.728 156.187 133.337 158.761 132.946 161.336C132.555 163.91 132.163 166.484 131.521 169.037C131.13 169.677 130.796 169.648 130.672 169.133ZM107.687 82.8703C111.046 94.5991 115.618 105.927 120.524 117.283L121.32 117.352C121.338 117.301 121.356 117.247 121.373 117.188C121.079 115.732 120.739 114.315 120.399 112.898C120.059 111.481 119.719 110.064 119.424 108.608C114.589 87.0956 111.257 65.5449 114.124 43.3632L113.679 42.8344C113.664 42.7718 113.654 42.7097 113.649 42.648C110.671 50.0839 108.178 57.7275 106.825 65.6346C105.817 71.4372 105.993 77.1729 107.687 82.8703ZM114.303 60.8908C114.542 81.4382 118.361 101.451 123.728 121.091C125.516 127.638 127.305 134.184 129.791 140.454C129.502 138.635 129.211 136.816 128.921 134.997L128.92 134.99C123.196 99.1221 117.477 63.2818 121.044 25.7984C119.476 28.3562 118.635 30.3032 117.946 32.4315C114.95 41.7654 114.292 51.2995 114.303 60.8908ZM129.125 126.769C129.969 132.562 130.814 138.355 132.355 143.871C133.087 142.786 132.963 141.53 132.844 140.326C132.807 139.941 132.769 139.562 132.76 139.194C131.945 111.699 129.43 84.3953 126.915 57.0913L126.741 53.9537C126.685 53.756 126.627 53.558 126.565 53.3598C126.132 49.2172 125.665 45.1026 125.196 40.9658C124.569 35.4391 123.937 29.8727 123.375 24.1471C122.398 25.2395 122.347 26.0258 122.292 26.8753C122.284 26.9981 122.276 27.1223 122.265 27.2489C121.084 35.0557 121.086 42.7955 121.089 50.5354C121.563 76.1504 124.919 101.507 129.125 126.769ZM127.749 53.2929C126.889 43.7971 126 34.6353 124.987 24.9582C126.013 25.5859 126.258 26.4718 126.521 27.4234C126.586 27.6579 126.652 27.8965 126.731 28.1361C134.538 50.6773 137.581 73.8203 137.713 97.5552L137.713 97.5584C137.65 104.114 137.587 110.669 137.371 117.043C137.079 119.769 136.864 122.465 136.651 125.148C136.229 130.443 135.811 135.69 134.808 141.031C134.752 141.04 134.689 141.042 134.62 141.036L134.315 140.673C134.292 140.75 134.267 140.827 134.24 140.904C134.186 140.865 134.138 140.821 134.093 140.773C133.626 124.875 132.681 108.775 131.379 92.9748C130.991 88.7333 130.653 84.5133 130.316 80.3051C129.602 71.3901 128.892 62.5283 127.72 53.6269L127.625 53.6188C127.66 53.5119 127.701 53.4032 127.749 53.2929ZM141.346 115.777C141.628 113.69 141.909 111.613 142.227 109.551L142.866 102.175C142.827 102.012 142.785 101.85 142.74 101.687C143.171 88.9369 143.116 75.9766 141.027 63.1789C138.881 51.0491 136.037 39.1962 129.04 28.6703L129.04 28.6677L129.015 28.564C129.005 28.5247 128.995 28.4858 128.984 28.4479C128.901 28.4089 128.818 28.3583 128.735 28.3077C128.582 28.2136 128.428 28.1195 128.268 28.0997C128.207 28.1395 128.14 28.1893 128.067 28.2504C132.4 40.3991 135.033 52.7387 136.787 65.5079C139.153 82.596 139.69 99.6938 138.37 117.129L138.373 117.129C138.157 119.633 137.985 122.098 137.813 124.564L137.813 124.568C137.642 127.035 137.47 129.502 137.253 132.008C137.305 132.181 137.348 132.353 137.381 132.525C137.42 132.542 137.458 132.557 137.496 132.572C137.524 132.395 137.555 132.216 137.587 132.036L138.451 132.11C139.872 126.684 140.613 121.199 141.346 115.777ZM143.923 101.62C145.217 84.7375 144.326 67.8359 140.188 51.4976C140.155 51.2016 140.041 50.8987 139.924 50.5884C139.705 50.0083 139.477 49.4024 139.751 48.7681C152.88 66.2127 153.532 105.303 140.97 127.951C141.142 125.047 141.569 122.202 141.992 119.376C142.472 116.174 142.948 112.998 143.048 109.79L143.033 109.62L143.229 109.637C143.795 106.993 144.026 104.321 143.923 101.62Z" fill="#717E84"/>
<path fill-rule="evenodd" clip-rule="evenodd" d="M113.067 248.05C113.694 245.665 114.367 243.241 115.04 240.816C115.713 238.392 116.385 235.968 117.013 233.582C117.405 232.943 117.557 233.124 118.015 233.668C117.747 234.823 117.449 236.311 117.334 237.648C118.002 237.705 118.546 237.247 118.757 236.76C123.053 230.606 128.059 224.886 133.045 219.19C134.748 217.245 136.448 215.303 138.116 213.348C142.845 207.943 146.355 201.741 149.87 195.53C150.936 193.646 152.003 191.761 153.104 189.898C156.45 184.295 159.824 178.359 163.018 172.575C170.217 159.395 180.983 149.717 194.19 142.939C211.819 133.681 231.018 129.604 250.769 126.92C250.559 127.407 250.53 127.741 250.501 128.075C244.283 143.527 237.578 158.768 227.162 172.178C222.603 178.181 216.882 182.066 210.064 185.016C198.823 189.879 187.32 193.88 175.838 197.873C171.071 199.531 166.308 201.188 161.568 202.905C159.568 203.659 157.606 204.458 155.645 205.257L155.642 205.258C153.68 206.058 151.719 206.857 149.719 207.611C144.505 209.52 140.178 212.851 136.614 217.089C134.941 219.132 133.211 221.151 131.475 223.176C128.135 227.074 124.774 230.996 121.755 235.166C118.707 239.279 115.811 243.574 114.374 248.499C113.525 248.594 113.191 248.566 113.067 248.05ZM158.147 182.514C157.404 183.882 156.662 185.248 155.913 186.605C155.949 186.755 156.016 186.88 156.095 186.955C156.134 186.958 156.173 186.96 156.21 186.961C156.285 186.963 156.356 186.962 156.423 186.955C156.51 186.855 156.582 186.656 156.61 186.328C159.993 182.243 163.557 178.005 167.273 173.949C179.179 160.835 192.304 149.172 207.718 140.228C209.217 139.431 210.678 138.589 212.14 137.746C213.601 136.904 215.062 136.061 216.561 135.264C212.466 135.923 208.828 137.126 205.161 138.663C192.099 143.77 180.715 150.871 171.561 161.361C166.185 167.713 162.152 175.139 158.147 182.514ZM152.336 194.88C159.609 184.734 167.492 175.314 176.501 166.495C188.835 154.259 202.541 143.655 218.508 136.104C224.295 133.403 230.205 131.217 236.363 130.061C236.459 130.038 236.567 130.005 236.683 129.969C237.191 129.811 237.842 129.609 238.214 130.052C238.001 130.968 237.212 131.199 236.547 131.394C236.374 131.445 236.209 131.493 236.065 131.55C212.432 142.146 191.791 157.036 173.105 174.617C167.843 179.513 162.947 184.633 158.074 189.729C156.506 191.369 154.941 193.005 153.367 194.631C153.243 194.918 153.129 195.089 153.022 195.178C153.083 195.054 153.137 194.923 153.185 194.784C153.004 194.937 152.67 194.908 152.336 194.88ZM197.712 164.441C212.297 153.407 227.188 142.736 242.078 132.065C242.226 131.825 242.463 131.64 242.697 131.458C243.086 131.154 243.466 130.858 243.407 130.328C243.478 130.311 243.548 130.294 243.619 130.276C243.61 130.244 243.6 130.21 243.588 130.175C224.434 137.621 207.51 148.455 191.473 160.71C174.891 173.423 152.162 196.884 148.758 203.154C164.425 189.353 181.159 176.82 197.712 164.441ZM236.842 137.461C206.952 158.918 176.92 180.477 149.129 204.7C149.184 204.654 149.27 204.61 149.363 204.563C149.578 204.453 149.835 204.322 149.855 204.089C162.089 196.892 174.199 189.18 186.157 181.286C203.473 169.813 220.178 157.615 235.387 143.27C239.438 139.242 243.307 135.367 246.413 130.585C243.24 132.869 240.061 135.151 236.881 137.433L236.862 137.447L236.842 137.461ZM226.657 160.525C234.519 153.291 241.923 145.512 245.827 135.415C245.66 135.4 245.531 135.431 245.402 135.462C245.283 135.491 245.164 135.52 245.015 135.513C244.407 136.168 243.763 136.853 243.119 137.538C242.424 138.278 241.729 139.018 241.079 139.719C231.62 149.846 220.788 158.341 209.804 166.654C199.393 174.175 188.829 181.515 178.142 188.34C174.312 190.788 170.528 193.198 166.744 195.608C162.959 198.018 159.175 200.429 155.345 202.877C155.278 202.903 155.219 202.929 155.167 202.954C155.138 203.19 155.088 203.4 154.956 203.513C154.998 203.57 155.049 203.631 155.106 203.698C156.772 202.915 158.522 202.139 160.272 201.364C162.021 200.588 163.771 199.813 165.438 199.03C187.525 188.807 208.573 176.98 226.657 160.525ZM238.214 151.42C233.817 159.456 229.266 167.311 223.285 174.202C219.539 178.592 214.602 181.198 209.512 183.622C199.472 188.058 189.22 191.61 178.809 195.217C177.971 195.507 177.133 195.798 176.293 196.089C176.398 195.846 176.496 195.686 176.594 195.526C176.692 195.366 176.79 195.207 176.896 194.963C185.194 190.458 193.493 185.953 201.487 181.085C214.657 172.79 226.578 163.379 237.002 151.821C237.26 151.759 237.434 151.689 237.608 151.62C237.782 151.551 237.957 151.482 238.214 151.42Z" fill="#717E84"/>
<path fill-rule="evenodd" clip-rule="evenodd" d="M63.7298 374.727C63.809 373.814 63.9908 373.328 64.5723 372.787C64.614 373.182 64.4448 373.487 64.2597 373.82C64.1361 374.043 64.0054 374.278 63.9257 374.562L63.7298 374.727ZM65.4211 372.685C65.2008 373.44 64.7222 373.888 63.94 374.55C64.0845 374.087 64.3853 373.823 64.6656 373.577C64.9146 373.358 65.1473 373.154 65.2396 372.837L65.3314 372.741L65.3421 372.736L65.355 372.729L65.3652 372.723L65.3707 372.72C65.3885 372.71 65.4054 372.698 65.4211 372.685ZM13.4823 443.913C13.5127 443.883 13.5432 443.854 13.5738 443.826C13.5234 443.882 13.4692 443.935 13.4123 443.985C13.4355 443.961 13.4589 443.937 13.4823 443.913ZM81.0267 339.529L81.0954 339.366C80.9977 339.25 80.9002 339.134 80.7728 339.043L80.5798 339.491L81.0267 339.529ZM14.7166 443.304L14.1766 443.674C13.7809 443.77 13.5017 443.949 13.2686 444.15C13.0576 444.412 12.8601 444.752 12.6957 445.23L14.8736 443.398C14.8237 443.338 14.7707 443.315 14.7166 443.304ZM31.5444 330.581C30.4476 329.646 30.2003 328.615 29.982 327.251C30.316 327.279 30.6501 327.308 30.8026 327.489L31.5444 330.581ZM24.8735 254.128L25.8757 254.214C26.2676 253.574 26.3255 252.906 25.9546 251.36C25.7297 252.014 25.5192 252.501 25.3351 252.927C25.151 253.353 24.9932 253.718 24.8735 254.128ZM32.2648 250.386C32.0754 248.688 32.2201 247.017 32.6988 245.376L33.701 245.462C33.7158 245.595 33.7277 245.727 33.7367 245.857C33.8371 247.302 33.5998 248.622 33.3215 250.168L33.2908 250.34L33.267 250.472L32.2648 250.386ZM39.1644 273.691C38.9317 271.063 38.8499 268.307 38.8972 265.678L38.9015 265.455C38.9052 265.276 38.9095 265.098 38.9144 264.921L39.3901 264.961L39.9166 265.006C41.3029 283.969 42.5077 303.085 42.7103 322.115C42.5116 322.194 42.3424 322.248 42.1985 322.281C41.8376 322.363 41.6357 322.312 41.5266 322.182C41.2869 317.354 41.0334 312.509 40.7792 307.653C40.1885 296.366 39.5948 285.022 39.1644 273.691ZM46.6349 331.2C46.7399 329.988 46.8283 328.755 46.9176 327.511C47.0989 324.984 47.2837 322.407 47.6186 319.843L47.6838 319.849L48.6207 319.929C48.6365 323.632 48.3183 327.306 47.637 331.286L46.6349 331.2ZM45.7897 346.302L45.819 346.206L45.8484 346.107L46.3451 346.15L46.5166 346.165C46.4298 347.167 46.343 348.169 45.5591 349.448C45.2332 348.089 45.5186 347.173 45.7551 346.414L45.7897 346.302ZM41.2346 239.157C41.2574 239.235 41.2776 239.31 41.2948 239.382C41.5038 239.63 41.7263 239.722 42.0021 239.822L42.0595 239.843C42.1705 239.883 42.2901 239.927 42.4206 239.983C42.3259 239.134 41.7157 238.408 41.258 237.864C41.1633 237.015 41.0397 236.5 40.0664 236.08C40.3426 236.776 40.4663 237.292 40.5899 237.807C40.8525 238.119 41.0937 238.679 41.2346 239.157ZM52.5457 314.573C53.0112 311.051 53.3069 307.546 53.4383 303.992C53.4833 302.777 53.509 301.555 53.5158 300.326C53.8209 300.689 54.3075 300.899 54.8231 300.775C54.7889 306.997 54.2681 313.009 53.2318 319.146C53.1412 319.107 53.056 319.074 52.9741 319.045C52.8358 318.997 52.707 318.959 52.5782 318.922C52.373 318.862 52.1678 318.803 51.9245 318.698C52.1575 317.318 52.3645 315.944 52.5457 314.573ZM119.146 313.853C119.691 313.395 120.054 313.089 120.446 312.45C120.672 312.396 120.868 312.306 121.046 312.226C121.274 312.122 121.471 312.033 121.658 312.049C121.445 312.965 120.849 313.425 120.158 313.957C119.978 314.095 119.792 314.239 119.604 314.397L119.756 314.578C119.67 315.58 118.791 316.01 117.913 316.439C118.234 315.696 118.645 315.058 118.995 314.513C119.054 314.421 119.112 314.332 119.167 314.245L119.138 314.211L119.117 314.187C118.965 314.006 118.965 314.006 119.146 313.853ZM24.6756 428.337C24.8644 428.101 25.0531 427.865 25.1583 427.621C25.4161 427.559 25.5903 427.49 25.7646 427.421C25.9389 427.351 26.1131 427.282 26.3709 427.22C26.3008 428.029 25.7146 428.465 25.2048 428.844C25.0832 428.935 24.9659 429.022 24.8611 429.11C24.8032 429.778 24.2587 430.236 23.3802 430.666C23.9536 429.874 24.164 429.387 24.1929 429.053C24.2982 428.809 24.4869 428.573 24.6756 428.337ZM211.622 258.339C211.564 259.007 210.867 259.284 210.199 259.227C210.21 259.099 210.194 258.994 210.181 258.904C210.16 258.758 210.145 258.653 210.257 258.559C210.62 258.253 211.651 258.005 211.622 258.339ZM59.9141 417.553C60.5136 416.999 61.1594 416.402 61.965 416.471C61.8598 416.714 61.7618 416.874 61.6638 417.034C61.6017 417.135 61.5396 417.237 61.4756 417.359C61.4615 417.386 61.4473 417.415 61.433 417.444C61.4218 417.467 61.4105 417.491 61.3992 417.515C61.3871 417.542 61.3749 417.569 61.3627 417.597C60.6656 417.874 59.9686 418.151 59.4241 418.609C59.3212 418.565 59.2413 418.515 59.1843 418.462C58.516 418.728 57.8408 418.999 56.9989 419.411C57.7827 418.132 58.4798 417.855 59.3294 417.76L59.3087 417.998C59.3585 417.976 59.4163 417.957 59.4819 417.941C59.6244 417.821 59.7679 417.688 59.9141 417.553ZM172.501 381.684C172.466 382.083 172.204 382.342 171.954 382.59C171.784 382.757 171.62 382.92 171.536 383.116C172.719 383.049 173.293 382.257 173.895 381.13C173.532 381.436 173.016 381.56 172.501 381.684ZM117.089 329.829C117.426 329.548 117.763 329.274 118.106 329.051C118.627 328.713 119.161 328.492 119.725 328.541L119.638 329.543L119.429 329.626C118.8 329.876 118.156 330.139 117.366 330.526C117.201 330.664 117.061 330.529 116.923 330.368C116.757 330.426 116.599 330.478 116.44 330.531C116.137 330.631 115.833 330.731 115.485 330.87C115.724 330.049 116.24 329.925 117.089 329.829ZM64.297 420.63C64.459 420.617 64.6285 420.604 64.8058 420.584L64.7591 421.124L64.748 421.252C64.0509 421.529 63.3539 421.806 62.7436 421.08C63.1745 420.718 63.6827 420.678 64.297 420.63ZM117.018 413.246C117.332 413.171 117.646 413.096 117.96 413.021C118.062 413.142 118.002 413.398 117.943 413.655C117.913 413.783 117.883 413.911 117.874 414.023C108.383 416.744 98.6455 418.434 89.0894 419.971C88.7922 420.043 88.4721 420.056 88.1482 420.07C87.3482 420.104 86.5251 420.139 85.9672 421.05C85.9212 421.011 85.8734 420.977 85.8237 420.948C85.3985 420.701 84.844 420.811 84.2764 420.925C83.328 421.114 82.3431 421.31 81.8638 419.857C82.2086 419.805 82.5534 419.753 82.8982 419.7C94.3393 417.958 105.798 415.909 117.018 413.246ZM114.451 323.378C114.843 322.738 115.598 321.794 116.505 321.03C116.839 321.059 117.173 321.087 117.355 320.935C116.996 321.979 116.132 322.658 115.243 323.356C115.019 323.532 114.794 323.709 114.575 323.893C114.392 323.878 114.309 323.871 114.301 323.842C114.295 323.819 114.34 323.781 114.422 323.712C114.422 323.712 114.27 323.531 114.451 323.378ZM65.3021 412.685L65.5002 412.567C65.6817 412.415 65.8921 411.928 66.1026 411.441C65.9304 411.483 65.738 411.541 65.574 411.633C64.4261 412.119 63.4671 412.972 62.5606 413.778C62.3054 414.005 62.0544 414.228 61.8045 414.438C60.4515 414.472 59.826 415.371 59.2999 416.127C59.2359 416.219 59.1733 416.309 59.1111 416.395L61.7467 415.106C62.7781 414.238 64.1093 413.396 65.3021 412.685ZM141.08 322.237L141.312 322.144C141.218 322.032 141.251 321.931 141.297 321.791C141.313 321.744 141.33 321.693 141.344 321.635C141.351 321.604 141.358 321.571 141.363 321.536C141.366 321.517 141.368 321.497 141.37 321.476C140.187 321.543 139.642 322.001 139.221 322.975L141.08 322.237ZM204.751 277.437C204.694 278.105 204.636 278.773 203.757 279.202L203.452 278.84C203.357 277.99 203.902 277.532 204.751 277.437ZM114.393 324.046L114.088 323.683C113.333 324.628 112.578 325.573 111.46 326.823C111.723 326.66 111.978 326.513 112.222 326.372C113.3 325.751 114.151 325.26 114.393 324.046ZM42.6421 355.928C42.3948 354.897 42.2712 354.382 42.9972 353.771C43.76 354.678 43.368 355.317 42.6421 355.928Z" fill="#717E84"/>
<path fill-rule="evenodd" clip-rule="evenodd" d="M160.698 269.29C146.67 275.829 135.236 285.45 127.187 298.726L127.186 298.728C121.307 308.319 115.429 317.91 109.369 327.654C108.755 328.58 108.172 329.545 107.588 330.514C105.962 333.207 104.317 335.93 101.915 337.952C89.2146 348.947 76.9697 360.483 65.3314 372.741L65.3421 372.736L65.355 372.729L65.3652 372.723L65.3707 372.72C65.3885 372.71 65.4054 372.698 65.4211 372.685C65.2008 373.44 64.7222 373.888 63.94 374.55C63.8799 374.742 63.8468 374.969 63.8534 375.242C63.8391 374.984 63.8698 374.761 63.9257 374.562L63.7298 374.727C63.809 373.814 63.9908 373.328 64.5723 372.787L64.5715 372.78C70.5379 361.903 76.1734 350.998 81.0267 339.529L80.5798 339.491L80.7728 339.043C80.5021 338.85 80.0971 338.769 79.2725 339.042L77.4655 342.421C68.1698 362.32 57.9299 381.465 45.7434 399.771C39.712 409.182 33.194 418.382 25.7317 426.829C25.5949 427.298 25.2589 427.53 24.9229 427.762C24.6708 427.937 24.4188 428.111 24.2508 428.385L23.8878 428.69C24.2508 428.385 24.6427 427.745 24.5191 427.23C31.4422 413.353 35.4455 398.216 38.5993 383.175C39.1378 380.621 39.5379 378.006 39.9398 375.38C40.6039 371.041 41.273 366.67 42.579 362.484C45.4758 353.647 48.8052 344.996 52.1346 336.345C53.7994 332.019 55.4641 327.694 57.0748 323.345C61.7541 310.117 62.5774 296.727 60.0601 283.052C57.4191 268.86 51.6559 255.748 44.8616 242.884C41.955 237.587 39.0195 232.625 35.75 227.634C35.2055 228.092 34.8425 228.398 34.8135 228.732C28.1877 241.12 22.0485 253.718 17.8557 267.156C14.773 277.492 14.0576 287.694 17.8664 298.115C18.7423 300.63 19.5347 303.137 20.3271 305.645C21.1195 308.152 21.912 310.66 22.7879 313.175C24.555 318.193 26.4229 323.199 28.2937 328.214C31.8558 337.762 35.4284 347.338 38.3361 357.074C39.6303 361.559 40.2564 365.987 39.5172 370.635C38.1837 378.26 36.8501 385.886 35.0299 393.301C29.8745 415.911 21.0365 436.354 2.82918 452.293C-18.4636 470.829 -41.253 487.217 -68.017 497.04C-68.1679 497.1 -68.3488 497.142 -68.5393 497.185C-69.2283 497.344 -70.0423 497.531 -70.0135 498.72C-69.1928 498.958 -68.3142 498.529 -67.4357 498.099C-44.491 489.632 -23.748 477.443 -5.69319 461.322C7.40339 449.993 21.2338 439.904 36.1322 431.084C44.4889 425.911 53.1586 422.952 63.2671 422.808C69.819 422.735 76.3543 422.514 82.8849 422.293C91.9669 421.986 101.04 421.679 110.135 421.773C127.622 421.924 142.412 416.292 154.746 404.056C160.067 398.959 165.388 393.862 170.223 388.556C170.695 388.054 171.171 387.557 171.648 387.059C173.982 384.624 176.335 382.168 178.288 378.983C159.42 375.348 140.589 373.231 121.687 375.819C108.733 377.739 96.4254 381.901 85.9565 390.09C80.1731 394.543 74.8796 399.413 69.6119 404.259C66.9977 406.664 64.3891 409.064 61.7309 411.403L61.6776 411.45C54.589 417.724 47.6768 423.841 39.2466 428.154C30.8065 432.531 22.6028 437.893 14.7166 443.304C14.7707 443.315 14.8237 443.338 14.8736 443.398L12.6957 445.23C12.8601 444.752 13.0576 444.412 13.2686 444.15C13.1513 444.251 13.0457 444.358 12.9427 444.461C12.717 444.689 12.504 444.903 12.209 445.02C12.3763 444.747 12.6601 444.546 12.949 444.34C13.1081 444.227 13.2687 444.113 13.4123 443.985C13.4355 443.961 13.4589 443.937 13.4823 443.913C13.5127 443.883 13.5432 443.854 13.5738 443.826C13.7065 443.68 13.8128 443.513 13.8714 443.312C28.0122 427.697 41.0562 411.147 52.03 393.243C56.7041 385.903 61.3783 378.564 67.4833 372.188C72.4549 366.986 77.6012 362.103 82.7809 357.248C83.5087 356.566 84.2373 355.884 84.966 355.203L85.0026 355.168L85.0052 355.166C88.5351 351.864 92.0728 348.554 95.5703 345.149C102.735 338.191 110.853 333.838 120.219 330.602C125.373 328.868 130.556 327.207 135.745 325.554L137.969 324.846C148.094 321.623 158.231 318.396 168.208 314.688C177.604 311.118 186.055 306.794 192.305 298.748C202.176 285.797 209.462 271.614 215.804 256.678C215.986 256.525 216.015 256.191 215.891 255.676C196.866 257.749 178.24 261.033 160.698 269.29ZM39.2537 237.693C46.1453 259.146 48.2734 281.201 48.0341 303.39L47.6475 319.509C47.6563 319.588 47.6648 319.667 47.6731 319.746L47.6838 319.849L48.6207 319.929C50.7249 293.694 49.0966 267.811 41.884 242.292C41.6368 241.262 41.3895 240.231 40.9608 239.353C41.0643 239.266 41.1549 239.202 41.2346 239.157C41.0937 238.679 40.8525 238.119 40.5899 237.807C40.4663 237.292 40.3426 236.776 40.0664 236.08C41.0397 236.5 41.1633 237.015 41.258 237.864C41.7157 238.408 42.3259 239.134 42.4206 239.983C42.2901 239.927 42.1705 239.883 42.0595 239.843L42.0021 239.822C42.0271 239.871 42.0547 239.916 42.0866 239.954C45.3851 244.611 47.108 249.975 48.6494 255.491C52.6555 269.462 53.7788 283.692 53.3843 297.959C53.3553 298.293 53.281 298.666 53.2067 299.038C53.1324 299.41 53.0581 299.782 53.0292 300.116C53.2292 301.42 53.3657 302.711 53.4383 303.992C53.4833 302.777 53.509 301.555 53.5158 300.326C53.8209 300.689 54.3075 300.899 54.8231 300.775C55.77 287.9 54.531 275.007 51.9269 262.333C51.9017 262.108 51.8295 261.878 51.7521 261.632C51.5381 260.952 51.2852 260.149 51.8822 258.964C57.4639 272.229 60.8597 285.476 60.9808 299.619C60.9286 311.957 56.4624 323.166 52.0358 334.275L52.0349 334.277C51.3327 336.039 50.6315 337.799 49.9492 339.56C50.2657 337.591 50.6103 335.625 50.9541 333.662C51.7987 328.842 52.6391 324.046 53.0503 319.299C53.0291 319.21 53.0025 319.126 52.9741 319.045C52.8358 318.997 52.707 318.959 52.5782 318.922C52.373 318.862 52.1678 318.803 51.9245 318.698C52.1575 317.318 52.3645 315.944 52.5457 314.573C52.2469 315.878 51.8777 317.182 51.4379 318.488C50.6277 327.841 48.6629 336.926 46.364 345.983L46.3578 346.048C46.3539 346.085 46.3497 346.119 46.3451 346.15L46.5166 346.165C46.4298 347.167 46.343 348.169 45.5591 349.448C45.2332 348.089 45.5186 347.173 45.7551 346.414L45.7897 346.302L45.819 346.206L45.8484 346.107C46.0297 344.015 46.3541 341.964 46.6777 339.918C47.129 337.065 47.5788 334.221 47.637 331.286L46.6349 331.2C46.3022 333.269 46.034 335.312 45.768 337.338C45.1589 341.977 44.5614 346.529 43.2286 351.099C43.1137 347.892 43.0561 344.672 42.9986 341.451C42.8836 335.025 42.7687 328.598 42.1985 322.281C41.8376 322.363 41.6357 322.312 41.5266 322.182C41.5609 326.644 41.6023 331.022 41.6438 335.4C41.6852 339.778 41.7266 344.156 41.7609 348.618C41.7688 350.469 41.7767 352.321 41.269 354.296C35.8398 319.844 31.7468 285.507 33.4195 250.653C33.3729 250.549 33.33 250.445 33.2908 250.34L33.267 250.472L32.2648 250.386C31.1575 261.228 31.5389 272.365 31.9493 283.169C32.9805 304.288 35.3768 325.189 38.4413 346.146L38.4576 346.212C38.4719 346.269 38.487 346.325 38.5026 346.382C38.5212 346.45 38.5407 346.518 38.56 346.586C38.8154 347.483 39.0861 348.435 37.9705 349.639C37.3645 347.27 36.755 344.94 36.1507 342.629C35.0003 338.231 33.8686 333.905 32.8149 329.512C27.775 308.049 24.4344 286.395 26.0099 264.321C26.4359 257.459 27.5302 250.654 29.6265 243.935C30.3446 241.473 31.2152 239.192 33.117 236.663C33.412 238.371 33.1595 239.939 32.9178 241.439C32.7005 242.789 32.492 244.083 32.6988 245.376L33.701 245.462C33.7158 245.595 33.7277 245.727 33.7367 245.857C33.7743 245.786 33.8132 245.715 33.8535 245.643C34.1766 244.252 34.3429 242.794 34.5116 241.314C34.7632 239.108 35.0201 236.854 35.8105 234.706L36.4786 234.763C36.8798 239.845 37.2428 244.882 37.6058 249.918C37.9688 254.955 38.3318 259.991 38.733 265.073C38.7911 265.275 38.8457 265.476 38.8972 265.678L38.9015 265.455C38.9052 265.276 38.9095 265.098 38.9144 264.921L39.3901 264.961C39.0043 259.02 38.672 253.141 38.335 247.178L38.3344 247.169C38.1087 243.175 37.8809 239.143 37.6333 235.03C38.6441 235.649 38.8968 236.518 39.0948 237.199C39.1472 237.38 39.1958 237.547 39.2537 237.693ZM113.044 327.969C140.389 297.837 171.338 272.725 210.257 258.559C210.62 258.253 211.651 258.005 211.622 258.339C211.564 259.007 210.867 259.284 210.199 259.227L210.196 259.229C195.183 269.384 180.17 279.539 165.309 289.875C155.246 296.893 145.157 304.203 135.215 311.407L133.198 312.869C129.869 315.36 126.495 317.889 123.121 320.419C119.747 322.948 116.373 325.477 113.044 327.969ZM61.965 416.471C72.4707 409.799 83.3762 404.339 94.7394 399.423C118.344 389.162 142.72 381.658 168.608 380.005C169.033 379.957 169.496 379.955 169.959 379.952C170.422 379.95 170.885 379.947 171.309 379.9C171.449 379.782 171.571 379.862 171.909 380.082C172.012 380.149 172.134 380.228 172.283 380.319L168.683 381.438C132.544 392.666 96.5981 403.835 61.5442 417.444C61.5195 417.415 61.4967 417.387 61.4756 417.359C61.4615 417.386 61.4473 417.415 61.433 417.444C61.4218 417.467 61.4105 417.491 61.3992 417.515C61.3871 417.542 61.3749 417.569 61.3627 417.597C60.6656 417.874 59.9686 418.151 59.4241 418.609C59.3212 418.565 59.2413 418.515 59.1843 418.462C58.516 418.728 57.8408 418.999 56.9989 419.411C57.7827 418.132 58.4798 417.855 59.3294 417.76L59.3087 417.998C59.3585 417.976 59.4163 417.957 59.4819 417.941C59.6244 417.821 59.7679 417.688 59.9141 417.553C60.5136 416.999 61.1594 416.402 61.965 416.471ZM180.965 287.851C192.283 279.566 203.144 270.737 212.174 259.732C177.906 282.373 143.972 305.042 111.963 330.736C119.87 326.87 127.137 322.613 134.587 318.204C150.545 308.802 166.046 298.856 180.965 287.851ZM171.536 383.116C162.968 388.776 153.544 392.68 143.967 396.403C116.811 406.865 88.7606 414.054 60.2816 420.365C60.1001 420.518 59.9475 420.336 59.6424 419.974C96.6148 404.968 134.482 393.235 172.501 381.684C173.016 381.56 173.532 381.436 173.895 381.13C173.293 382.257 172.719 383.049 171.536 383.116ZM119.725 328.541L145.797 313.106C164.812 301.442 183.217 289.053 200.125 274.517C202.52 272.501 204.751 270.289 206.982 268.077C208.47 266.603 209.957 265.129 211.493 263.712C210.057 268.637 207.008 272.75 203.989 276.53C194.596 287.84 183.067 296.612 170.622 304.295C154.788 314.212 138.124 322.04 120.851 329.142C120.335 329.266 119.82 329.39 119.457 329.695L119.429 329.626C118.8 329.876 118.156 330.139 117.366 330.526C117.201 330.664 117.061 330.529 116.923 330.368C116.757 330.426 116.599 330.478 116.44 330.531C116.137 330.631 115.833 330.731 115.485 330.87C115.724 330.049 116.24 329.925 117.089 329.829C117.426 329.548 117.763 329.274 118.106 329.051C118.627 328.713 119.161 328.492 119.725 328.541ZM64.8058 420.584C81.3035 416.612 97.8011 412.641 114.386 407.667C132.183 402.292 149.522 396.374 165.909 387.85C166.969 387.268 167.984 386.724 168.999 386.179C170.013 385.635 171.028 385.091 172.088 384.509C168.437 389.749 163.413 393.357 158.265 396.449C146.547 403.522 133.877 407.99 120.93 411.761C120.414 411.885 119.982 412.016 119.55 412.147C119.118 412.279 118.686 412.41 118.171 412.534C117.808 412.839 117.425 413.063 117.018 413.246C117.332 413.171 117.646 413.096 117.96 413.021C118.062 413.142 118.002 413.398 117.943 413.655C117.913 413.783 117.883 413.911 117.874 414.023C125.425 412.314 132.701 409.908 139.671 407.14C146.794 404.553 153.67 400.935 160.212 397.289C153.17 404.762 145.366 411.329 136.189 416.264C130.876 419.088 124.838 419.606 118.93 420.112L118.927 420.112C118.167 420.177 117.41 420.242 116.656 420.312C106.337 420.943 96.0467 421.24 85.7857 421.202C85.7935 421.112 85.8064 421.027 85.8237 420.948C85.3985 420.701 84.844 420.811 84.2764 420.925C83.328 421.114 82.3431 421.31 81.8638 419.857C82.2086 419.805 82.5534 419.753 82.8982 419.7C82.6081 419.654 82.3288 419.554 82.0742 419.37C79.1913 419.628 76.3466 419.932 73.5018 420.235C70.6571 420.538 67.8123 420.841 64.9295 421.099C64.8694 421.114 64.8122 421.122 64.7591 421.124L64.748 421.252C64.0509 421.529 63.3539 421.806 62.7436 421.08C63.1745 420.718 63.6827 420.678 64.297 420.63C64.459 420.617 64.6285 420.604 64.8058 420.584ZM116.505 321.03C122.24 313.108 128.584 305.912 135.568 299.107C146.057 288.732 157.158 279.082 169.754 271.58C180.05 265.395 190.926 260.269 203.031 258.445C203.245 258.393 203.484 258.373 203.765 258.349C204.162 258.316 204.642 258.275 205.246 258.13C204.721 259.112 203.869 259.426 203.198 259.674C203.099 259.711 203.005 259.746 202.915 259.781C186.52 266.453 171.288 275.244 157.247 285.82C143.598 295.756 131.199 306.809 119.533 319.102L117.355 320.935C116.996 321.979 116.132 322.658 115.243 323.356C115.019 323.532 114.794 323.709 114.575 323.893C114.392 323.878 114.309 323.871 114.301 323.842C114.295 323.819 114.34 323.781 114.422 323.712C114.422 323.712 114.27 323.531 114.451 323.378C114.843 322.738 115.598 321.794 116.505 321.03ZM66.1026 411.441C79.4175 401.476 93.895 393.63 109.412 387.387C123.715 381.545 138.18 377.736 153.72 377.048C158.273 376.933 162.616 377.304 166.93 378.01C166.863 378.783 166.36 378.818 165.897 378.851C165.759 378.86 165.625 378.87 165.507 378.898C134.311 381.611 105.484 391.93 77.8577 405.886C74.969 407.254 72.1385 408.865 69.277 410.494C67.9669 411.239 66.6503 411.989 65.3187 412.72L65.3021 412.685C64.1093 413.396 62.7781 414.238 61.7467 415.106L59.1111 416.395C59.1733 416.309 59.2359 416.219 59.2999 416.127C59.826 415.371 60.4515 414.472 61.8045 414.438C62.0544 414.228 62.3054 414.005 62.5606 413.778C63.4671 412.972 64.4261 412.119 65.574 411.633C65.738 411.541 65.9304 411.483 66.1026 411.441ZM203.757 279.202C199.207 287.057 194.685 294.578 188.551 301.287C185.379 304.886 181.625 307.425 177.414 309.42C165.688 314.641 153.409 318.469 141.131 322.297L141.08 322.237L139.221 322.975C139.642 322.001 140.187 321.543 141.37 321.476C141.368 321.497 141.366 321.517 141.363 321.536C143.658 320.311 145.969 319.105 148.28 317.899C153.019 315.426 157.758 312.952 162.361 310.318C177.412 301.68 191.547 291.954 203.452 278.84C203.357 277.99 203.902 277.532 204.751 277.437C204.694 278.105 204.636 278.773 203.757 279.202ZM29.982 327.251C25.4393 315.589 21.0781 303.774 17.9295 291.559C16.6642 286.739 16.7642 281.7 17.7137 276.566C19.2288 268.788 21.7171 261.429 24.8735 254.128C24.9932 253.718 25.151 253.353 25.3351 252.927C25.5192 252.501 25.7297 252.014 25.9546 251.36C26.3255 252.906 26.2676 253.574 25.8757 254.214C22.4852 277.815 25.3471 301.111 30.0898 324.063C30.1848 324.459 30.2531 324.878 30.3238 325.312L30.3242 325.315C30.4373 326.01 30.5568 326.744 30.8026 327.489L31.5444 330.581C30.4476 329.646 30.2003 328.615 29.982 327.251ZM143.851 376.371C116.395 380.582 91.9774 392.457 69.1222 407.662C88.7868 384.612 113.604 373.95 143.851 376.371ZM136.312 288.57C144.529 279.179 155.006 272.841 166.522 268.106C171.582 266.016 176.614 264.259 182.285 262.894C181.865 263.868 181.167 264.144 180.47 264.421C163.807 272.248 149.708 283.492 136.678 296.005C132.773 299.745 129.213 303.695 125.612 307.691C124.305 309.14 122.994 310.596 121.658 312.049C121.445 312.965 120.849 313.425 120.158 313.957C119.978 314.095 119.792 314.239 119.604 314.397L119.756 314.578C119.67 315.58 118.791 316.01 117.913 316.439C118.234 315.696 118.645 315.058 118.995 314.513C119.054 314.421 119.112 314.332 119.167 314.245L119.138 314.211L119.117 314.187C118.965 314.006 118.965 314.006 119.146 313.853C119.691 313.395 120.054 313.089 120.446 312.45C121.285 311.055 122.116 309.65 122.948 308.243C126.985 301.415 131.052 294.537 136.312 288.57ZM114.393 324.046L114.088 323.683C113.333 324.628 112.578 325.573 111.46 326.823C111.723 326.66 111.978 326.513 112.222 326.372C113.3 325.751 114.151 325.26 114.393 324.046ZM42.6421 355.928C42.3948 354.897 42.2712 354.382 42.9972 353.771C43.76 354.678 43.368 355.317 42.6421 355.928ZM24.8611 429.11C24.8032 429.778 24.2587 430.236 23.3802 430.666C23.9536 429.874 24.164 429.387 24.1929 429.053C24.2982 428.809 24.4869 428.573 24.6756 428.337C24.8644 428.101 25.0531 427.865 25.1583 427.621C25.4161 427.559 25.5903 427.49 25.7646 427.421C25.9389 427.351 26.1131 427.282 26.3709 427.22C26.3008 428.029 25.7146 428.465 25.2048 428.844C25.0832 428.935 24.9659 429.022 24.8611 429.11Z" fill="#717E84"/>
<path d="M327.342 459.183C314.519 334.886 139.371 323.663 5.84161 421.319C-127.688 518.976 -175.507 358.175 -246.194 432.195C-316.881 506.214 -151.483 672 5.84161 672C163.167 672 340.165 583.479 327.342 459.183Z" fill="#ADD9F9"/>
</svg>
