<svg width="304" height="306" viewBox="0 0 304 306" fill="none" xmlns="http://www.w3.org/2000/svg">
<g opacity="0.6">
<path d="M116.683 92.9537C116.683 92.2946 116.419 91.6354 115.76 90.9763C101.918 77.7932 77.3976 102.445 90.5806 116.288C91.1079 116.947 91.8989 117.211 92.4263 117.211C94.1401 117.606 96.1175 116.683 95.9857 114.442C95.3265 104.819 104.291 95.854 113.915 96.5131C116.156 96.7768 117.079 94.6675 116.683 92.9537Z" fill="#EEEEEE"/>
<path d="M187.872 91.1085C187.213 91.6359 186.949 92.4268 186.949 93.086C186.553 94.7998 187.476 96.7774 189.717 96.6455C199.341 95.9864 208.174 104.951 207.646 114.574C207.514 116.816 209.492 117.738 211.206 117.343C211.865 117.343 212.524 117.079 213.051 116.42C226.234 102.446 201.714 77.7937 187.872 91.1085Z" fill="#EEEEEE"/>
<path d="M187.872 214.37C201.714 227.553 226.234 202.901 213.051 189.059C212.524 188.399 211.733 188.136 211.206 188.136C209.492 187.74 207.514 188.663 207.646 190.904C208.305 200.528 199.341 209.492 189.717 208.833C187.476 208.701 186.553 210.679 186.949 212.393C187.081 213.052 187.344 213.711 187.872 214.37Z" fill="#EEEEEE"/>
<path d="M115.76 214.37C116.419 213.843 116.683 213.052 116.683 212.393C117.079 210.679 116.156 208.701 113.915 208.833C104.291 209.492 95.4583 200.528 95.9857 190.904C96.1175 188.663 94.1401 187.74 92.4263 188.136C91.7671 188.136 91.1079 188.399 90.5806 189.059C77.3976 202.901 101.918 227.553 115.76 214.37Z" fill="#EEEEEE"/>
<path d="M82.8015 83.3308C80.1649 86.0992 79.7694 90.4496 82.6696 93.218C85.3063 95.591 89.6567 95.0637 91.6341 92.2953C94.5344 90.186 94.9299 85.8356 92.5569 83.199C89.9203 80.2987 85.5699 80.6942 82.8015 83.3308Z" fill="#EEEEEE"/>
<path d="M211.865 92.2948C213.974 95.1951 218.193 95.7224 220.83 93.2176C223.73 90.4491 223.334 86.0987 220.698 83.3303C218.061 80.6937 213.579 80.1664 210.942 83.1985C208.569 85.8351 209.097 90.1855 211.865 92.2948Z" fill="#EEEEEE"/>
<path d="M220.83 222.016C223.466 219.248 223.862 214.897 220.962 212.129C218.325 209.756 213.974 210.283 211.997 213.052C209.097 215.161 208.701 219.38 211.074 222.148C213.711 225.18 218.061 224.785 220.83 222.016Z" fill="#EEEEEE"/>
<path d="M91.7667 213.183C89.6574 210.283 85.4388 209.756 82.8022 212.261C79.9019 215.029 80.2974 219.379 82.9341 222.148C85.5707 224.785 90.0529 225.312 92.6895 222.28C95.0625 219.511 94.5352 215.161 91.7667 213.183Z" fill="#EEEEEE"/>
<path d="M149.377 75.1571C149.772 75.6844 150.168 76.0799 150.563 76.6072C150.959 77.1345 151.486 77.7937 151.881 78.4529C152.277 77.7937 152.672 77.2663 153.2 76.6072C153.595 76.0799 153.991 75.5526 154.386 75.1571C155.045 74.3661 155.836 73.4432 156.496 72.7841C158.473 70.8066 160.846 69.093 163.483 68.302C168.492 66.8518 172.974 70.1475 173.765 75.2889C174.952 82.4077 170.074 91.2404 167.042 97.5683C163.351 105.346 158.869 112.597 154.386 119.848C153.2 121.825 150.431 121.825 149.245 119.848C144.631 112.201 140.017 104.687 136.194 96.5136C133.293 90.4494 128.811 82.1441 129.866 75.1571C130.789 69.6202 135.798 66.4563 141.071 68.4338C143.444 69.3566 145.422 70.9385 147.267 72.6523C148.058 73.5751 148.718 74.2343 149.377 75.1571ZM119.979 72.7841C120.901 97.0409 133.821 121.825 149.245 139.886C150.036 140.809 150.959 141.072 151.881 140.809C152.804 141.072 153.727 140.809 154.518 139.886C170.074 121.825 182.862 97.1727 183.784 72.7841C184.18 63.1605 178.643 52.8777 167.701 54.196C159.528 55.2507 154.914 61.4468 151.881 68.4338C148.849 61.4468 144.235 55.2507 136.062 54.196C125.12 52.8777 119.583 63.1605 119.979 72.7841Z" fill="#EEEEEE"/>
<path d="M229.002 150.3C228.475 150.696 228.08 151.091 227.552 151.487C227.025 151.882 226.366 152.409 225.838 152.805C226.498 153.2 227.025 153.596 227.552 154.123C228.08 154.519 228.607 154.914 229.002 155.31C229.793 155.969 230.716 156.76 231.375 157.551C233.353 159.528 235.067 161.901 235.726 164.538C237.176 169.679 233.88 174.03 228.739 174.952C221.62 176.139 212.787 171.261 206.591 168.229C198.945 164.538 191.563 160.056 184.444 155.573C182.466 154.387 182.466 151.618 184.444 150.432C191.958 145.686 199.604 141.072 207.646 137.249C213.71 134.349 222.015 129.735 228.871 130.921C234.276 131.844 237.571 136.853 235.594 142.127C234.671 144.5 233.221 146.609 231.375 148.323C230.584 148.85 229.793 149.641 229.002 150.3ZM249.832 136.853C251.15 125.912 240.867 120.375 231.375 120.638C207.25 121.561 182.598 134.481 164.669 150.037C163.746 150.828 163.614 151.75 163.746 152.673C163.483 153.596 163.746 154.519 164.669 155.31C182.598 170.866 207.25 183.785 231.375 184.708C240.999 185.103 251.15 179.435 249.832 168.493C248.777 160.319 242.581 155.573 235.726 152.541C242.581 149.641 248.777 145.027 249.832 136.853Z" fill="#EEEEEE"/>
<path d="M154.255 230.322C153.859 229.794 153.464 229.399 153.068 228.872C152.673 228.344 152.145 227.685 151.75 227.026C151.354 227.685 150.959 228.212 150.432 228.872C150.036 229.399 149.641 229.926 149.245 230.322C148.586 231.113 147.795 232.036 147.136 232.695C145.158 234.672 142.785 236.386 140.149 237.177C135.139 238.627 130.657 235.331 129.866 230.19C128.68 223.071 133.557 214.238 136.589 207.911C140.281 200.133 144.763 192.882 149.245 185.631C150.432 183.654 153.2 183.654 154.387 185.631C159.001 193.277 163.615 200.792 167.438 208.965C170.338 215.029 174.82 223.335 173.766 230.322C172.843 235.859 167.833 239.023 162.56 237.045C160.187 236.122 158.21 234.54 156.364 232.827C155.573 231.904 154.914 231.113 154.255 230.322ZM183.653 232.563C182.73 208.306 169.811 183.522 154.387 165.461C153.596 164.538 152.673 164.275 151.75 164.538C150.827 164.275 149.904 164.538 149.113 165.461C133.557 183.522 120.77 208.174 119.847 232.563C119.451 242.187 124.988 252.469 135.93 251.151C144.104 250.096 148.718 243.9 151.75 236.913C154.782 243.9 159.396 250.096 167.57 251.151C178.512 252.601 184.048 242.187 183.653 232.563Z" fill="#EEEEEE"/>
<path d="M74.6301 155.179C75.1574 154.783 75.5529 154.388 76.0802 153.992C76.6075 153.597 77.2667 153.069 77.794 152.674C77.1349 152.278 76.6075 151.883 76.0802 151.356C75.5529 150.96 75.0256 150.565 74.6301 150.169C73.8391 149.51 72.9163 148.719 72.2571 147.928C70.2797 145.95 68.5659 143.578 67.9067 140.941C66.4566 135.8 69.7523 131.449 74.8937 130.526C82.0126 129.34 90.8452 134.218 97.0413 137.25C104.687 140.941 112.07 145.423 119.189 149.905C121.166 151.092 121.166 153.86 119.189 155.047C111.674 159.793 104.028 164.407 95.9866 168.23C89.9224 171.13 81.6171 175.744 74.7619 174.558C69.3568 173.635 66.0611 168.625 68.0386 163.352C68.9614 160.979 70.4115 158.87 72.2571 157.156C73.0481 156.497 73.8391 155.838 74.6301 155.179ZM139.886 152.674C140.15 151.751 139.886 150.828 138.963 150.037C121.034 134.481 96.3821 121.562 72.2571 120.639C62.6335 120.244 52.4825 125.912 53.8008 136.854C54.8555 145.028 61.0515 149.774 67.9067 152.806C60.9197 155.838 54.7237 160.452 53.8008 168.757C52.4825 179.699 62.7653 185.236 72.2571 184.972C96.3821 184.05 121.034 171.13 138.963 155.574C140.018 154.519 140.15 153.597 139.886 152.674Z" fill="#EEEEEE"/>
<path d="M152.146 86.626C152.015 86.7578 151.883 86.8897 151.751 87.1533C151.619 87.0215 151.487 86.8898 151.355 86.7579C150.564 85.5715 149.642 84.5168 148.719 83.4622C146.214 80.4301 143.577 77.6616 140.809 75.025C138.304 72.7839 134.745 75.5523 136.063 78.4526V78.5844C139.754 85.5714 144.5 91.7674 149.51 97.8316C150.433 99.018 152.806 99.018 153.728 97.8316C158.738 91.7674 163.616 85.7032 167.175 78.5844C167.175 78.5844 167.175 78.5844 167.175 78.4526C168.757 75.4205 165.066 72.5202 162.561 74.8932C162.429 75.025 162.429 75.025 162.297 75.1568C161.902 75.5523 161.375 75.9478 160.979 76.4751C158.738 78.7162 156.497 80.9574 154.519 83.4622C153.86 84.385 153.069 85.4395 152.146 86.626Z" fill="#EEEEEE"/>
<path d="M217.533 152.41C218.719 151.619 219.774 150.696 220.829 149.773C223.861 147.268 226.629 144.632 229.266 141.732C231.507 139.227 228.739 135.536 225.838 136.986H225.706C218.719 140.677 212.523 145.555 206.591 150.564C205.405 151.487 205.405 153.86 206.591 154.783C212.655 159.792 218.719 164.67 225.706 168.361C225.706 168.361 225.706 168.361 225.838 168.361C228.87 169.943 231.771 166.252 229.398 163.615C229.266 163.484 229.266 163.484 229.134 163.352C228.739 162.956 228.343 162.429 227.948 162.034C225.706 159.792 223.465 157.551 220.961 155.574C219.906 154.651 218.719 153.86 217.665 152.937C217.533 152.805 217.401 152.674 217.269 152.542C217.269 152.542 217.401 152.542 217.533 152.41Z" fill="#EEEEEE"/>
<path d="M151.486 218.852C151.486 218.852 151.486 218.72 151.486 218.852C151.618 218.72 151.75 218.588 151.882 218.324C152.014 218.456 152.145 218.588 152.277 218.72C153.068 219.906 153.991 220.961 154.914 222.016C157.419 225.048 160.055 227.816 162.824 230.453C165.329 232.694 168.888 229.925 167.57 227.025V226.893C163.878 219.906 159.132 213.71 154.123 207.646C153.2 206.46 150.827 206.46 149.904 207.646C144.895 213.71 140.017 219.775 136.458 226.893C136.458 226.893 136.458 226.893 136.458 227.025C134.876 230.057 138.567 232.958 141.072 230.585C141.204 230.453 141.204 230.453 141.335 230.321C141.731 229.925 142.258 229.53 142.654 229.003C144.895 226.762 147.136 224.521 149.113 222.016C149.773 221.093 150.563 219.906 151.486 218.852Z" fill="#EEEEEE"/>
<path d="M86.0985 153.069C84.912 153.859 83.8574 154.782 82.8027 155.705C79.7706 158.21 77.0022 160.846 74.3656 163.747C72.1245 166.252 74.8929 169.943 77.7932 168.493H77.925C84.9121 164.802 91.1081 159.924 97.0405 154.914C98.2269 153.991 98.2269 151.618 97.0405 150.696C90.9763 145.686 84.9121 140.808 77.925 137.117C77.925 137.117 77.925 137.117 77.7932 137.117C74.7611 135.535 71.8608 139.226 74.2338 141.863C74.3656 141.995 74.3656 141.995 74.4974 142.127C74.8929 142.522 75.2884 143.049 75.6839 143.445C77.925 145.686 80.1661 147.927 82.6709 149.905C83.7255 150.827 84.912 151.618 85.9667 152.541C86.0985 152.673 86.2303 152.805 86.3622 152.937C86.3622 152.805 86.2303 152.937 86.0985 153.069Z" fill="#EEEEEE"/>
<path d="M149.773 111.41C150.3 111.938 150.959 112.201 151.618 112.201C151.75 112.201 152.014 112.201 152.146 112.201C152.805 112.201 153.464 111.938 153.991 111.41C155.046 110.356 156.101 109.169 157.155 107.983C158.078 106.796 158.342 105.346 157.419 104.028C157.287 103.896 157.287 103.896 157.155 103.764C156.232 102.841 154.782 102.446 153.596 103.237C153.069 103.632 152.541 104.028 151.882 104.423C151.355 104.028 150.827 103.632 150.168 103.237C149.114 102.446 147.532 102.841 146.609 103.764C146.477 103.896 146.477 103.896 146.345 104.028C145.422 105.214 145.554 106.796 146.609 107.983C147.532 109.169 148.586 110.224 149.773 111.41Z" fill="#EEEEEE"/>
<path d="M201.054 154.387C200.658 153.859 200.263 153.2 199.867 152.673C200.263 152.146 200.658 151.486 201.054 150.959C201.845 149.904 201.449 148.323 200.527 147.4C200.395 147.268 200.395 147.268 200.263 147.136C199.076 146.213 197.494 146.345 196.308 147.4C195.121 148.454 193.935 149.509 192.88 150.564C192.353 151.091 192.089 151.75 192.089 152.409C192.089 152.541 192.089 152.805 192.089 152.937C192.089 153.596 192.353 154.255 192.88 154.782C193.935 155.837 195.121 156.892 196.308 157.946C197.494 158.869 198.945 159.133 200.263 158.21C200.395 158.078 200.395 158.078 200.527 157.946C201.449 157.023 201.845 155.573 201.054 154.387Z" fill="#EEEEEE"/>
<path d="M153.859 194.068C153.332 193.54 152.673 193.277 152.013 193.277C151.882 193.277 151.618 193.277 151.486 193.277C150.827 193.277 150.168 193.54 149.64 194.068C148.586 195.122 147.531 196.309 146.477 197.496C145.554 198.682 145.29 200.132 146.213 201.45C146.345 201.582 146.345 201.582 146.477 201.714C147.399 202.637 148.849 203.032 150.036 202.241C150.563 201.846 151.091 201.45 151.75 201.055C152.277 201.45 152.804 201.846 153.464 202.241C154.518 203.032 156.1 202.637 157.023 201.714C157.155 201.582 157.155 201.582 157.287 201.45C158.209 200.264 158.078 198.682 157.023 197.496C156.1 196.309 155.046 195.122 153.859 194.068Z" fill="#EEEEEE"/>
<path d="M103.368 158.21C104.555 159.133 106.137 159.001 107.323 157.946C108.51 156.892 109.696 155.837 110.751 154.782C111.278 154.255 111.542 153.596 111.542 152.937C111.542 152.805 111.542 152.541 111.542 152.409C111.542 151.75 111.278 151.091 110.751 150.564C109.696 149.509 108.51 148.455 107.323 147.4C106.137 146.477 104.687 146.213 103.368 147.136C103.237 147.268 103.237 147.268 103.105 147.4C102.182 148.323 101.786 149.905 102.577 150.959C102.973 151.487 103.368 152.146 103.764 152.673C103.368 153.2 102.973 153.86 102.577 154.387C101.786 155.442 102.182 157.024 103.105 157.946C103.237 158.078 103.237 158.21 103.368 158.21Z" fill="#EEEEEE"/>
<path d="M109.565 117.079C108.379 115.497 108.247 113.388 109.038 111.806C109.17 111.542 109.301 111.41 109.433 111.147C109.565 110.883 109.697 110.751 109.961 110.487C110.092 110.224 110.356 110.092 110.62 109.96C110.752 109.828 111.015 109.696 111.147 109.696C112.993 108.773 115.102 109.037 116.684 110.355C118.134 111.542 118.53 113.388 118.134 114.969C118.002 115.497 117.739 116.156 117.475 116.683C117.343 116.947 117.079 117.211 116.948 117.342C116.684 117.606 116.552 117.738 116.288 117.87C115.761 118.265 115.234 118.397 114.706 118.661C112.729 119.188 110.752 118.661 109.565 117.079ZM106.269 106.928C94.8 118.529 118.53 128.284 126.703 131.58C128.153 132.108 129.208 131.58 129.735 130.526C130.79 129.998 131.317 128.812 130.79 127.362C127.494 119.32 117.87 95.3268 106.269 106.928Z" fill="#EEEEEE"/>
<path d="M187.211 110.223C188.793 109.037 190.771 108.905 192.484 109.696C192.748 109.828 192.88 109.96 193.144 110.092C193.407 110.223 193.539 110.355 193.803 110.619C194.066 110.751 194.198 111.014 194.33 111.278C194.462 111.41 194.594 111.674 194.594 111.805C195.516 113.651 195.253 115.76 193.935 117.474C192.748 118.924 190.902 119.32 189.32 118.924C188.793 118.792 188.134 118.529 187.738 118.133C187.475 118.001 187.211 117.738 187.079 117.606C186.816 117.342 186.684 117.21 186.552 116.947C186.157 116.419 186.025 115.892 185.893 115.365C185.102 113.387 185.761 111.41 187.211 110.223ZM172.842 127.493C172.314 128.943 172.842 129.998 173.896 130.657C174.424 131.712 175.61 132.239 176.928 131.712C185.102 128.416 208.831 118.66 197.362 107.059C185.761 95.3265 176.137 119.32 172.842 127.493Z" fill="#EEEEEE"/>
<path d="M194.594 193.673C194.462 193.936 194.33 194.068 194.198 194.332C194.066 194.596 193.935 194.727 193.671 194.991C193.539 195.255 193.275 195.387 193.012 195.518C192.88 195.65 192.616 195.782 192.484 195.782C190.639 196.705 188.529 196.441 186.947 195.123C185.497 193.936 185.102 192.091 185.497 190.509C185.629 189.982 185.893 189.322 186.156 188.795C186.288 188.531 186.552 188.268 186.684 188.136C186.948 187.872 187.079 187.74 187.343 187.609C187.87 187.213 188.398 187.081 188.925 186.818C190.639 186.422 192.616 186.949 193.803 188.531C195.253 189.85 195.385 191.959 194.594 193.673ZM176.928 173.766C175.478 173.239 174.424 173.766 173.896 174.821C172.842 175.348 172.314 176.535 172.842 177.985C176.137 186.158 185.761 210.02 197.362 198.55C208.831 186.818 185.102 177.194 176.928 173.766Z" fill="#EEEEEE"/>
<path d="M114.443 186.554C114.97 186.686 115.629 186.949 116.025 187.345C116.288 187.477 116.552 187.74 116.684 187.872C116.948 188.136 117.079 188.268 117.211 188.531C117.607 189.059 117.739 189.586 117.87 190.113C118.266 191.827 117.739 193.805 116.157 194.991C114.575 196.178 112.597 196.309 110.883 195.518C110.62 195.387 110.488 195.255 110.224 195.123C109.961 194.991 109.829 194.859 109.565 194.596C109.301 194.464 109.17 194.2 109.038 193.936C108.906 193.805 108.774 193.541 108.774 193.409C107.851 191.563 108.115 189.454 109.433 187.74C111.015 186.554 112.861 186.158 114.443 186.554ZM130.79 177.985C131.317 176.535 130.79 175.48 129.735 174.821C129.208 173.766 128.021 173.239 126.703 173.766C118.53 177.062 94.8 186.818 106.269 198.419C117.87 210.02 127.494 186.158 130.79 177.985Z" fill="#EEEEEE"/>
<path d="M152.937 144.896C152.541 144.764 152.146 144.632 151.75 144.764C151.355 144.764 150.959 144.764 150.564 144.896C146.873 145.687 143.709 148.455 143.841 152.674C143.841 157.024 147.4 160.584 151.75 160.584C155.969 160.584 159.397 157.156 159.66 152.937C159.924 148.719 156.892 145.819 152.937 144.896Z" fill="#EEEEEE"/>
<path d="M69.223 72.6528C68.6957 80.0354 64.0816 86.7588 67.5092 94.1413C70.014 99.6782 75.1554 102.578 80.9559 102.71C81.0877 102.71 81.2196 102.71 81.3514 102.842C82.1424 102.974 82.9334 102.842 83.4607 102.447C86.0973 101.26 85.7018 96.6461 82.2742 96.7779C82.1424 96.7779 82.0106 96.7779 81.7469 96.7779C75.2872 94.5368 75.2872 84.7813 79.7695 80.2991C84.2517 75.8168 94.0071 75.8168 96.1164 82.2765C96.1164 82.4084 96.1164 82.5401 96.1164 82.6719C95.9846 86.0995 100.599 86.4951 101.785 83.8584C102.181 83.3311 102.312 82.5402 102.181 81.7492C102.181 81.6174 102.181 81.4855 102.049 81.3536C101.917 75.5531 99.0167 70.28 93.4798 67.7752C86.0973 64.4794 79.3739 68.9616 72.1233 69.4889C70.5413 69.7525 69.3548 70.939 69.223 72.6528Z" fill="#EEEEEE"/>
<path d="M210.152 67.9066C204.615 70.4114 201.714 75.6847 201.583 81.4853C201.583 81.6171 201.583 81.7488 201.451 81.8806C201.319 82.6716 201.451 83.4626 201.846 83.9899C203.033 86.6265 207.647 86.2312 207.515 82.8036C207.515 82.6717 207.515 82.5399 207.515 82.2762C209.624 75.8165 219.38 75.6847 223.862 80.2987C228.344 84.781 228.344 94.6683 221.885 96.7776C221.753 96.7776 221.621 96.7776 221.489 96.7776C218.061 96.6457 217.798 101.26 220.303 102.446C220.83 102.842 221.621 102.974 222.412 102.842C222.544 102.842 222.676 102.842 222.807 102.71C228.608 102.578 233.749 99.6778 236.254 94.141C239.55 86.7584 235.068 80.035 234.54 72.6525C234.408 70.9387 233.222 69.7523 231.508 69.6205C224.126 69.0932 217.402 64.4791 210.152 67.9066Z" fill="#EEEEEE"/>
<path d="M234.408 232.826C234.936 225.443 239.418 218.72 236.122 211.337C233.617 205.801 228.476 202.9 222.676 202.768C222.544 202.768 222.412 202.768 222.28 202.636C221.489 202.505 220.698 202.637 220.171 203.032C217.534 204.218 217.93 208.833 221.357 208.701C221.489 208.701 221.621 208.701 221.885 208.701C228.344 210.942 228.344 220.697 223.862 225.18C219.38 229.662 209.624 229.662 207.515 223.202C207.515 223.07 207.515 222.938 207.515 222.807C207.647 219.379 203.033 218.983 201.846 221.62C201.451 222.147 201.319 222.938 201.451 223.729C201.451 223.861 201.451 223.993 201.583 224.125C201.714 229.925 204.615 235.199 210.152 237.704C217.534 240.999 224.257 236.517 231.508 235.99C233.222 235.594 234.277 234.539 234.408 232.826Z" fill="#EEEEEE"/>
<path d="M93.6121 237.44C99.149 234.935 102.049 229.662 102.181 223.862C102.181 223.73 102.181 223.598 102.313 223.466C102.445 222.675 102.313 221.884 101.917 221.357C100.731 218.72 96.1169 219.116 96.2487 222.543C96.2487 222.675 96.2487 222.807 96.2487 223.071C94.1394 229.53 84.384 229.662 79.9018 225.048C75.4195 220.566 75.4195 210.678 81.8792 208.569C82.011 208.569 82.1429 208.569 82.2747 208.569C85.7023 208.701 85.9659 204.087 83.4612 202.901C82.9338 202.505 82.1428 202.373 81.3519 202.505C81.22 202.505 81.0882 202.505 80.9564 202.637C75.1558 202.769 70.0144 205.669 67.5097 211.206C64.2139 218.588 68.6962 225.312 69.2235 232.694C69.3553 234.408 70.5418 235.595 72.2556 235.726C79.5062 236.254 86.2296 240.868 93.6121 237.44Z" fill="#EEEEEE"/>
<path d="M84.3844 24.5339C82.2751 36.2668 95.4581 41.4082 104.686 41.1445C104.95 41.1445 105.082 41.2765 105.345 41.2765C108.114 41.8038 109.3 37.4533 106.532 36.926C106.4 36.926 106.4 36.926 106.268 36.926C106.136 36.7942 105.873 36.7942 105.741 36.7942C105.477 36.7942 105.345 36.6624 105.082 36.6624C99.5449 35.0804 96.5128 30.73 95.3263 25.0613C95.59 22.6883 94.9308 20.579 92.4261 19.2607C88.4711 17.2832 85.0435 20.8426 84.3844 24.5339Z" fill="#EEEEEE"/>
<path d="M24.2693 220.566C36.0022 222.807 41.1436 209.492 40.8799 200.132C40.8799 199.868 41.0118 199.737 41.0118 199.473C41.5391 196.704 37.1887 195.518 36.6614 198.286C36.6614 198.418 36.6614 198.418 36.6614 198.55C36.5295 198.682 36.5295 198.946 36.5295 199.077C36.5295 199.341 36.3977 199.473 36.3977 199.736C34.8157 205.273 30.4653 208.305 24.7966 209.624C22.4237 209.36 20.3144 210.019 19.1279 212.524C17.1505 216.479 20.7099 219.907 24.2693 220.566Z" fill="#EEEEEE"/>
<path d="M219.378 280.944C221.487 269.211 208.304 264.07 199.076 264.334C198.812 264.334 198.681 264.202 198.417 264.202C195.649 263.675 194.462 268.025 197.23 268.552C197.362 268.552 197.362 268.552 197.494 268.552C197.626 268.684 197.89 268.684 198.021 268.684C198.285 268.684 198.417 268.816 198.681 268.816C204.217 270.398 207.25 274.748 208.436 280.417C208.172 282.79 208.832 284.899 211.336 286.217C215.159 288.063 218.719 284.504 219.378 280.944Z" fill="#EEEEEE"/>
<path d="M266.97 107.192C266.97 107.06 266.97 107.06 266.97 106.928C267.102 106.796 267.102 106.532 267.102 106.401C267.102 106.137 267.234 106.005 267.234 105.741C268.816 100.205 273.167 97.1725 278.835 95.8542C281.208 96.1178 283.317 95.4588 284.504 92.954C286.35 89.1309 282.79 85.5715 279.231 84.9123C267.498 82.6712 262.356 95.9861 262.62 105.346C262.62 105.61 262.488 105.742 262.488 106.005C262.093 108.774 266.443 109.96 266.97 107.192Z" fill="#EEEEEE"/>
<path d="M211.336 19.1287C208.832 20.3152 208.172 22.4245 208.436 24.7975C206.854 30.4662 204.349 34.9484 198.681 36.6622C198.417 36.6622 198.153 36.794 198.021 36.794C197.758 36.794 197.626 36.9258 197.494 36.9258C197.362 36.9258 197.362 36.9258 197.23 36.9258C194.462 37.4532 195.649 41.8036 198.417 41.2763C198.681 41.2763 198.812 41.1444 199.076 41.1444C208.436 41.408 221.619 36.2667 219.378 24.5337C218.719 20.8425 215.291 17.2831 211.336 19.1287Z" fill="#EEEEEE"/>
<path d="M24.2709 84.9123C20.7114 85.5715 17.152 88.9991 18.9976 92.954C20.1841 95.4588 22.2934 96.1178 24.5345 95.8542C30.2033 97.4361 34.5536 99.941 36.2674 105.61C36.2674 105.873 36.3993 106.137 36.3993 106.401C36.3993 106.664 36.5311 106.796 36.5311 106.928C36.5311 107.06 36.5311 107.06 36.5311 107.192C37.0584 109.96 41.4088 108.774 40.8815 106.005C40.8815 105.742 40.7497 105.61 40.7497 105.346C41.1452 95.9861 36.0038 82.6712 24.2709 84.9123Z" fill="#EEEEEE"/>
<path d="M92.2931 286.218C94.7979 285.032 95.457 282.922 95.1933 280.549C96.7753 274.881 99.2801 270.398 104.949 268.685C105.212 268.685 105.476 268.553 105.608 268.553C105.872 268.553 106.003 268.421 106.135 268.421C106.267 268.421 106.267 268.421 106.399 268.421C109.167 267.894 107.981 263.543 105.212 264.071C104.949 264.071 104.817 264.202 104.553 264.202C95.1933 263.939 82.0103 269.08 84.2514 280.813C85.0424 284.504 88.47 288.064 92.2931 286.218Z" fill="#EEEEEE"/>
<path d="M279.361 220.566C282.92 219.907 286.48 216.479 284.634 212.524C283.448 210.019 281.338 209.36 279.097 209.624C273.429 208.042 269.078 205.537 267.364 199.868C267.364 199.605 267.233 199.341 267.233 199.077C267.233 198.814 267.101 198.682 267.101 198.55C267.101 198.418 267.101 198.418 267.101 198.286C266.573 195.518 262.223 196.704 262.75 199.473C262.75 199.737 262.882 199.868 262.882 200.132C262.487 209.492 267.628 222.675 279.361 220.566Z" fill="#EEEEEE"/>
<path d="M88.3403 52.3506C88.9995 54.8554 91.7679 56.1737 94.1409 54.9872C96.7775 53.5371 99.1504 50.7687 101.392 48.6594C101.655 48.5276 101.787 48.2639 101.919 48.0003C103.237 46.8138 102.71 44.0453 100.469 44.1772C96.1183 44.309 86.6265 46.0227 88.3403 52.3506Z" fill="#EEEEEE"/>
<path d="M54.5913 210.679C53.1411 207.91 50.3727 205.669 48.3952 203.296C48.2634 203.032 47.9997 202.901 47.7361 202.769C46.5496 201.45 43.7812 201.978 43.913 204.219C44.0448 208.437 45.7586 218.193 52.0865 216.347C54.5913 215.82 55.9096 213.052 54.5913 210.679Z" fill="#EEEEEE"/>
<path d="M215.292 252.996C214.633 250.491 211.864 249.173 209.491 250.36C206.855 251.81 204.482 254.578 202.241 256.687C201.977 256.819 201.845 257.083 201.713 257.347C200.395 258.533 200.922 261.301 203.163 261.17C207.514 261.038 217.137 259.324 215.292 252.996Z" fill="#EEEEEE"/>
<path d="M249.039 94.6681C250.489 97.4366 253.258 99.6777 255.235 102.051C255.367 102.314 255.631 102.446 255.894 102.578C257.081 103.896 259.849 103.369 259.718 101.128C259.586 96.9091 257.872 87.1537 251.544 88.9994C249.039 89.5267 247.721 92.2952 249.039 94.6681Z" fill="#EEEEEE"/>
<path d="M202.241 48.6589C204.482 50.6364 206.723 53.2729 209.228 54.8549C211.601 56.305 214.501 55.1185 215.292 52.3501C217.006 46.0222 207.382 44.3085 203.163 44.1766C200.922 44.1766 200.395 46.8133 201.713 47.9998C201.845 48.2634 201.977 48.5271 202.241 48.6589Z" fill="#EEEEEE"/>
<path d="M47.7354 102.446C47.9991 102.314 48.1309 102.182 48.3946 101.919C50.372 99.6777 53.0087 97.4366 54.4588 94.8C55.9089 92.427 54.7225 89.3949 51.954 88.7358C45.6262 87.022 43.9123 96.6455 43.7805 100.864C43.9123 103.237 46.549 103.764 47.7354 102.446Z" fill="#EEEEEE"/>
<path d="M101.391 256.687C99.1498 254.71 96.9087 252.073 94.4039 250.491C92.0309 249.041 89.1306 250.228 88.3397 252.996C86.6259 259.324 96.2495 261.038 100.468 261.17C102.709 261.17 103.236 258.533 101.918 257.346C101.786 257.083 101.655 256.819 101.391 256.687Z" fill="#EEEEEE"/>
<path d="M251.547 216.611C257.875 218.325 259.589 208.701 259.721 204.483C259.721 202.242 257.084 201.714 255.898 203.033C255.634 203.165 255.502 203.296 255.239 203.56C253.261 205.801 250.624 208.042 249.174 210.679C247.724 212.788 248.911 215.82 251.547 216.611Z" fill="#EEEEEE"/>
<path d="M85.3078 39.1674C85.176 39.0355 84.9124 38.9038 84.7805 38.9038C82.0121 37.8491 79.1118 40.6176 79.771 43.386C80.2983 46.0226 83.7259 47.3409 85.8352 45.6271C87.9445 44.0451 87.8126 40.6175 85.3078 39.1674C85.4397 39.1674 85.4397 39.1674 85.3078 39.1674Z" fill="#EEEEEE"/>
<path d="M42.8574 221.357C42.8574 221.357 42.8574 221.225 42.8574 221.357C42.8574 221.225 42.8574 221.225 42.8574 221.357C42.8574 221.225 42.8574 221.225 42.8574 221.357C42.8574 221.225 42.8574 221.225 42.8574 221.357ZM43.121 225.18C45.7576 224.653 47.0759 221.225 45.3621 219.116C43.7802 217.007 40.3526 217.139 39.0343 219.512C39.0343 219.512 39.0343 219.511 39.0343 219.643C38.9025 219.775 38.7706 220.039 38.7706 220.171C37.5841 222.807 40.3526 225.839 43.121 225.18Z" fill="#EEEEEE"/>
<path d="M218.325 266.179C218.457 266.311 218.721 266.443 218.853 266.443C221.621 267.497 224.521 264.729 223.862 261.96C223.335 259.324 219.907 258.006 217.798 259.719C215.821 261.301 215.952 264.861 218.325 266.179C218.194 266.179 218.194 266.179 218.325 266.179Z" fill="#EEEEEE"/>
<path d="M260.511 80.2985C257.874 80.8258 256.556 84.2533 258.27 86.3626C259.852 88.4719 263.279 88.34 264.598 85.9671C264.598 85.9671 264.598 85.9671 264.598 85.8353C264.729 85.7034 264.861 85.4397 264.861 85.3079C266.048 82.5395 263.279 79.6393 260.511 80.2985Z" fill="#EEEEEE"/>
<path d="M223.86 43.386C224.52 40.6176 221.487 37.8491 218.851 38.9038C218.719 39.0356 218.455 39.0355 218.324 39.1674H218.192C215.951 40.4857 215.819 44.0451 217.796 45.6271C219.905 47.3409 223.333 46.0226 223.86 43.386Z" fill="#EEEEEE"/>
<path d="M43.1209 80.2983C40.3524 79.6392 37.584 82.6712 38.6386 85.3078C38.7705 85.4396 38.7705 85.7033 38.9023 85.8352V85.967C40.2206 88.3399 43.6482 88.34 45.2301 86.3625C46.9439 84.2532 45.6256 80.8257 43.1209 80.2983Z" fill="#EEEEEE"/>
<path d="M79.7731 262.093C79.1139 264.861 82.146 267.63 84.7826 266.575C84.9144 266.443 85.1781 266.443 85.3099 266.311H85.4418C87.6829 264.993 87.8147 261.434 85.8373 259.852C83.728 258.138 80.3004 259.456 79.7731 262.093Z" fill="#EEEEEE"/>
<path d="M260.511 225.181C263.279 225.84 266.048 222.808 264.993 220.171C264.861 220.039 264.861 219.776 264.729 219.644V219.512C263.411 217.139 259.984 217.139 258.402 219.116C256.688 221.226 258.006 224.522 260.511 225.181Z" fill="#EEEEEE"/>
<path d="M126.836 0.540865C113.653 -2.09574 93.6144 8.97802 99.0194 24.9295C100.338 28.8844 103.502 32.0483 107.193 33.1029C111.016 34.8167 115.762 34.4213 119.058 31.521C122.749 28.4889 124.726 22.5566 121.958 18.2062C119.453 14.1194 113.521 13.5921 110.225 17.0197C107.325 20.0518 107.588 24.4022 110.093 27.4343C107.852 27.3025 106.006 25.7205 104.952 23.743C102.842 19.9199 105.215 14.9103 107.852 12.0101C111.807 7.79148 117.871 5.68219 123.54 6.07768C123.672 6.07768 123.804 6.07768 123.804 6.07768C123.935 6.07768 124.199 6.20956 124.463 6.20956C124.595 6.20956 124.726 6.20956 124.99 6.20956C125.385 6.34139 125.913 6.34141 126.308 6.47324C131.186 8.18704 133.691 15.9651 133.823 20.1836C134.086 24.4022 132.636 28.4888 129.34 31.2573C124.726 35.344 118.662 37.3215 114.048 41.5401C114.048 41.5401 114.048 41.5401 113.916 41.5401C111.807 42.9903 109.83 44.7041 108.116 46.6815C101.788 54.1959 100.733 64.0832 104.82 72.9158C106.402 76.3434 111.543 73.3113 109.961 69.8837C104.952 58.8099 111.939 47.2088 122.881 43.7812C130.263 41.4082 139.096 42.3311 143.71 34.8168C152.015 21.3701 141.073 3.30931 126.836 0.540865Z" fill="#EEEEEE"/>
<path d="M69.6216 194.595C58.6797 199.737 47.0786 192.618 43.6511 181.676C41.2781 174.161 42.3327 165.329 34.6866 160.715C21.3717 152.541 3.3109 163.483 0.54246 177.853C-2.09415 191.168 8.9796 211.338 24.7993 205.801C28.7542 204.482 31.7863 201.319 32.9728 197.495C34.6866 193.672 34.2911 188.926 31.3908 185.499C28.3587 181.808 22.4263 179.83 18.2077 182.467C14.121 184.972 13.7255 190.904 17.0213 194.2C20.0534 197.1 24.4038 196.836 27.304 194.332C27.1722 196.573 25.5903 198.55 23.6128 199.605C19.7897 201.714 14.7802 199.341 11.8799 196.704C7.66131 192.749 5.55203 186.685 6.07936 180.885C6.07936 180.753 6.07936 180.621 6.07936 180.621C6.07936 180.489 6.21116 180.226 6.21116 179.962C6.21116 179.83 6.21116 179.698 6.21116 179.435C6.34299 179.039 6.343 178.512 6.47483 178.116C8.0568 173.239 15.9666 170.734 20.0534 170.47C24.2719 170.207 28.2269 171.657 31.1272 174.952C35.2139 179.566 37.1913 185.631 41.4099 190.377C41.4099 190.377 41.4099 190.377 41.4099 190.508C42.8601 192.75 44.442 194.727 46.4195 196.309C53.9338 202.637 63.8211 203.691 72.5219 199.605C75.9495 198.155 73.0492 193.013 69.6216 194.595Z" fill="#EEEEEE"/>
<path d="M176.801 304.938C189.984 307.574 210.022 296.501 204.617 280.549C203.299 276.594 200.135 273.43 196.444 272.376C192.621 270.662 187.875 271.057 184.579 273.958C180.888 276.99 178.91 282.922 181.679 287.273C184.183 291.359 190.116 291.887 193.412 288.459C196.312 285.427 196.048 281.077 193.543 278.044C195.785 278.176 197.63 279.758 198.685 281.736C200.794 285.559 198.421 290.568 195.785 293.469C191.83 297.687 185.765 299.796 180.097 299.401C179.965 299.401 179.833 299.401 179.833 299.401C179.701 299.401 179.438 299.269 179.174 299.269C179.042 299.269 178.91 299.269 178.647 299.269C178.251 299.137 177.724 299.137 177.328 299.006C172.451 297.292 169.946 289.514 169.814 285.295C169.55 281.077 171 276.99 174.296 274.221C178.91 270.135 184.974 268.157 189.589 263.938C189.589 263.938 189.589 263.938 189.72 263.938C191.83 262.488 193.807 260.775 195.521 258.797C201.849 251.283 202.903 241.396 198.817 232.563C197.235 229.135 192.093 232.167 193.675 235.595C198.685 246.669 191.698 258.27 180.756 261.697C173.373 264.07 164.541 263.148 159.927 270.662C151.621 283.977 162.563 302.169 176.801 304.938Z" fill="#EEEEEE"/>
<path d="M234.147 110.751C245.089 105.61 256.69 112.729 260.117 123.671C262.49 131.185 261.435 140.017 269.082 144.631C282.397 152.805 300.457 141.863 303.226 127.494C305.862 114.179 294.789 94.0086 278.969 99.5455C275.014 100.864 271.982 104.028 270.795 107.851C269.082 111.806 269.477 116.42 272.377 119.847C275.41 123.539 281.342 125.516 285.56 122.879C289.647 120.375 290.043 114.442 286.747 111.147C283.715 108.246 279.364 108.51 276.464 111.015C276.596 108.774 278.178 106.796 280.155 105.741C283.979 103.632 288.988 106.005 291.888 108.642C296.107 112.597 298.216 118.661 297.689 124.462C297.689 124.593 297.689 124.725 297.689 124.725C297.689 124.857 297.557 125.121 297.557 125.384C297.557 125.516 297.557 125.648 297.557 125.912C297.425 126.307 297.425 126.834 297.293 127.23C295.711 132.108 287.802 134.612 283.715 134.876C279.496 135.14 275.541 133.69 272.641 130.394C268.554 125.78 266.577 119.716 262.358 114.97C262.358 114.97 262.358 114.97 262.358 114.838C260.908 112.597 259.326 110.619 257.349 109.037C249.834 102.709 239.947 101.655 231.246 105.741C227.687 107.192 230.587 112.333 234.147 110.751Z" fill="#EEEEEE"/>
<path d="M72.5207 105.61C64.0836 101.655 54.46 102.446 46.9456 108.379C44.7045 110.224 42.727 112.334 41.2769 114.838C37.4538 119.189 35.2127 124.462 31.9169 129.076C29.2803 132.767 25.5891 134.745 20.975 134.745C16.7564 134.745 8.97844 132.504 6.73732 127.89C6.47366 127.099 6.3418 126.308 6.20997 125.649C5.28715 119.848 7.13281 113.388 11.3514 109.17C14.1198 106.401 18.4702 104.028 22.557 105.083C24.4026 105.61 26.9074 107.588 27.4347 109.433C27.5665 109.961 27.6984 110.488 27.6984 111.015C24.9299 108.51 20.5795 107.983 17.4156 110.752C13.7243 114.047 13.988 120.111 18.2066 122.88C22.4251 125.517 28.0939 123.671 31.126 120.243C34.1581 116.816 34.6854 111.938 32.8397 107.851C32.1806 105.742 30.9941 103.765 29.2803 102.183C15.9654 90.4497 0.541278 108.774 0.0139562 121.825C-0.513366 136.854 13.988 150.037 29.0167 146.873C38.904 144.764 41.1451 136.986 42.727 128.021C44.9682 115.366 56.4374 104.556 69.6205 110.752C73.048 112.334 76.0802 107.192 72.5207 105.61Z" fill="#EEEEEE"/>
<path d="M121.166 305.334C136.194 305.861 149.245 291.36 146.082 276.199C143.972 266.18 136.194 264.071 127.362 262.489C114.838 260.248 104.028 248.646 110.224 235.463C111.806 232.036 106.664 229.004 105.082 232.431C101.127 241 101.918 250.624 107.851 258.138C109.696 260.38 111.806 262.357 114.179 263.939C118.529 267.762 123.67 270.003 128.284 273.431C131.976 276.199 133.953 279.759 133.953 284.504C133.953 288.723 131.712 296.501 127.098 298.742C126.307 299.006 125.516 299.269 124.857 299.269C119.056 300.192 112.728 298.347 108.51 294.128C105.741 291.36 103.368 287.009 104.423 282.922C104.95 281.077 106.928 278.572 108.773 278.045C109.301 277.913 109.828 277.781 110.355 277.781C107.851 280.549 107.323 284.9 110.092 288.064C113.256 291.755 119.452 291.491 122.088 287.273C124.725 283.054 122.879 277.386 119.452 274.222C116.024 271.19 111.146 270.662 107.192 272.508C105.082 273.167 103.105 274.354 101.655 276.067C89.9217 289.382 108.114 304.806 121.166 305.334Z" fill="#EEEEEE"/>
<path d="M303.622 183.522C304.149 168.493 289.648 155.31 274.619 158.474C264.732 160.583 262.491 168.361 260.909 177.326C258.667 189.982 247.198 200.792 234.015 194.596C230.588 193.014 227.555 198.155 230.983 199.737C239.42 203.692 249.044 202.901 256.558 196.969C258.799 195.123 260.777 193.014 262.227 190.509C266.05 186.158 268.291 180.885 271.587 176.271C274.355 172.58 277.915 170.602 282.529 170.602C286.747 170.602 294.525 172.844 296.766 177.458C297.03 178.249 297.162 179.04 297.294 179.699C298.217 185.499 296.371 191.959 292.152 196.178C289.384 198.946 285.034 201.319 280.947 200.264C279.101 199.737 276.596 197.759 276.069 195.914C275.937 195.387 275.805 194.859 275.805 194.332C278.574 196.837 282.924 197.364 286.088 194.596C289.779 191.3 289.516 185.236 285.297 182.467C281.079 179.831 275.41 181.676 272.378 185.104C269.346 188.531 268.818 193.409 270.664 197.496C271.323 199.605 272.51 201.583 274.223 203.165C287.67 214.897 303.226 196.573 303.622 183.522Z" fill="#EEEEEE"/>
<path d="M193.541 17.4155C190.377 13.7243 184.181 13.9881 181.545 18.2066C178.908 22.4252 180.754 28.0938 184.181 31.2577C187.609 34.2898 192.487 34.8172 196.442 32.9716C198.551 32.3124 200.528 31.126 201.978 29.4122C213.711 15.9655 195.387 0.409447 182.468 0.0139555C167.439 -0.513367 154.388 13.988 157.552 29.1485C159.661 39.1676 167.439 41.2769 176.272 42.8589C188.795 45.1 199.606 56.7011 193.41 69.8841C191.828 73.3117 196.969 76.3439 198.551 72.9163C202.506 64.3473 201.715 54.7237 195.782 47.2093C193.937 44.9682 191.828 42.9907 189.455 41.4088C185.104 37.5857 179.963 35.3445 175.349 31.9169C171.657 29.1484 169.68 25.5891 169.68 20.8432C169.68 16.6247 171.921 8.8466 176.535 6.60548C177.326 6.34182 178.117 6.07813 178.776 6.07813C184.577 5.15531 190.905 7.00097 195.123 11.2195C197.892 13.988 200.265 18.3384 199.21 22.4251C198.683 24.2708 196.705 26.7755 194.86 27.3028C194.332 27.4346 193.805 27.5666 193.278 27.5666C195.782 24.93 196.31 20.5795 193.541 17.4155Z" fill="#EEEEEE"/>
</g>
</svg>
