<svg width="210" height="292" viewBox="0 0 210 292" fill="none" xmlns="http://www.w3.org/2000/svg">
<path opacity="0.6" d="M138.5 16.4111C128.496 21.4418 120.022 27.799 111.362 34.6134C103.338 40.9275 94.0534 47.6131 87.2808 55.2598C81.1914 62.135 105.324 62.7007 107.249 62.613C126.676 61.7287 143.566 53.8302 158.864 43.9776C160.865 42.6887 175.567 35.3627 169.228 32.2984C143.037 19.6374 116.691 45.2024 102.944 62.098C97.3498 68.973 92.8315 76.3411 88.9266 84.2186C87.5048 87.0867 83.888 92.574 84.0057 96.1607C84.0834 98.5298 88.6732 100.309 90.3701 101.064C97.82 104.383 105.601 104.952 113.382 103.772C126.466 101.787 136.964 95.3628 145.989 86.9617C148.592 84.5382 150.432 82.928 145.793 81.0041C135.822 76.869 121.416 80.3444 112.891 84.7286C104.557 89.0147 97.2429 95.1604 90.6316 101.411C85.1787 106.566 78.4523 112.884 76.1515 120.208C74.1604 126.546 84.9079 129.265 89.6292 130.899C102.226 135.259 113.288 133.899 123.925 127.639C131.993 122.891 117.262 123.636 114.278 124.016C97.2313 126.187 85.1905 137.215 77.3056 150.538C73.4478 157.057 70.6396 162.346 78.8357 167.422C88.5486 173.437 101.211 178.599 112.616 177.455C115.729 177.143 127.115 173.786 118.027 171.504C106.084 168.507 91.3958 176.498 84.5223 184.569C81.6096 187.989 72.2808 198.714 79.3576 202.651C90.6765 208.949 105.874 210.707 118.387 210.905C119.762 210.927 132.087 211.302 132.664 209.546C133.025 208.446 130.328 208.353 129.071 208.22C123.836 207.667 118.818 209.9 114.612 212.252C111.271 214.12 106.874 216.756 107.105 221.022C107.387 226.239 112.962 230.546 115.173 235.287C116.318 237.741 118.603 241.682 118.266 244.412C117.589 249.897 114.728 256.177 111.638 260.647C106.479 268.112 97.0759 273.243 88.5555 276.973C85.6154 278.26 83.5323 277.497 81.5036 280.3" stroke="#ADD9F9" stroke-width="5" stroke-linecap="round" stroke-linejoin="round"/>
</svg>
