<svg width="760" height="784" viewBox="0 0 760 784" fill="none" xmlns="http://www.w3.org/2000/svg">
<path d="M522.939 282.505C523.273 282.533 523.607 282.562 523.941 282.59C524.183 289.509 523.06 296.648 522.3 303.481C522.271 303.815 522.242 304.149 522.757 304.025C529.483 286.598 535.236 268.751 540.32 250.847C540.559 250.026 540.98 249.053 541.22 248.232C541.554 248.26 541.888 248.289 542.222 248.318C539.3 260.686 535.223 272.788 531.327 284.737C525.422 302.403 518.725 319.496 511.208 336.351C510.605 337.477 510.184 338.45 509.582 339.576C509.397 339.561 509.212 339.545 509.027 339.529C508.878 339.516 508.729 339.503 508.58 339.491C508.644 339.342 508.708 339.193 508.773 339.043C510.604 334.79 512.461 330.247 514.29 326.015C520.067 313.722 522.226 300.447 523.049 287.057C522.678 285.511 522.823 283.841 522.939 282.505Z" fill="#717E84"/>
<path d="M558.672 169.133C559.006 169.162 559.34 169.19 559.674 169.219C558.262 179.698 556.028 189.938 553.948 200.36C551.475 211.421 549.337 222.511 546.044 233.334C545.71 233.305 545.376 233.277 545.042 233.248C547.724 221.7 550.407 210.152 552.938 198.423C554.779 188.822 556.649 178.887 558.672 169.133Z" fill="#717E84"/>
<path d="M524.717 215.356C525.051 215.384 525.385 215.413 525.719 215.441C525.785 216.625 525.698 217.627 525.429 218.782C525.095 218.753 524.761 218.725 524.427 218.696C524.399 218.662 524.372 218.629 524.345 218.595C523.638 217.698 523.512 216.742 524.236 215.841C524.367 215.677 524.527 215.515 524.717 215.356Z" fill="#717E84"/>
<path d="M493.421 372.685C493.201 373.44 492.722 373.888 491.94 374.55C491.935 374.554 491.93 374.558 491.926 374.562C491.862 374.616 491.797 374.671 491.73 374.727C491.809 373.814 491.991 373.328 492.572 372.787C492.629 372.735 492.689 372.681 492.753 372.627C492.883 372.782 493.145 372.825 493.331 372.741L493.342 372.736C493.346 372.734 493.351 372.731 493.355 372.729L493.365 372.723L493.371 372.72C493.389 372.71 493.405 372.698 493.421 372.685Z" fill="#717E84"/>
<path d="M452.193 429.053C452.298 428.809 452.487 428.573 452.676 428.337C452.864 428.101 453.053 427.865 453.158 427.621C453.416 427.559 453.59 427.49 453.765 427.421C453.939 427.352 454.113 427.282 454.371 427.22C454.301 428.029 453.715 428.465 453.205 428.844C453.083 428.935 452.966 429.022 452.861 429.11C452.651 429.597 452.498 429.415 452.193 429.053Z" fill="#717E84"/>
<path d="M442.874 443.398C442.329 443.856 441.785 444.314 440.696 445.23C440.86 444.752 441.058 444.412 441.269 444.15C441.316 444.092 441.364 444.037 441.412 443.985C441.436 443.961 441.459 443.937 441.482 443.914C441.513 443.883 441.543 443.854 441.574 443.826C441.851 443.573 442.135 443.4 442.387 443.188C442.49 443.31 442.605 443.281 442.717 443.304C442.771 443.315 442.824 443.338 442.874 443.398Z" fill="#717E84"/>
<path d="M522.423 303.997C522.547 304.512 522.337 304.999 521.792 305.457C521.516 304.76 521.755 303.94 522.147 303.3C522.3 303.481 522.452 303.663 522.423 303.997Z" fill="#717E84"/>
<path d="M469.527 322.182C469.287 317.354 469.033 312.509 468.779 307.653C468.189 296.366 467.595 285.022 467.164 273.691C466.932 271.063 466.85 268.308 466.897 265.679C466.899 265.604 466.9 265.53 466.902 265.455C466.905 265.276 466.91 265.098 466.914 264.921C467.073 264.934 467.232 264.948 467.39 264.961C467.566 264.976 467.741 264.991 467.917 265.007C469.303 283.97 470.508 303.085 470.71 322.115C470.512 322.194 470.342 322.248 470.199 322.281C469.838 322.363 469.636 322.312 469.527 322.182Z" fill="#717E84"/>
<path d="M545.874 414.023C536.383 416.744 526.646 418.434 517.089 419.971C516.792 420.043 516.472 420.056 516.148 420.07C515.348 420.104 514.525 420.139 513.967 421.05C513.921 421.011 513.873 420.977 513.824 420.948C513.398 420.701 512.844 420.812 512.276 420.925C511.328 421.114 510.343 421.31 509.864 419.857C510.209 419.805 510.553 419.753 510.898 419.701C522.339 417.959 533.798 415.909 545.018 413.246C545.332 413.171 545.646 413.096 545.96 413.021C546.062 413.142 546.002 413.398 545.943 413.655C545.913 413.783 545.883 413.911 545.874 414.023Z" fill="#717E84"/>
<path d="M482.823 300.775C482.789 306.997 482.268 313.01 481.232 319.146C481.141 319.107 481.056 319.074 480.974 319.046C480.836 318.997 480.707 318.959 480.578 318.922C480.373 318.862 480.168 318.803 479.924 318.698C480.157 317.318 480.364 315.944 480.546 314.573C481.011 311.051 481.307 307.546 481.438 303.992C481.483 302.777 481.509 301.556 481.516 300.326C481.821 300.689 482.308 300.899 482.823 300.775Z" fill="#717E84"/>
<path d="M476.621 319.929C476.637 323.632 476.318 327.306 475.637 331.286C475.303 331.258 474.969 331.229 474.635 331.2C474.74 329.988 474.828 328.755 474.918 327.511C475.099 324.984 475.284 322.407 475.619 319.843C475.64 319.845 475.662 319.847 475.684 319.849C475.996 319.876 476.308 319.902 476.621 319.929Z" fill="#717E84"/>
<path d="M460.265 250.386C460.075 248.688 460.22 247.018 460.699 245.376C461.033 245.405 461.367 245.433 461.701 245.462C461.716 245.595 461.728 245.727 461.737 245.857C461.837 247.302 461.6 248.622 461.322 250.169C461.311 250.225 461.301 250.282 461.291 250.34C461.283 250.384 461.275 250.428 461.267 250.472C460.933 250.444 460.599 250.415 460.265 250.386Z" fill="#717E84"/>
<path d="M494.103 411.441C493.892 411.928 493.682 412.415 493.5 412.567C493.435 412.606 493.369 412.645 493.302 412.685C492.109 413.396 490.778 414.238 489.747 415.106C489.26 414.896 489.289 414.562 489.805 414.438C490.054 414.228 490.305 414.005 490.561 413.778C491.467 412.972 492.426 412.119 493.574 411.633C493.746 411.561 493.922 411.496 494.103 411.441Z" fill="#717E84"/>
<path d="M544.505 321.03C544.839 321.059 545.173 321.087 545.355 320.935C544.996 321.979 544.132 322.658 543.243 323.356C543.019 323.532 542.794 323.709 542.575 323.893C542.392 323.878 542.309 323.871 542.301 323.843C542.295 323.819 542.34 323.781 542.422 323.712C542.422 323.712 542.27 323.531 542.451 323.378C542.843 322.739 543.598 321.794 544.505 321.03Z" fill="#717E84"/>
<path d="M457.982 327.251C458.316 327.279 458.65 327.308 458.803 327.489C459.05 328.52 459.297 329.551 459.544 330.581C458.448 329.646 458.2 328.615 457.982 327.251Z" fill="#717E84"/>
<path d="M489.805 414.438C489.776 414.772 489.928 414.954 489.747 415.106C488.868 415.536 487.99 415.965 487.111 416.395C487.173 416.309 487.236 416.219 487.3 416.127C487.826 415.371 488.452 414.472 489.805 414.438Z" fill="#717E84"/>
<path d="M542.088 323.683C542.241 323.865 542.241 323.865 542.393 324.046C542.151 325.26 541.3 325.751 540.222 326.372C539.978 326.513 539.723 326.66 539.46 326.824C540.578 325.573 541.333 324.628 542.088 323.683Z" fill="#717E84"/>
<path d="M473.848 346.107C474.033 346.123 474.217 346.139 474.345 346.15C474.449 346.159 474.517 346.165 474.517 346.165C474.43 347.167 474.343 348.169 473.559 349.448C473.233 348.089 473.519 347.173 473.755 346.414C473.767 346.376 473.778 346.339 473.79 346.302C473.8 346.27 473.809 346.238 473.819 346.207C473.829 346.173 473.839 346.14 473.848 346.107Z" fill="#717E84"/>
<path d="M489.965 416.471C489.86 416.714 489.762 416.874 489.664 417.034C489.602 417.135 489.54 417.237 489.476 417.359C489.462 417.387 489.447 417.415 489.433 417.444C489.422 417.467 489.41 417.491 489.399 417.515C489.387 417.542 489.375 417.569 489.363 417.597C488.666 417.874 487.969 418.151 487.424 418.609C487.321 418.565 487.241 418.515 487.184 418.462C487.006 418.299 487.05 418.112 487.309 417.998C487.359 417.976 487.416 417.957 487.482 417.941C487.624 417.821 487.768 417.688 487.914 417.553C488.514 416.999 489.159 416.402 489.965 416.471Z" fill="#717E84"/>
<path d="M547.725 328.541C547.696 328.875 547.667 329.209 547.638 329.543C547.569 329.57 547.499 329.598 547.429 329.626C546.8 329.876 546.156 330.139 545.366 330.526C545.201 330.664 545.061 330.529 544.923 330.368C544.908 330.351 544.893 330.333 544.879 330.316C544.726 330.135 544.726 330.135 544.908 329.982C545.305 329.648 545.702 329.314 546.106 329.051C546.627 328.713 547.161 328.492 547.725 328.541Z" fill="#717E84"/>
<path d="M599.536 383.116C599.62 382.92 599.784 382.758 599.954 382.59C600.204 382.342 600.466 382.083 600.501 381.684C601.016 381.56 601.532 381.436 601.895 381.131C601.293 382.257 600.719 383.049 599.536 383.116Z" fill="#717E84"/>
<path d="M470.421 239.983C470.29 239.927 470.17 239.883 470.059 239.843C470.04 239.836 470.021 239.829 470.002 239.822C469.726 239.722 469.504 239.63 469.295 239.382C469.278 239.31 469.257 239.235 469.235 239.157C469.094 238.679 468.852 238.119 468.59 237.807C468.8 237.32 469.134 237.349 469.258 237.864C469.716 238.408 470.326 239.134 470.421 239.983Z" fill="#717E84"/>
<path d="M453.876 254.214C453.542 254.185 453.208 254.157 452.873 254.128C452.993 253.718 453.151 253.353 453.335 252.927C453.519 252.501 453.73 252.014 453.955 251.36C454.325 252.906 454.268 253.575 453.876 254.214Z" fill="#717E84"/>
<path d="M569.37 321.476C569.368 321.497 569.366 321.517 569.363 321.536C569.358 321.571 569.351 321.604 569.344 321.635C569.33 321.693 569.313 321.745 569.297 321.792C569.251 321.931 569.218 322.032 569.312 322.144C569.235 322.175 569.158 322.206 569.08 322.237C568.46 322.483 567.841 322.729 567.221 322.975C567.642 322.001 568.187 321.543 569.37 321.476Z" fill="#717E84"/>
<path d="M548.446 312.45C548.672 312.396 548.868 312.306 549.046 312.226C549.274 312.122 549.471 312.033 549.658 312.049C549.445 312.965 548.849 313.425 548.158 313.957C547.978 314.095 547.792 314.239 547.604 314.397C547.31 314.372 547.275 314.369 547.167 314.245C547.158 314.235 547.148 314.224 547.138 314.211C547.131 314.204 547.124 314.196 547.117 314.187C546.965 314.006 546.965 314.006 547.146 313.853C547.691 313.395 548.054 313.09 548.446 312.45Z" fill="#717E84"/>
<path d="M631.757 279.202C631.605 279.021 631.452 278.84 631.452 278.84C631.357 277.99 631.902 277.532 632.751 277.437C632.694 278.105 632.636 278.773 631.757 279.202Z" fill="#717E84"/>
<path d="M547.299 314.034C547.451 314.216 547.604 314.397 547.756 314.578C547.67 315.58 546.791 316.01 545.913 316.44C546.234 315.696 546.645 315.058 546.995 314.513C547.054 314.421 547.112 314.332 547.167 314.245C547.213 314.173 547.257 314.103 547.299 314.034Z" fill="#717E84"/>
<path d="M470.642 355.928C470.395 354.897 470.271 354.382 470.997 353.771C471.76 354.678 471.368 355.317 470.642 355.928Z" fill="#717E84"/>
<path d="M487.329 417.76C487.32 417.866 487.314 417.938 487.309 417.998C487.298 418.127 487.291 418.2 487.272 418.428C487.242 418.439 487.213 418.451 487.184 418.462C486.516 418.728 485.841 418.999 484.999 419.411C485.783 418.132 486.48 417.855 487.329 417.76Z" fill="#717E84"/>
<path d="M492.806 420.584C492.788 420.79 492.77 420.996 492.759 421.124C492.752 421.203 492.748 421.252 492.748 421.252C492.051 421.529 491.354 421.806 490.744 421.08C491.174 420.718 491.683 420.678 492.297 420.63C492.459 420.617 492.628 420.604 492.806 420.584Z" fill="#717E84"/>
<path d="M469.258 237.864C468.924 237.836 468.742 237.989 468.59 237.807C468.466 237.292 468.343 236.777 468.066 236.08C469.04 236.5 469.163 237.015 469.258 237.864Z" fill="#717E84"/>
<path d="M638.199 259.227C638.21 259.099 638.194 258.994 638.181 258.904C638.16 258.759 638.145 258.653 638.257 258.559C638.62 258.253 639.651 258.005 639.622 258.339C639.564 259.007 638.867 259.284 638.199 259.227Z" fill="#717E84"/>
<path d="M452.193 429.053C452.527 429.081 452.68 429.263 452.861 429.11C452.803 429.778 452.259 430.236 451.38 430.666C451.954 429.874 452.164 429.387 452.193 429.053Z" fill="#717E84"/>
<path d="M545.089 329.829C545.242 330.011 545.394 330.192 545.394 330.192C545.229 330.258 545.073 330.315 544.923 330.368C544.757 330.426 544.599 330.478 544.44 330.531C544.137 330.631 543.833 330.731 543.485 330.87C543.724 330.049 544.24 329.925 545.089 329.829Z" fill="#717E84"/>
<path d="M580.336 194.88C580.67 194.908 581.004 194.937 581.185 194.784C581.137 194.923 581.083 195.054 581.022 195.178C580.511 196.218 579.579 196.755 578.768 197.437C578.434 197.409 578.434 197.409 578.463 197.075C578.463 197.075 578.31 196.893 578.492 196.741C579.189 196.464 579.762 195.672 580.336 194.88Z" fill="#717E84"/>
<path d="M583.192 202.696C583.185 202.783 583.177 202.87 583.167 202.954C583.138 203.19 583.088 203.4 582.956 203.513L582.953 203.516C582.074 203.946 581.196 204.375 580.499 204.652C580.346 204.471 580.165 204.624 580.012 204.442C580.041 204.108 580.041 204.108 580.223 203.956C581.435 203.555 582.009 202.762 583.192 202.696Z" fill="#717E84"/>
<path d="M670.078 132.065C670.226 131.825 670.463 131.64 670.697 131.458C671.086 131.154 671.466 130.858 671.407 130.328C671.478 130.311 671.548 130.294 671.619 130.276C672.061 130.166 672.488 130.038 672.801 129.774C672.199 130.901 671.444 131.846 670.078 132.065Z" fill="#717E84"/>
<path d="M578.463 197.075C578.615 197.256 578.615 197.256 578.768 197.437C578.5 198.592 577.621 199.022 576.895 199.633C576.561 199.604 576.561 199.604 576.561 199.604L576.743 199.451C577.316 198.659 577.889 197.867 578.463 197.075Z" fill="#717E84"/>
<path d="M602.565 196.615C601.868 196.891 601.171 197.168 600.474 197.445C601.076 196.319 601.802 195.708 602.804 195.794C603.109 196.156 602.746 196.462 602.565 196.615Z" fill="#717E84"/>
<path d="M580.709 204.166C580.68 204.5 580.833 204.681 580.651 204.834C579.954 205.11 579.257 205.387 578.56 205.664C579.163 204.538 579.707 204.08 580.709 204.166Z" fill="#717E84"/>
<path d="M583.224 188.733C583.137 189.735 582.44 190.012 581.17 191.081C582.135 189.65 582.527 189.01 582.919 188.371C583.1 188.218 583.253 188.399 583.224 188.733C583.405 188.581 583.405 188.581 583.224 188.733Z" fill="#717E84"/>
<path d="M602.565 196.615C602.594 196.281 602.623 195.946 602.804 195.794C603.349 195.336 604.075 194.725 604.896 194.963C604.79 195.207 604.692 195.367 604.594 195.526C604.496 195.686 604.398 195.846 604.293 196.089C603.778 196.214 603.262 196.338 602.565 196.615Z" fill="#717E84"/>
<path d="M666.214 151.42C665.957 151.482 665.782 151.551 665.608 151.62C665.434 151.69 665.26 151.759 665.002 151.821C665.089 150.819 665.967 150.389 666.512 149.931C666.875 149.626 667.056 149.473 667.18 149.988C666.817 150.294 666.606 150.78 666.214 151.42Z" fill="#717E84"/>
<path d="M667.361 149.836C667.027 149.807 666.875 149.626 666.693 149.778C666.751 149.11 667.325 148.318 667.811 148.528C668.145 148.557 667.572 149.349 667.361 149.836Z" fill="#717E84"/>
<path d="M673.827 135.415C673.66 135.4 673.531 135.431 673.402 135.462C673.283 135.491 673.164 135.52 673.015 135.513C673.002 135.512 672.99 135.511 672.977 135.51C673.035 134.842 673.579 134.384 673.942 134.079C674.4 134.622 674.037 134.928 673.827 135.415Z" fill="#717E84"/>
<path d="M583.224 188.733C583.071 188.552 582.919 188.371 582.919 188.371C583.129 187.884 583.674 187.426 583.884 186.939C583.955 186.945 584.026 186.951 584.095 186.955C584.134 186.958 584.173 186.96 584.21 186.961C584.285 186.963 584.356 186.962 584.423 186.955C584.547 186.942 584.655 186.91 584.734 186.844C584.494 187.664 583.95 188.122 583.224 188.733Z" fill="#717E84"/>
<path d="M576.743 199.451C576.895 199.633 576.895 199.633 577.048 199.814C577.142 200.663 576.598 201.121 575.567 201.37C576.14 200.578 576.532 199.938 576.743 199.451Z" fill="#717E84"/>
<path d="M500.883 214.661C501.079 214.746 501.241 214.909 501.408 215.078C501.656 215.329 501.915 215.591 502.314 215.625C502.895 216.684 503.324 217.562 504.087 218.469C503.905 218.621 503.876 218.955 503.724 218.774C503.724 218.774 503.571 218.593 503.419 218.411C502.503 217.324 501.254 216.207 500.883 214.661Z" fill="#717E84"/>
<path d="M487.055 125.649C486.811 125.544 486.606 125.485 486.401 125.425C486.243 125.379 486.085 125.333 485.91 125.267C485.858 125.247 485.804 125.225 485.747 125.201C485.29 124.657 485.013 123.96 485.253 123.139C486.226 123.559 486.836 124.284 487.055 125.649Z" fill="#717E84"/>
<path d="M514.172 234.138C514.506 234.167 514.84 234.196 514.992 234.377C515.421 235.255 515.85 236.133 516.279 237.011C516.068 237.498 515.734 237.469 515.61 236.954C515.029 235.894 514.266 234.988 514.172 234.138Z" fill="#717E84"/>
<path d="M503.571 218.593C503.905 218.621 503.905 218.621 504.239 218.65C504.849 219.375 505.126 220.072 505.191 221.255C504.247 220.501 503.303 219.748 503.571 218.593Z" fill="#717E84"/>
<path d="M521.192 228.851C521.526 228.879 521.86 228.908 521.86 228.908C521.955 229.757 522.384 230.635 521.447 231.733C521.2 230.702 521.105 229.853 521.192 228.851Z" fill="#717E84"/>
<path d="M504.431 142.616C504.249 142.769 504.249 142.769 504.068 142.922C503.276 142.349 503 141.652 503.087 140.65C503.879 141.223 504.155 141.919 504.431 142.616Z" fill="#717E84"/>
<path d="M519.393 234.081C519.727 234.109 520.061 234.138 520.214 234.319C520.49 235.016 520.766 235.712 520.04 236.323C519.43 235.598 519.335 234.749 519.393 234.081Z" fill="#717E84"/>
<path d="M515.639 236.62C515.973 236.648 516.155 236.495 516.307 236.677C516.584 237.373 517.041 237.917 516.802 238.738C516.01 238.166 515.552 237.622 515.639 236.62Z" fill="#717E84"/>
<path d="M560.355 143.871C561.087 142.786 560.963 141.53 560.844 140.326C560.807 139.941 560.769 139.562 560.76 139.194C559.945 111.699 557.43 84.3954 554.915 57.0914C554.857 56.0455 554.799 54.9996 554.741 53.9538C554.733 53.8163 554.726 53.6787 554.718 53.5412C555.02 53.5671 555.323 53.593 555.625 53.6189C555.657 53.6216 555.688 53.6243 555.72 53.627C556.892 62.5284 557.602 71.3902 558.316 80.3052C558.653 84.5133 558.991 88.7334 559.379 92.9749C560.681 108.775 561.626 124.875 562.093 140.773C562.097 140.902 562.101 141.031 562.104 141.16C562.228 141.676 562.504 142.372 562.628 142.888C562.78 143.069 562.751 143.403 562.57 143.556C562.178 144.195 562.578 145.407 561.394 145.474C560.726 145.417 560.631 144.568 560.355 143.871Z" fill="#717E84"/>
<path d="M562.933 143.25C562.78 143.069 562.78 143.069 562.628 142.888C562.17 142.344 562.381 141.857 562.773 141.218C562.784 141.155 562.796 141.093 562.808 141.031C563.811 135.69 564.229 130.443 564.651 125.148C564.864 122.465 565.079 119.77 565.371 117.043C565.704 117.072 566.037 117.1 566.37 117.129L566.373 117.129C566.157 119.633 565.985 122.098 565.813 124.564L565.813 124.568C565.642 127.035 565.47 129.503 565.253 132.008C565.305 132.181 565.348 132.353 565.381 132.525C565.679 134.066 565.231 135.557 564.637 137.171C564.979 139.051 563.804 140.969 563.964 143.002C563.601 143.308 563.449 143.126 563.114 143.098C563.114 143.098 563.114 143.098 562.933 143.25Z" fill="#717E84"/>
<path d="M571.923 101.62C572.026 104.321 571.795 106.993 571.229 109.637C571.164 109.631 571.098 109.626 571.033 109.62C570.764 109.597 570.496 109.574 570.227 109.551C570.44 107.092 570.653 104.634 570.866 102.175C570.884 101.961 570.903 101.748 570.921 101.535C571.255 101.563 571.589 101.592 571.923 101.62Z" fill="#717E84"/>
<path d="M564.971 137.199C565.102 135.694 565.232 134.189 565.496 132.572C565.524 132.395 565.555 132.216 565.587 132.036C565.875 132.061 566.163 132.086 566.451 132.11C566.497 132.114 566.543 132.118 566.589 132.122C566.081 134.098 566.605 135.825 564.971 137.199Z" fill="#717E84"/>
<path d="M557.222 28.5177C557.141 28.5108 557.062 28.4845 556.984 28.448C556.901 28.409 556.818 28.3584 556.735 28.3078C556.582 28.2137 556.428 28.1196 556.268 28.0998C556.261 28.0991 556.255 28.0984 556.249 28.0979C555.973 27.4012 555.667 27.0386 555.268 25.8266C556.546 26.609 557.156 27.3343 557.222 28.5177Z" fill="#717E84"/>
<path d="M548.524 117.283C548.789 117.306 549.055 117.329 549.32 117.352C549.389 117.358 549.457 117.363 549.526 117.369C549.984 117.913 550.26 118.61 549.657 119.736C548.713 118.982 548.437 118.286 548.524 117.283Z" fill="#717E84"/>
<path d="M542.137 43.3784C542.133 43.3734 542.128 43.3683 542.124 43.3633C541.976 43.187 541.828 43.0107 541.679 42.8345C541.664 42.7719 541.654 42.7097 541.649 42.648C541.612 42.2013 541.832 41.7768 542.31 41.3742C542.587 42.0709 542.529 42.739 542.137 43.3784Z" fill="#717E84"/>
<path d="M566.218 45.1036C567.22 45.1894 567.162 45.8575 567.104 46.5256C565.921 46.5925 566.676 45.6476 566.218 45.1036Z" fill="#717E84"/>
<path d="M563.296 142.945C563.63 142.973 563.964 143.002 563.964 143.002C564.088 143.517 564.182 144.367 563.667 144.491C562.999 144.434 563.754 143.489 563.296 142.945Z" fill="#717E84"/>
<path d="M562.773 141.218C562.715 141.886 562.686 142.22 562.628 142.888C561.608 142.343 561.983 141.641 562.24 140.904C562.267 140.827 562.292 140.751 562.315 140.674C562.467 140.855 562.62 141.036 562.773 141.218Z" fill="#717E84"/>
<path fill-rule="evenodd" clip-rule="evenodd" d="M521.723 253.798C522.584 263.293 522.928 272.913 522.939 282.505C522.991 282.567 523.044 282.619 523.094 282.662L523.091 282.686C523.117 282.697 523.141 282.708 523.163 282.718C523.256 282.788 523.327 282.82 523.336 282.817C523.346 282.814 523.299 282.78 523.163 282.718C523.141 282.701 523.118 282.683 523.094 282.662C523.471 279.68 523.412 276.748 523.354 273.839C523.331 272.698 523.309 271.558 523.312 270.422C523.359 266.646 523.033 262.808 522.705 258.954C522.245 253.545 521.782 248.101 522.344 242.746C522.767 238.829 523.153 234.868 523.538 230.906L523.538 230.902L523.539 230.899L523.539 230.895C523.924 226.935 524.309 222.974 524.732 219.059C524.665 218.776 524.534 218.64 524.345 218.595C524.189 218.558 523.993 218.583 523.759 218.639C523.42 218.236 523.232 218.012 523.124 217.754C522.989 217.432 522.98 217.057 522.96 216.215C522.134 200.496 519.79 184.817 515.202 169.786C512.923 162.174 510.537 154.436 506.426 147.402C505.594 145.979 504.691 144.585 503.705 143.227C503.415 142.882 503.198 142.476 503.039 142.179C502.947 142.007 502.874 141.871 502.819 141.805C502.874 141.871 502.966 142.029 503.083 142.229L503.085 142.233C503.289 142.584 503.567 143.063 503.857 143.408C504.539 144.371 505.22 145.348 505.897 146.336C508.494 150.128 511.032 154.082 513.361 158.019C519.937 169.518 524.756 181.877 524.753 195.505C524.884 198.94 524.536 202.402 524.185 205.888C523.984 207.885 523.783 209.889 523.67 211.901C523.665 211.961 523.659 212.021 523.653 212.082L523.641 212.204L523.621 212.404C523.499 213.6 523.37 214.861 524.172 215.814C524.193 215.823 524.214 215.832 524.236 215.841C524.701 216.041 525.155 216.212 525.356 215.747C525.62 213.666 525.839 211.624 526.058 209.582C526.277 207.539 526.496 205.497 526.76 203.416C528.041 190.571 525.561 178.412 520.197 166.512C513.148 150.766 502.498 137.74 490.606 125.448L490.112 124.935C487.786 122.516 485.317 119.949 482.557 117.356C482.523 117.748 482.384 118.014 482.269 118.236C482.188 118.392 482.119 118.525 482.107 118.664C478.495 133.161 475.734 147.562 475.281 162.498C475.16 169.723 475.736 176.67 479.195 183.36C482.807 190.231 486.781 196.797 491.271 203.238C494.36 207.864 497.525 212.429 500.682 216.982L500.684 216.985L500.687 216.989L500.688 216.991L500.689 216.993C506.054 224.731 511.398 232.44 516.323 240.38C518.83 244.464 521.337 248.549 521.723 253.798ZM500.883 214.661C493.523 204.441 486.192 193.886 480.255 182.778C477.93 178.541 476.999 173.75 476.583 168.835C476.094 160.885 476.788 152.868 478.332 144.756C481.355 170.085 491.137 193.132 502.314 215.625C501.915 215.591 501.656 215.329 501.408 215.078C501.241 214.909 501.079 214.746 500.883 214.661ZM497.095 202.054C502.182 213.258 507.661 223.822 514.172 234.138C514.506 234.167 514.84 234.196 514.992 234.377C513.854 231.505 512.709 228.639 511.565 225.775L511.561 225.764C506.599 213.342 501.649 200.95 497.279 188.273C490.7 169.034 484.666 149.337 482.241 128.77C482.299 128.102 482.175 127.587 481.355 127.348C481.249 127.592 481.182 127.881 481.115 128.169C481.048 128.458 480.981 128.747 480.876 128.99C479.15 137.255 479.792 145.386 481.102 153.574C483.846 170.466 489.864 186.461 497.095 202.054ZM516.828 233.94L516.836 233.959C517.452 235.438 518.068 236.916 518.683 238.394C509.439 199.41 496.587 161.294 483.372 123.483C487.094 162.569 501.966 198.267 516.828 233.94ZM503.558 158.525C499.168 147.045 493.899 135.994 487.055 125.649C486.811 125.544 486.606 125.485 486.401 125.425C486.243 125.379 486.085 125.333 485.91 125.267C491.613 142.28 497.166 159.117 502.54 176.105C508.603 195.468 514.179 214.622 519.393 234.081C519.727 234.109 520.061 234.138 520.214 234.319C518.099 208.227 512.89 182.88 503.558 158.525ZM521.192 228.851C518.956 209.983 515.689 191.364 509.873 173.031C505.162 157.485 498.876 142.645 490.498 128.636C490.424 128.485 490.355 128.34 490.288 128.199C489.964 127.518 489.688 126.937 489.183 126.336C490.373 126.306 490.876 127.045 491.331 127.715C491.457 127.899 491.579 128.079 491.71 128.235C501.409 138.656 507.201 151.434 511.78 164.613C518.73 185.399 521.584 206.843 521.526 228.879L521.192 228.851Z" fill="#717E84"/>
<path fill-rule="evenodd" clip-rule="evenodd" d="M524.427 218.696C524.362 217.513 524.296 216.329 524.717 215.356C524.823 212.431 525.155 209.494 525.49 206.525C525.923 202.683 526.363 198.788 526.329 194.799C525.698 174.891 516.883 158.152 504.583 142.797C504.416 142.783 504.333 142.776 504.288 142.814C504.242 142.852 504.235 142.936 504.22 143.103C504.796 144.177 505.354 145.255 505.897 146.336C508.494 150.128 511.032 154.082 513.361 158.019C519.937 169.518 524.756 181.877 524.753 195.505C524.884 198.94 524.536 202.402 524.185 205.888C523.984 207.885 523.783 209.889 523.67 211.901C523.665 211.961 523.659 212.021 523.653 212.082L523.641 212.204L523.621 212.404C523.499 213.6 523.37 214.861 524.172 215.814L524.236 215.841C523.512 216.742 523.638 217.698 524.345 218.595C524.189 218.558 523.993 218.583 523.759 218.639C523.42 218.236 523.232 218.012 523.124 217.754C522.989 217.432 522.98 217.057 522.96 216.215C522.134 200.496 519.79 184.817 515.202 169.786C512.923 162.174 510.537 154.436 506.426 147.402C506.301 147.148 506.175 146.893 506.048 146.639C517.68 169.978 521.783 195.044 523.223 220.948C524.046 220.461 524.135 219.91 524.215 219.408C524.256 219.153 524.295 218.911 524.427 218.696Z" fill="#717E84"/>
<path fill-rule="evenodd" clip-rule="evenodd" d="M558.672 169.133C558.825 168.139 558.925 167.141 559.024 166.153C559.173 164.665 559.32 163.201 559.642 161.813C560.926 156.707 560.176 151.763 558.425 146.734C555.116 137.236 551.327 127.897 547.534 118.547C545.302 113.045 543.068 107.539 540.93 101.995C539.528 98.4597 538.237 94.6683 536.965 90.9338C536.483 89.5173 536.003 88.109 535.522 86.726C532.36 78.5474 532.234 70.2923 534.141 61.8746C537.686 46.1942 544.152 31.7732 551.467 17.2567C555.499 23.1543 559.045 28.842 562.257 34.5011C569.109 46.6972 574.901 59.4755 577.905 73.3612C580.632 86.5502 580.201 99.3005 576.066 112.07C574.61 116.464 573.085 120.853 571.556 125.252L571.555 125.256C568.303 134.614 565.034 144.02 562.37 153.634C561.728 156.187 561.337 158.761 560.946 161.336C560.555 163.91 560.163 166.484 559.521 169.037C559.13 169.677 558.796 169.648 558.672 169.133ZM535.687 82.8704C539.046 94.5992 543.618 105.927 548.524 117.283L549.32 117.352C549.338 117.301 549.356 117.247 549.373 117.188C549.079 115.733 548.739 114.315 548.399 112.898C548.059 111.481 547.719 110.064 547.424 108.608C542.589 87.0957 539.257 65.545 542.124 43.3633L541.679 42.8345C541.664 42.7719 541.654 42.7097 541.649 42.648C538.671 50.084 536.178 57.7276 534.825 65.6347C533.817 71.4373 533.993 77.173 535.687 82.8704ZM542.303 60.8909C542.542 81.4382 546.361 101.451 551.728 121.091C553.516 127.638 555.305 134.185 557.791 140.454C557.502 138.635 557.211 136.816 556.921 134.997L556.92 134.99C551.196 99.1221 545.477 63.2818 549.044 25.7985C547.476 28.3563 546.635 30.3033 545.946 32.4316C542.95 41.7655 542.292 51.2996 542.303 60.8909ZM557.125 126.769C557.969 132.562 558.814 138.355 560.355 143.871C561.087 142.786 560.963 141.53 560.844 140.326C560.807 139.941 560.769 139.562 560.76 139.194C559.945 111.699 557.43 84.3954 554.915 57.0914L554.741 53.9538C554.685 53.7561 554.627 53.5581 554.565 53.3599C554.132 49.2173 553.665 45.1027 553.196 40.9659C552.569 35.4391 551.937 29.8728 551.375 24.1472C550.398 25.2396 550.347 26.0259 550.292 26.8754C550.284 26.9982 550.276 27.1224 550.265 27.249C549.084 35.0558 549.086 42.7956 549.089 50.5355C549.563 76.1505 552.919 101.507 557.125 126.769ZM555.749 53.293C554.889 43.7972 554 34.6354 552.987 24.9583C554.013 25.586 554.258 26.4719 554.521 27.4235C554.586 27.658 554.652 27.8965 554.731 28.1362C562.538 50.6774 565.581 73.8204 565.713 97.5553L565.713 97.5585C565.65 104.114 565.587 110.669 565.371 117.043C565.079 119.77 564.864 122.465 564.651 125.148C564.229 130.443 563.811 135.69 562.808 141.031C562.752 141.04 562.689 141.042 562.62 141.036L562.315 140.674C562.292 140.751 562.267 140.827 562.24 140.904C562.186 140.865 562.138 140.821 562.093 140.773C561.626 124.875 560.681 108.775 559.379 92.9749C558.991 88.7334 558.653 84.5133 558.316 80.3052C557.602 71.3902 556.892 62.5284 555.72 53.627L555.625 53.6189C555.66 53.512 555.701 53.4033 555.749 53.293ZM569.346 115.777C569.628 113.69 569.909 111.613 570.227 109.551L570.866 102.175C570.827 102.013 570.785 101.85 570.74 101.687C571.171 88.937 571.116 75.9767 569.027 63.179C566.881 51.0492 564.037 39.1963 557.04 28.6704L557.04 28.6677L557.015 28.5641C557.005 28.5248 556.995 28.4859 556.984 28.448C556.901 28.409 556.818 28.3584 556.735 28.3078C556.582 28.2137 556.428 28.1196 556.268 28.0998C556.207 28.1395 556.14 28.1894 556.067 28.2505C560.4 40.3992 563.033 52.7388 564.787 65.508C567.153 82.5961 567.69 99.6939 566.37 117.129L566.373 117.129C566.157 119.633 565.985 122.098 565.813 124.564L565.813 124.568C565.642 127.035 565.47 129.503 565.253 132.008C565.305 132.181 565.348 132.353 565.381 132.525C565.42 132.542 565.458 132.557 565.496 132.572C565.524 132.395 565.555 132.216 565.587 132.036L566.451 132.11C567.872 126.684 568.613 121.2 569.346 115.777ZM571.923 101.62C573.217 84.7376 572.326 67.8359 568.188 51.4977C568.155 51.2017 568.041 50.8988 567.924 50.5885C567.705 50.0084 567.477 49.4025 567.751 48.7682C580.88 66.2128 581.532 105.303 568.97 127.951C569.142 125.047 569.569 122.202 569.992 119.376C570.472 116.175 570.948 112.998 571.048 109.79L571.033 109.62L571.229 109.637C571.795 106.993 572.026 104.321 571.923 101.62Z" fill="#717E84"/>
<path fill-rule="evenodd" clip-rule="evenodd" d="M541.067 248.051C541.694 245.665 542.367 243.241 543.04 240.817C543.713 238.392 544.385 235.968 545.013 233.582C545.405 232.943 545.557 233.124 546.015 233.668C545.747 234.823 545.449 236.312 545.334 237.648C546.002 237.705 546.546 237.247 546.757 236.76C551.053 230.606 556.059 224.886 561.045 219.19C562.748 217.245 564.448 215.303 566.116 213.348C570.845 207.943 574.355 201.741 577.87 195.53C578.936 193.646 580.003 191.761 581.104 189.898C584.45 184.295 587.824 178.359 591.018 172.575C598.217 159.395 608.983 149.717 622.19 142.94C639.819 133.681 659.018 129.604 678.769 126.92C678.559 127.407 678.53 127.741 678.501 128.075C672.283 143.527 665.578 158.769 655.162 172.178C650.603 178.182 644.882 182.066 638.064 185.016C626.823 189.879 615.32 193.88 603.838 197.874C599.071 199.531 594.308 201.188 589.568 202.905C587.568 203.659 585.606 204.458 583.645 205.257L583.642 205.258C581.68 206.058 579.719 206.857 577.719 207.611C572.505 209.52 568.178 212.851 564.614 217.089C562.941 219.132 561.211 221.151 559.475 223.176C556.135 227.074 552.774 230.996 549.755 235.166C546.707 239.279 543.811 243.574 542.374 248.499C541.525 248.594 541.191 248.566 541.067 248.051ZM586.147 182.514C585.404 183.882 584.662 185.248 583.913 186.605C583.949 186.755 584.016 186.88 584.095 186.955C584.134 186.958 584.173 186.96 584.21 186.961C584.285 186.963 584.356 186.962 584.423 186.955C584.51 186.855 584.582 186.657 584.61 186.328C587.993 182.243 591.557 178.006 595.273 173.949C607.179 160.835 620.304 149.172 635.718 140.228C637.217 139.431 638.678 138.589 640.14 137.746C641.601 136.904 643.062 136.062 644.561 135.265C640.466 135.923 636.828 137.126 633.161 138.663C620.099 143.77 608.715 150.872 599.561 161.361C594.185 167.713 590.152 175.139 586.147 182.514ZM580.336 194.88C587.609 184.734 595.492 175.314 604.501 166.495C616.835 154.259 630.541 143.655 646.508 136.104C652.295 133.403 658.205 131.217 664.363 130.061C664.459 130.038 664.567 130.005 664.683 129.969C665.191 129.811 665.842 129.609 666.214 130.052C666.001 130.968 665.212 131.2 664.547 131.394C664.374 131.445 664.209 131.493 664.065 131.55C640.432 142.146 619.791 157.036 601.105 174.617C595.843 179.513 590.947 184.633 586.074 189.729C584.506 191.369 582.941 193.005 581.367 194.631C581.243 194.918 581.129 195.089 581.022 195.178C581.083 195.054 581.137 194.923 581.185 194.784C581.004 194.937 580.67 194.908 580.336 194.88ZM625.712 164.441C640.297 153.407 655.188 142.736 670.078 132.065C670.226 131.825 670.463 131.64 670.697 131.458C671.086 131.154 671.466 130.858 671.407 130.328C671.478 130.311 671.548 130.294 671.619 130.276C671.61 130.244 671.6 130.21 671.588 130.175C652.434 137.621 635.51 148.455 619.473 160.71C602.891 173.424 580.162 196.884 576.758 203.154C592.425 189.353 609.159 176.821 625.712 164.441ZM664.842 137.462C634.952 158.918 604.92 180.477 577.129 204.7C577.184 204.654 577.27 204.61 577.363 204.563C577.578 204.453 577.835 204.322 577.855 204.089C590.089 196.892 602.199 189.18 614.157 181.286C631.473 169.814 648.178 157.615 663.387 143.27C667.438 139.242 671.307 135.367 674.413 130.585C671.24 132.869 668.061 135.151 664.881 137.433L664.862 137.447L664.842 137.462ZM654.657 160.526C662.519 153.291 669.923 145.512 673.827 135.415C673.66 135.4 673.531 135.431 673.402 135.462C673.283 135.491 673.164 135.52 673.015 135.513C672.407 136.168 671.763 136.853 671.119 137.538C670.424 138.278 669.729 139.018 669.079 139.719C659.62 149.846 648.788 158.341 637.804 166.654C627.393 174.175 616.829 181.515 606.142 188.34C602.312 190.788 598.528 193.198 594.744 195.608C590.959 198.019 587.175 200.429 583.345 202.877C583.278 202.903 583.219 202.929 583.167 202.954C583.138 203.19 583.088 203.4 582.956 203.513C582.998 203.57 583.049 203.631 583.106 203.698C584.772 202.915 586.522 202.139 588.272 201.364C590.021 200.588 591.771 199.813 593.438 199.03C615.525 188.807 636.573 176.98 654.657 160.526ZM666.214 151.42C661.817 159.456 657.266 167.311 651.285 174.202C647.539 178.592 642.602 181.198 637.512 183.623C627.472 188.058 617.22 191.61 606.809 195.217C605.971 195.507 605.133 195.798 604.293 196.089C604.398 195.846 604.496 195.686 604.594 195.526C604.692 195.367 604.79 195.207 604.896 194.963C613.194 190.458 621.493 185.953 629.487 181.085C642.657 172.79 654.578 163.379 665.002 151.821C665.26 151.759 665.434 151.69 665.608 151.62C665.782 151.551 665.957 151.482 666.214 151.42Z" fill="#717E84"/>
<path fill-rule="evenodd" clip-rule="evenodd" d="M491.73 374.727C491.809 373.814 491.991 373.328 492.572 372.787C492.614 373.182 492.445 373.487 492.26 373.82C492.136 374.043 492.005 374.278 491.926 374.562L491.73 374.727ZM493.421 372.685C493.201 373.44 492.722 373.888 491.94 374.55C492.084 374.087 492.385 373.823 492.666 373.577C492.915 373.358 493.147 373.154 493.24 372.837L493.331 372.741L493.342 372.736L493.355 372.729L493.365 372.723L493.371 372.72C493.389 372.71 493.405 372.698 493.421 372.685ZM441.482 443.914C441.513 443.883 441.543 443.854 441.574 443.826C441.523 443.882 441.469 443.935 441.412 443.985C441.436 443.961 441.459 443.937 441.482 443.914ZM509.027 339.529L509.095 339.367C508.998 339.25 508.9 339.134 508.773 339.043L508.58 339.491L509.027 339.529ZM442.717 443.304L442.177 443.675C441.781 443.77 441.502 443.949 441.269 444.15C441.058 444.412 440.86 444.752 440.696 445.23L442.874 443.398C442.824 443.338 442.771 443.315 442.717 443.304ZM459.544 330.581C458.448 329.646 458.2 328.615 457.982 327.251C458.316 327.279 458.65 327.308 458.803 327.489L459.544 330.581ZM452.873 254.128L453.876 254.214C454.268 253.575 454.325 252.906 453.955 251.36C453.73 252.014 453.519 252.501 453.335 252.927C453.151 253.353 452.993 253.718 452.873 254.128ZM460.265 250.386C460.075 248.688 460.22 247.018 460.699 245.376L461.701 245.462C461.716 245.595 461.728 245.727 461.737 245.857C461.837 247.302 461.6 248.622 461.322 250.169L461.291 250.34L461.267 250.472L460.265 250.386ZM467.164 273.691C466.932 271.063 466.85 268.308 466.897 265.679L466.902 265.455C466.905 265.276 466.91 265.098 466.914 264.921L467.39 264.961L467.917 265.007C469.303 283.97 470.508 303.085 470.71 322.115C470.512 322.194 470.342 322.248 470.199 322.281C469.838 322.363 469.636 322.312 469.527 322.182C469.287 317.354 469.033 312.509 468.779 307.653C468.189 296.366 467.595 285.022 467.164 273.691ZM474.635 331.2C474.74 329.988 474.828 328.755 474.918 327.511C475.099 324.984 475.284 322.407 475.619 319.843L475.684 319.849L476.621 319.929C476.637 323.632 476.318 327.306 475.637 331.286L474.635 331.2ZM473.79 346.302L473.819 346.207L473.848 346.107L474.345 346.15L474.517 346.165C474.43 347.167 474.343 348.169 473.559 349.448C473.233 348.089 473.519 347.173 473.755 346.414L473.79 346.302ZM469.235 239.157C469.257 239.235 469.278 239.31 469.295 239.382C469.504 239.63 469.726 239.722 470.002 239.822L470.059 239.843C470.17 239.883 470.29 239.927 470.421 239.983C470.326 239.134 469.716 238.408 469.258 237.864C469.163 237.015 469.04 236.5 468.066 236.08C468.343 236.777 468.466 237.292 468.59 237.807C468.852 238.119 469.094 238.679 469.235 239.157ZM480.546 314.573C481.011 311.051 481.307 307.546 481.438 303.992C481.483 302.777 481.509 301.556 481.516 300.326C481.821 300.689 482.308 300.899 482.823 300.775C482.789 306.997 482.268 313.01 481.232 319.146C481.141 319.107 481.056 319.074 480.974 319.046C480.836 318.997 480.707 318.959 480.578 318.922C480.373 318.862 480.168 318.803 479.924 318.698C480.157 317.318 480.364 315.944 480.546 314.573ZM547.146 313.853C547.691 313.395 548.054 313.09 548.446 312.45C548.672 312.396 548.868 312.306 549.046 312.226C549.274 312.122 549.471 312.033 549.658 312.049C549.445 312.965 548.849 313.425 548.158 313.957C547.978 314.095 547.792 314.239 547.604 314.397L547.756 314.578C547.67 315.58 546.791 316.01 545.913 316.44C546.234 315.696 546.645 315.058 546.995 314.513C547.054 314.421 547.112 314.332 547.167 314.245L547.138 314.211L547.117 314.187C546.965 314.006 546.965 314.006 547.146 313.853ZM452.676 428.337C452.864 428.101 453.053 427.865 453.158 427.621C453.416 427.559 453.59 427.49 453.765 427.421C453.939 427.352 454.113 427.282 454.371 427.22C454.301 428.029 453.715 428.465 453.205 428.844C453.083 428.935 452.966 429.022 452.861 429.11C452.803 429.778 452.259 430.236 451.38 430.666C451.954 429.874 452.164 429.387 452.193 429.053C452.298 428.809 452.487 428.573 452.676 428.337ZM639.622 258.339C639.564 259.007 638.867 259.284 638.199 259.227C638.21 259.099 638.194 258.994 638.181 258.904C638.16 258.759 638.145 258.653 638.257 258.559C638.62 258.253 639.651 258.005 639.622 258.339ZM487.914 417.553C488.514 416.999 489.159 416.402 489.965 416.471C489.86 416.714 489.762 416.874 489.664 417.034C489.602 417.135 489.54 417.237 489.476 417.359C489.462 417.387 489.447 417.415 489.433 417.444C489.422 417.467 489.41 417.491 489.399 417.515C489.387 417.542 489.375 417.569 489.363 417.597C488.666 417.874 487.969 418.151 487.424 418.609C487.321 418.565 487.241 418.515 487.184 418.462C486.516 418.728 485.841 418.999 484.999 419.411C485.783 418.132 486.48 417.855 487.329 417.76L487.309 417.998C487.359 417.976 487.416 417.957 487.482 417.941C487.624 417.821 487.768 417.688 487.914 417.553ZM600.501 381.684C600.466 382.083 600.204 382.342 599.954 382.59C599.784 382.758 599.62 382.92 599.536 383.116C600.719 383.049 601.293 382.257 601.895 381.131C601.532 381.436 601.016 381.56 600.501 381.684ZM545.089 329.829C545.426 329.548 545.763 329.274 546.106 329.051C546.627 328.713 547.161 328.492 547.725 328.541L547.638 329.543L547.429 329.626C546.8 329.876 546.156 330.139 545.366 330.526C545.201 330.664 545.061 330.529 544.923 330.368C544.757 330.426 544.599 330.478 544.44 330.531C544.137 330.631 543.833 330.731 543.485 330.87C543.724 330.049 544.24 329.925 545.089 329.829ZM492.297 420.63C492.459 420.617 492.628 420.604 492.806 420.584L492.759 421.124L492.748 421.252C492.051 421.529 491.354 421.806 490.744 421.08C491.174 420.718 491.683 420.678 492.297 420.63ZM545.018 413.246C545.332 413.171 545.646 413.096 545.96 413.021C546.062 413.142 546.002 413.398 545.943 413.655C545.913 413.783 545.883 413.911 545.874 414.023C536.383 416.744 526.646 418.434 517.089 419.971C516.792 420.043 516.472 420.056 516.148 420.07C515.348 420.104 514.525 420.139 513.967 421.05C513.921 421.011 513.873 420.977 513.824 420.948C513.398 420.701 512.844 420.812 512.276 420.925C511.328 421.114 510.343 421.31 509.864 419.857C510.209 419.805 510.553 419.753 510.898 419.701C522.339 417.959 533.798 415.909 545.018 413.246ZM542.451 323.378C542.843 322.739 543.598 321.794 544.505 321.03C544.839 321.059 545.173 321.087 545.355 320.935C544.996 321.979 544.132 322.658 543.243 323.356C543.019 323.532 542.794 323.709 542.575 323.893C542.392 323.878 542.309 323.871 542.301 323.843C542.295 323.819 542.34 323.781 542.422 323.712C542.422 323.712 542.27 323.531 542.451 323.378ZM493.302 412.685L493.5 412.567C493.682 412.415 493.892 411.928 494.103 411.441C493.93 411.483 493.738 411.541 493.574 411.633C492.426 412.119 491.467 412.972 490.561 413.778C490.305 414.005 490.054 414.228 489.805 414.438C488.452 414.472 487.826 415.371 487.3 416.127C487.236 416.219 487.173 416.309 487.111 416.395L489.747 415.106C490.778 414.238 492.109 413.396 493.302 412.685ZM569.08 322.237L569.312 322.144C569.218 322.032 569.251 321.931 569.297 321.792C569.313 321.745 569.33 321.693 569.344 321.635C569.351 321.604 569.358 321.571 569.363 321.536C569.366 321.517 569.368 321.497 569.37 321.476C568.187 321.543 567.642 322.001 567.221 322.975L569.08 322.237ZM632.751 277.437C632.694 278.105 632.636 278.773 631.757 279.202L631.452 278.84C631.357 277.99 631.902 277.532 632.751 277.437ZM542.393 324.046L542.088 323.683C541.333 324.628 540.578 325.573 539.46 326.824C539.723 326.66 539.978 326.513 540.222 326.372C541.3 325.751 542.151 325.26 542.393 324.046ZM470.642 355.928C470.395 354.897 470.271 354.382 470.997 353.771C471.76 354.678 471.368 355.317 470.642 355.928Z" fill="#717E84"/>
<path fill-rule="evenodd" clip-rule="evenodd" d="M588.698 269.29C574.67 275.829 563.236 285.45 555.187 298.726L555.186 298.728C549.307 308.319 543.429 317.91 537.369 327.654C536.755 328.581 536.172 329.545 535.588 330.514C533.962 333.207 532.317 335.931 529.915 337.952C517.215 348.947 504.97 360.483 493.331 372.741L493.342 372.736L493.355 372.729L493.365 372.723L493.371 372.72C493.389 372.71 493.405 372.698 493.421 372.685C493.201 373.44 492.722 373.888 491.94 374.55C491.88 374.742 491.847 374.969 491.853 375.242C491.839 374.984 491.87 374.761 491.926 374.562L491.73 374.727C491.809 373.814 491.991 373.328 492.572 372.787L492.572 372.78C498.538 361.904 504.173 350.999 509.027 339.529L508.58 339.491L508.773 339.043C508.502 338.85 508.097 338.77 507.273 339.042L505.465 342.421C496.17 362.32 485.93 381.465 473.743 399.771C467.712 409.182 461.194 418.382 453.732 426.829C453.595 427.298 453.259 427.53 452.923 427.762C452.671 427.937 452.419 428.111 452.251 428.385L451.888 428.69C452.251 428.385 452.643 427.745 452.519 427.23C459.442 413.353 463.446 398.216 466.599 383.175C467.138 380.621 467.538 378.006 467.94 375.38C468.604 371.041 469.273 366.67 470.579 362.485C473.476 353.647 476.805 344.996 480.135 336.345C481.799 332.019 483.464 327.694 485.075 323.345C489.754 310.117 490.577 296.727 488.06 283.052C485.419 268.861 479.656 255.748 472.862 242.884C469.955 237.588 467.02 232.625 463.75 227.634C463.205 228.092 462.842 228.398 462.814 228.732C456.188 241.12 450.048 253.718 445.856 267.156C442.773 277.492 442.058 287.694 445.866 298.115C446.742 300.63 447.535 303.137 448.327 305.645C449.12 308.152 449.912 310.66 450.788 313.175C452.555 318.193 454.423 323.199 456.294 328.214C459.856 337.762 463.428 347.338 466.336 357.074C467.63 361.559 468.256 365.987 467.517 370.635C466.184 378.261 464.85 385.886 463.03 393.302C457.875 415.911 449.037 436.354 430.829 452.293C409.536 470.829 386.747 487.217 359.983 497.04C359.832 497.1 359.651 497.142 359.461 497.186C358.772 497.344 357.958 497.531 357.987 498.72C358.807 498.959 359.686 498.529 360.564 498.099C383.509 489.632 404.252 477.443 422.307 461.322C435.403 449.993 449.234 439.904 464.132 431.085C472.489 425.911 481.159 422.952 491.267 422.808C497.819 422.735 504.354 422.514 510.885 422.293C519.967 421.986 529.04 421.679 538.135 421.773C555.622 421.924 570.412 416.292 582.746 404.056C588.067 398.959 593.388 393.862 598.223 388.556C598.695 388.054 599.171 387.557 599.648 387.059C601.982 384.624 604.335 382.168 606.288 378.983C587.42 375.348 568.589 373.231 549.687 375.819C536.733 377.739 524.425 381.901 513.957 390.09C508.173 394.543 502.88 399.413 497.612 404.259C494.998 406.664 492.389 409.064 489.731 411.403L489.678 411.451C482.589 417.724 475.677 423.841 467.247 428.154C458.807 432.531 450.603 437.893 442.717 443.304C442.771 443.315 442.824 443.338 442.874 443.398L440.696 445.23C440.86 444.752 441.058 444.412 441.269 444.15C441.151 444.251 441.046 444.358 440.943 444.461C440.717 444.689 440.504 444.903 440.209 445.02C440.376 444.747 440.66 444.546 440.949 444.34C441.108 444.227 441.269 444.113 441.412 443.985C441.436 443.961 441.459 443.937 441.482 443.914C441.513 443.883 441.543 443.854 441.574 443.826C441.707 443.68 441.813 443.513 441.871 443.312C456.012 427.697 469.056 411.148 480.03 393.243C484.704 385.903 489.378 378.564 495.483 372.188C500.455 366.986 505.601 362.103 510.781 357.248C511.509 356.566 512.237 355.884 512.966 355.203L513.003 355.168L513.005 355.166C516.535 351.864 520.073 348.554 523.57 345.149C530.735 338.191 538.853 333.838 548.219 330.602C553.373 328.868 558.556 327.207 563.745 325.554L565.969 324.846C576.094 321.623 586.231 318.397 596.208 314.689C605.604 311.118 614.055 306.794 620.305 298.749C630.176 285.797 637.462 271.615 643.804 256.678C643.986 256.526 644.015 256.192 643.891 255.676C624.866 257.749 606.24 261.034 588.698 269.29ZM467.254 237.693C474.145 259.146 476.273 281.201 476.034 303.39L475.648 319.509C475.656 319.588 475.665 319.667 475.673 319.746L475.684 319.849L476.621 319.929C478.725 293.694 477.097 267.812 469.884 242.293C469.637 241.262 469.39 240.231 468.961 239.353C469.064 239.266 469.155 239.202 469.235 239.157C469.094 238.679 468.852 238.119 468.59 237.807C468.466 237.292 468.343 236.777 468.066 236.08C469.04 236.5 469.163 237.015 469.258 237.864C469.716 238.408 470.326 239.134 470.421 239.983C470.29 239.927 470.17 239.883 470.059 239.843L470.002 239.822C470.027 239.872 470.055 239.916 470.087 239.954C473.385 244.611 475.108 249.975 476.649 255.491C480.656 269.462 481.779 283.692 481.384 297.959C481.355 298.293 481.281 298.666 481.207 299.038C481.132 299.41 481.058 299.782 481.029 300.116C481.229 301.42 481.366 302.711 481.438 303.992C481.483 302.777 481.509 301.556 481.516 300.326C481.821 300.689 482.308 300.899 482.823 300.775C483.77 287.9 482.531 275.007 479.927 262.333C479.902 262.108 479.829 261.878 479.752 261.632C479.538 260.953 479.285 260.149 479.882 258.964C485.464 272.229 488.86 285.476 488.981 299.619C488.929 311.958 484.462 323.166 480.036 334.275L480.035 334.277C479.333 336.039 478.632 337.799 477.949 339.56C478.266 337.591 478.61 335.625 478.954 333.663C479.799 328.842 480.639 324.047 481.05 319.299C481.029 319.21 481.002 319.126 480.974 319.046C480.836 318.997 480.707 318.959 480.578 318.922C480.373 318.862 480.168 318.803 479.924 318.698C480.157 317.318 480.364 315.944 480.546 314.573C480.247 315.879 479.878 317.182 479.438 318.488C478.628 327.841 476.663 336.926 474.364 345.983L474.358 346.048C474.354 346.085 474.35 346.119 474.345 346.15L474.517 346.165C474.43 347.167 474.343 348.169 473.559 349.448C473.233 348.089 473.519 347.173 473.755 346.414L473.79 346.302L473.819 346.207L473.848 346.107C474.03 344.015 474.354 341.964 474.678 339.918C475.129 337.065 475.579 334.221 475.637 331.286L474.635 331.2C474.302 333.269 474.034 335.312 473.768 337.338C473.159 341.977 472.561 346.529 471.229 351.099C471.114 347.892 471.056 344.672 470.999 341.452C470.884 335.025 470.769 328.598 470.199 322.281C469.838 322.363 469.636 322.312 469.527 322.182C469.561 326.644 469.602 331.022 469.644 335.4C469.685 339.778 469.727 344.156 469.761 348.618C469.769 350.469 469.777 352.321 469.269 354.296C463.84 319.844 459.747 285.507 461.42 250.654C461.373 250.549 461.33 250.445 461.291 250.34L461.267 250.472L460.265 250.386C459.157 261.228 459.539 272.365 459.949 283.169C460.981 304.289 463.377 325.189 466.441 346.146L466.458 346.212C466.472 346.269 466.487 346.326 466.503 346.382C466.521 346.45 466.541 346.518 466.56 346.586C466.815 347.483 467.086 348.435 465.97 349.639C465.364 347.27 464.755 344.94 464.151 342.629C463 338.231 461.869 333.905 460.815 329.512C455.775 308.049 452.434 286.395 454.01 264.321C454.436 257.459 455.53 250.654 457.627 243.935C458.345 241.473 459.215 239.192 461.117 236.663C461.412 238.371 461.159 239.939 460.918 241.439C460.701 242.789 460.492 244.083 460.699 245.376L461.701 245.462C461.716 245.595 461.728 245.727 461.737 245.857C461.774 245.786 461.813 245.715 461.854 245.643C462.177 244.252 462.343 242.794 462.512 241.314C462.763 239.108 463.02 236.854 463.81 234.706L464.479 234.763C464.88 239.845 465.243 244.882 465.606 249.918C465.969 254.955 466.332 259.991 466.733 265.073C466.791 265.275 466.846 265.476 466.897 265.679L466.902 265.455C466.905 265.276 466.91 265.098 466.914 264.921L467.39 264.961C467.004 259.02 466.672 253.141 466.335 247.178L466.334 247.169C466.109 243.175 465.881 239.144 465.633 235.03C466.644 235.649 466.897 236.518 467.095 237.199C467.147 237.38 467.196 237.547 467.254 237.693ZM541.044 327.969C568.389 297.837 599.338 272.725 638.257 258.559C638.62 258.253 639.651 258.005 639.622 258.339C639.564 259.007 638.867 259.284 638.199 259.227L638.196 259.229C623.183 269.384 608.17 279.539 593.309 289.875C583.246 296.893 573.157 304.203 563.215 311.407L561.198 312.869C557.869 315.36 554.495 317.889 551.121 320.419C547.747 322.948 544.373 325.477 541.044 327.969ZM489.965 416.471C500.471 409.799 511.376 404.339 522.739 399.423C546.344 389.162 570.72 381.658 596.608 380.005C597.033 379.957 597.496 379.955 597.959 379.952C598.422 379.95 598.885 379.947 599.309 379.9C599.449 379.782 599.571 379.862 599.909 380.082C600.012 380.149 600.134 380.229 600.283 380.319L596.683 381.438C560.544 392.667 524.598 403.835 489.544 417.444C489.519 417.415 489.497 417.387 489.476 417.359C489.462 417.387 489.447 417.415 489.433 417.444C489.422 417.467 489.41 417.491 489.399 417.515C489.387 417.542 489.375 417.569 489.363 417.597C488.666 417.874 487.969 418.151 487.424 418.609C487.321 418.565 487.241 418.515 487.184 418.462C486.516 418.728 485.841 418.999 484.999 419.411C485.783 418.132 486.48 417.855 487.329 417.76L487.309 417.998C487.359 417.976 487.416 417.957 487.482 417.941C487.624 417.821 487.768 417.688 487.914 417.553C488.514 416.999 489.159 416.402 489.965 416.471ZM608.965 287.851C620.283 279.566 631.144 270.737 640.174 259.733C605.906 282.373 571.972 305.042 539.963 330.736C547.87 326.87 555.137 322.613 562.587 318.204C578.545 308.802 594.046 298.856 608.965 287.851ZM599.536 383.116C590.968 388.776 581.544 392.68 571.967 396.403C544.811 406.865 516.761 414.054 488.282 420.365C488.1 420.518 487.948 420.336 487.642 419.974C524.615 404.968 562.482 393.235 600.501 381.684C601.016 381.56 601.532 381.436 601.895 381.131C601.293 382.257 600.719 383.049 599.536 383.116ZM547.725 328.541L573.797 313.106C592.812 301.442 611.217 289.053 628.125 274.517C630.52 272.501 632.751 270.289 634.982 268.078C636.47 266.603 637.957 265.129 639.493 263.712C638.057 268.637 635.008 272.75 631.989 276.53C622.596 287.84 611.067 296.612 598.622 304.295C582.788 314.213 566.124 322.04 548.851 329.142C548.335 329.266 547.82 329.39 547.457 329.695L547.429 329.626C546.8 329.876 546.156 330.139 545.366 330.526C545.201 330.664 545.061 330.529 544.923 330.368C544.757 330.426 544.599 330.478 544.44 330.531C544.137 330.631 543.833 330.731 543.485 330.87C543.724 330.049 544.24 329.925 545.089 329.829C545.426 329.548 545.763 329.274 546.106 329.051C546.627 328.713 547.161 328.492 547.725 328.541ZM492.806 420.584C509.304 416.612 525.801 412.641 542.386 407.667C560.183 402.292 577.522 396.374 593.909 387.85C594.969 387.268 595.984 386.724 596.999 386.18C598.013 385.635 599.028 385.091 600.088 384.509C596.437 389.749 591.413 393.357 586.265 396.449C574.547 403.522 561.877 407.99 548.93 411.761C548.414 411.885 547.982 412.016 547.55 412.147C547.118 412.279 546.686 412.41 546.171 412.534C545.808 412.84 545.425 413.063 545.018 413.246C545.332 413.171 545.646 413.096 545.96 413.021C546.062 413.142 546.002 413.398 545.943 413.655C545.913 413.783 545.883 413.911 545.874 414.023C553.425 412.314 560.701 409.908 567.671 407.14C574.794 404.553 581.67 400.935 588.212 397.289C581.17 404.762 573.366 411.329 564.189 416.264C558.876 419.088 552.838 419.606 546.93 420.112L546.927 420.112C546.167 420.177 545.41 420.242 544.656 420.312C534.337 420.943 524.047 421.24 513.786 421.202C513.794 421.112 513.806 421.027 513.824 420.948C513.398 420.701 512.844 420.812 512.276 420.925C511.328 421.114 510.343 421.31 509.864 419.857C510.209 419.805 510.553 419.753 510.898 419.701C510.608 419.654 510.329 419.555 510.074 419.37C507.191 419.628 504.347 419.932 501.502 420.235C498.657 420.538 495.812 420.841 492.929 421.099C492.869 421.114 492.812 421.122 492.759 421.124L492.748 421.252C492.051 421.529 491.354 421.806 490.744 421.08C491.174 420.718 491.683 420.678 492.297 420.63C492.459 420.617 492.628 420.604 492.806 420.584ZM544.505 321.03C550.24 313.108 556.584 305.912 563.568 299.107C574.057 288.732 585.158 279.082 597.754 271.58C608.05 265.395 618.926 260.269 631.031 258.445C631.245 258.394 631.484 258.373 631.765 258.349C632.162 258.316 632.642 258.275 633.246 258.13C632.721 259.112 631.869 259.426 631.198 259.674C631.099 259.711 631.005 259.746 630.915 259.781C614.52 266.454 599.288 275.245 585.247 285.82C571.598 295.756 559.199 306.809 547.533 319.102L545.355 320.935C544.996 321.979 544.132 322.658 543.243 323.356C543.019 323.532 542.794 323.709 542.575 323.893C542.392 323.878 542.309 323.871 542.301 323.843C542.295 323.819 542.34 323.781 542.422 323.712C542.422 323.712 542.27 323.531 542.451 323.378C542.843 322.739 543.598 321.794 544.505 321.03ZM494.103 411.441C507.417 401.476 521.895 393.63 537.412 387.387C551.715 381.545 566.18 377.736 581.72 377.048C586.273 376.933 590.616 377.305 594.93 378.01C594.863 378.783 594.36 378.818 593.897 378.851C593.759 378.86 593.625 378.87 593.507 378.898C562.311 381.611 533.484 391.93 505.858 405.886C502.969 407.254 500.138 408.865 497.277 410.494C495.967 411.239 494.65 411.989 493.319 412.72L493.302 412.685C492.109 413.396 490.778 414.238 489.747 415.106L487.111 416.395C487.173 416.309 487.236 416.219 487.3 416.127C487.826 415.371 488.452 414.472 489.805 414.438C490.054 414.228 490.305 414.005 490.561 413.778C491.467 412.972 492.426 412.119 493.574 411.633C493.738 411.541 493.93 411.483 494.103 411.441ZM631.757 279.202C627.207 287.057 622.685 294.578 616.551 301.287C613.379 304.886 609.625 307.425 605.414 309.42C593.688 314.641 581.409 318.469 569.131 322.297L569.08 322.237L567.221 322.975C567.642 322.001 568.187 321.543 569.37 321.476C569.368 321.497 569.366 321.517 569.363 321.536C571.658 320.311 573.969 319.105 576.28 317.899C581.019 315.426 585.758 312.952 590.361 310.318C605.412 301.68 619.547 291.954 631.452 278.84C631.357 277.99 631.902 277.532 632.751 277.437C632.694 278.105 632.636 278.773 631.757 279.202ZM457.982 327.251C453.439 315.589 449.078 303.774 445.929 291.559C444.664 286.739 444.764 281.7 445.714 276.566C447.229 268.788 449.717 261.429 452.873 254.128C452.993 253.718 453.151 253.353 453.335 252.927C453.519 252.501 453.73 252.014 453.955 251.36C454.325 252.906 454.268 253.575 453.876 254.214C450.485 277.816 453.347 301.111 458.09 324.063C458.185 324.459 458.253 324.878 458.324 325.312L458.324 325.315C458.437 326.01 458.557 326.744 458.803 327.489L459.544 330.581C458.448 329.646 458.2 328.615 457.982 327.251ZM571.851 376.371C544.395 380.582 519.977 392.457 497.122 407.662C516.787 384.612 541.604 373.95 571.851 376.371ZM564.312 288.571C572.529 279.179 583.006 272.841 594.522 268.106C599.582 266.016 604.614 264.259 610.285 262.894C609.865 263.868 609.167 264.144 608.47 264.421C591.807 272.249 577.708 283.492 564.678 296.005C560.773 299.745 557.213 303.695 553.612 307.691C552.305 309.14 550.994 310.596 549.658 312.049C549.445 312.965 548.849 313.425 548.158 313.957C547.978 314.095 547.792 314.239 547.604 314.397L547.756 314.578C547.67 315.58 546.791 316.01 545.913 316.44C546.234 315.696 546.645 315.058 546.995 314.513C547.054 314.421 547.112 314.332 547.167 314.245L547.138 314.211L547.117 314.187C546.965 314.006 546.965 314.006 547.146 313.853C547.691 313.395 548.054 313.09 548.446 312.45C549.285 311.055 550.116 309.65 550.948 308.243C554.985 301.415 559.052 294.537 564.312 288.571ZM542.393 324.046L542.088 323.683C541.333 324.628 540.578 325.573 539.46 326.824C539.723 326.66 539.978 326.513 540.222 326.372C541.3 325.751 542.151 325.26 542.393 324.046ZM470.642 355.928C470.395 354.897 470.271 354.382 470.997 353.771C471.76 354.678 471.368 355.317 470.642 355.928ZM452.861 429.11C452.803 429.778 452.259 430.236 451.38 430.666C451.954 429.874 452.164 429.387 452.193 429.053C452.298 428.809 452.487 428.573 452.676 428.337C452.864 428.101 453.053 427.865 453.158 427.621C453.416 427.559 453.59 427.49 453.765 427.421C453.939 427.352 454.113 427.282 454.371 427.22C454.301 428.029 453.715 428.465 453.205 428.844C453.083 428.935 452.966 429.022 452.861 429.11Z" fill="#717E84"/>
<path d="M142.377 530.469C138.505 417.518 355.765 309.404 412.288 420.414C468.81 531.424 723.699 375.189 736.97 465.222C750.242 555.254 636.776 647.649 483.539 671.592C330.301 695.535 146.249 643.42 142.377 530.469Z" fill="#FFE7B9"/>
<path d="M711.634 497.786C684.647 373.176 510.762 382.6 390.457 497.569C270.153 612.537 204.466 455.042 143.358 538.556C82.2493 622.07 264.372 770.652 419.4 751.956C574.427 733.26 738.621 622.396 711.634 497.786Z" fill="#ADD9F9"/>
<path opacity="0.3" d="M481.827 503.787C482.404 503.835 482.981 503.883 483.453 504.019C485.255 504.46 486.624 505.445 487.785 506.606C489.988 509.209 490.924 513.061 489.779 516.352C488.089 521.534 482.299 524.825 477.118 523.135C467.316 519.995 471.713 505.556 478.84 503.635C479.817 503.523 480.882 503.515 481.827 503.787ZM491.837 529.975C493.446 532.721 493.35 536.197 491.027 538.519C488.721 540.649 485.317 540.849 482.755 539.088C480.192 537.326 479.415 533.874 480.617 531.071C480.961 530.422 481.306 529.774 481.826 529.333C482.395 528.316 483.14 527.508 484.237 527.115C487.176 525.522 490.227 527.228 491.837 529.975ZM493.645 552.382C492.644 553.943 490.938 554.672 489.225 554.336C485.501 553.735 484.124 549.362 485.829 546.311C486.742 544.646 488.376 543.621 490.282 543.973C490.755 544.109 491.227 544.245 491.596 544.47C492.909 544.966 493.774 546.199 494.15 547.489C494.703 548.986 494.734 550.924 493.645 552.382ZM478.682 629.709C477.585 632.424 481.909 633.946 483.007 631.231C487.468 620.668 491.384 609.673 493.011 598.293C493.027 598.101 493.131 598.013 493.251 597.733C497.464 579.698 501.309 561.44 501.502 542.876C501.711 528.766 501.279 506.086 485.311 500.303C469.535 494.537 463.192 512.587 465.537 525.072C468.868 543.155 483.635 556.386 487.766 574.148C492.186 593.096 486.043 612.228 478.682 629.709Z" fill="white"/>
<path opacity="0.3" d="M571.813 516.001C570.024 514.999 569.614 512.129 570.77 510.603C572 508.963 574.304 508.673 575.756 509.943C577.43 510.871 578.212 513.169 577.096 514.884C576.724 515.455 576.312 515.838 575.672 516.072C574.545 516.803 572.956 516.745 571.813 516.001ZM549.551 496.954L549.625 496.84C550.855 495.2 553.16 494.91 554.611 496.18C556.285 497.107 557.067 499.406 555.951 501.121C554.835 502.835 552.382 503.354 550.594 502.352C549.451 501.608 548.868 500.253 548.966 498.852C549.11 498.132 549.179 497.526 549.551 496.954ZM584.677 461.239C586.577 458.57 589.973 457.851 592.86 458.917C593.163 458.951 593.58 459.06 593.734 459.323C593.963 459.472 594.306 459.695 594.46 459.958C596.643 462.355 597.361 465.752 595.501 468.609C593.641 471.467 589.226 472.499 586.369 470.639C583.397 468.704 582.628 464.136 584.677 461.239ZM578.037 483.44C572.779 480.018 569.245 471.697 573.914 466.274C574.063 466.046 574.326 465.891 574.589 465.737C575.899 464.474 578.865 465.917 578.361 468.192C576.635 476.344 585.207 481.924 591.962 477.045C593.913 475.549 596.358 477.791 595.734 479.501C595.699 479.804 595.665 480.106 595.516 480.335C592.333 486.725 583.294 486.862 578.037 483.44ZM576.233 505.21C573.49 503.424 573.904 499.788 576.381 497.983C578.446 496.561 580.984 496.911 583.129 495.867C586.177 494.433 588.151 491.65 590.165 489.056C590.463 488.599 590.989 488.291 591.481 488.285C593.059 487.36 595.608 488.694 594.875 490.82C592.997 495.456 590.13 499.61 586.04 502.643C583.603 504.637 579.548 507.367 576.233 505.21ZM575.953 486.64C577.628 487.567 578.41 489.866 577.294 491.581C576.178 493.295 573.725 493.814 571.936 492.812C570.147 491.811 569.738 488.94 570.893 487.415C572.084 485.586 574.502 485.37 575.953 486.64ZM564.389 484.157C564.451 486.313 565.684 488.417 565.18 490.692C564.532 493.688 561.489 495.613 558.632 493.753C555.317 491.595 556.172 486.782 556.969 483.558C558.087 478.59 560.725 474.287 564.203 470.693C565.811 468.973 568.062 470.764 567.895 472.771C567.901 473.262 567.906 473.754 567.723 474.286C566.206 477.366 564.351 480.715 564.389 484.157ZM549.763 523.128C549.673 511.516 556.521 504.746 565.683 498.668C566.547 498.091 567.382 498.309 567.953 498.681C568.713 499.013 569.136 499.614 568.884 500.751C567.036 511.59 563.617 520.593 552.963 525.211C551.459 526.022 549.744 524.906 549.763 523.128ZM542.141 542.087C540.751 542.972 538.579 541.559 538.826 539.929C539.142 537.694 539.532 535.345 539.848 533.109C540.308 530.154 540.767 527.198 541.226 524.243C541.404 523.22 541.965 522.608 542.794 522.334C543.246 522.14 543.737 522.135 544.269 522.318C545.292 522.496 545.943 523.246 545.731 524.572C545.346 527.413 545.339 530.174 545.56 533.084C548.196 532.034 550.832 530.984 553.275 529.482C554.401 528.751 555.39 529.232 555.927 529.907C556.31 530.318 556.43 530.885 556.361 531.491C556.332 532.285 555.999 533.045 555.21 533.508C553.22 534.816 551.041 536.164 549.05 537.472C546.911 539.008 544.583 540.585 542.141 542.087ZM580.189 452.134C562.25 458.194 551.633 476.505 545.957 493.476C541.964 505.359 539.681 517.867 536.334 530.008C532.77 542.984 527.496 555.336 520.891 566.983C517.543 572.127 514.196 577.27 510.734 582.339C509.915 583.596 510.572 584.837 511.486 585.432C512.515 586.102 513.801 586.126 514.62 584.868C517.967 579.725 521.315 574.582 524.549 569.364C531.593 559.792 539.591 551.004 548.509 543.303C557.015 535.985 566.213 529.605 574.947 522.435C589.305 510.627 603.208 495.268 605.341 475.991C606.204 468.416 604.86 459.73 599.65 453.736C595.548 448.788 585.805 450.256 580.189 452.134Z" fill="white"/>
<path opacity="0.3" d="M624.603 601.671C624.453 601.112 624.304 600.553 624.086 600.112C623.333 598.417 622.12 597.244 620.772 596.307C617.819 594.602 613.862 594.363 610.826 596.074C606.027 598.656 603.815 604.938 606.397 609.738C611.226 618.827 624.656 611.939 625.283 604.583C625.22 603.602 625.039 602.552 624.603 601.671ZM597.055 596.465C594.066 595.369 590.663 596.08 588.79 598.778C587.102 601.425 587.509 604.81 589.698 607.02C591.886 609.229 595.421 609.381 597.966 607.702C598.543 607.248 599.121 606.794 599.462 606.203C600.362 605.463 601.026 604.587 601.217 603.437C602.264 600.262 600.044 597.562 597.055 596.465ZM574.682 598.66C573.323 599.922 572.909 601.73 573.544 603.357C574.796 606.915 579.343 607.495 582.043 605.275C583.52 604.081 584.239 602.291 583.554 600.478C583.337 600.037 583.119 599.596 582.833 599.274C582.111 598.069 580.744 597.437 579.408 597.295C577.837 597.017 575.924 597.33 574.682 598.66ZM501.235 627.103C498.758 628.664 496.494 624.678 498.971 623.117C508.574 616.853 518.701 611.048 529.611 607.429C529.798 607.379 529.866 607.261 530.12 607.093C547.122 599.747 564.409 592.725 582.643 589.242C596.493 586.533 618.89 582.935 627.413 597.624C635.887 612.127 619.248 621.572 606.545 621.478C588.158 621.408 572.518 609.222 554.304 608.307C534.873 607.318 517.134 616.758 501.235 627.103Z" fill="white"/>
<path opacity="0.3" d="M18.9649 581.043C25.7661 570.33 31.7339 559.639 36.0021 547.729C38.7387 540.915 44.7072 530.223 37.8629 523.665C31.4464 517.516 25.7042 521.04 21.3015 527.898C19.3998 519.101 14.6604 513.329 5.6419 519.046C-1.32747 523.445 0.664174 535.609 0.843547 542.345C1.17987 554.975 3.18243 567.561 6.00689 579.704C7.84128 585.974 16.1723 585.752 18.9649 581.043Z" fill="#ADD9F9"/>
<path d="M516.227 699.079C517.864 700.443 520.182 700.443 521.682 698.943C521.682 698.943 521.682 698.806 521.819 698.806C521.819 698.806 521.955 698.806 521.955 698.67C523.455 697.17 523.455 694.715 522.091 693.215C520.591 691.442 518 691.715 516.364 693.351C515.545 694.17 515 695.124 515 696.352C515 697.306 515.409 698.397 516.227 699.079Z" fill="white"/>
<path d="M157.227 592.079C158.864 593.443 161.182 593.443 162.682 591.943C162.682 591.943 162.682 591.806 162.819 591.806C162.819 591.806 162.955 591.806 162.955 591.67C164.455 590.17 164.455 587.715 163.091 586.215C161.591 584.442 159 584.715 157.364 586.351C156.545 587.17 156 588.124 156 589.352C156 590.306 156.409 591.397 157.227 592.079Z" fill="white"/>
<path d="M315.227 506.079C316.864 507.443 319.182 507.443 320.682 505.943C320.682 505.943 320.682 505.806 320.819 505.806C320.819 505.806 320.955 505.806 320.955 505.67C322.455 504.17 322.455 501.715 321.091 500.215C319.591 498.442 317 498.715 315.364 500.351C314.545 501.17 314 502.124 314 503.352C314 504.306 314.409 505.397 315.227 506.079Z" fill="white"/>
<path d="M389.227 576.079C390.864 577.443 393.182 577.443 394.682 575.943C394.682 575.943 394.682 575.806 394.819 575.806C394.819 575.806 394.955 575.806 394.955 575.67C396.455 574.17 396.455 571.715 395.091 570.215C393.591 568.442 391 568.715 389.364 570.351C388.545 571.17 388 572.124 388 573.352C388 574.306 388.409 575.397 389.227 576.079Z" fill="white"/>
<path d="M686.987 692.944C680.904 690.226 674.463 686.718 671.854 680.094C667.423 669.156 674.473 656.902 685.623 654.147C687.327 653.675 689.249 653.547 691.191 653.602C691.373 653.581 691.373 653.581 691.555 653.56C691.92 653.518 692.384 653.557 692.585 653.719C698.628 654.226 704.548 657.148 707.519 661.885C711.438 666.882 711.514 673.981 706.656 678.783C701.452 683.81 692.72 683.149 688.445 677.362C684.27 671.656 689.258 663.608 696.306 664.923C701.757 665.96 702.782 673.32 698.092 675.242C699.662 676.169 701.447 675.596 703.549 673.601C704.612 672.279 705.111 670.837 705.026 669.093C705.276 666.111 703.941 663.864 701.877 661.7C699.312 659.133 695.764 657.785 692.246 657.635C683.517 658.819 677.387 665.614 678.032 674.678C678.685 682.911 684.333 686.787 691.183 689.787C691.466 689.847 691.667 690.008 691.968 690.251C694.084 691.116 696.118 692.083 697.988 693.253C704.767 697.369 709.708 703.356 712.939 710.648C714.028 713.2 709.948 714.775 708.859 712.223C704.056 702.158 696.555 697.294 686.987 692.944Z" fill="#EAEAEA"/>
</svg>
