<svg width="85" height="94" viewBox="0 0 85 94" fill="none" xmlns="http://www.w3.org/2000/svg">
<path d="M22.2835 36.6595C22.7402 34.9662 23.8723 34.1362 25.2565 34.0554C27.6015 33.7796 30.0678 35.5801 29.2686 38.5434C28.5265 41.2951 25.9127 41.7257 23.9102 40.7315C22.7544 39.9656 21.7697 38.5645 22.2835 36.6595ZM33.6116 30.8595C33.645 29.052 34.7937 27.3182 37.0816 27.2541C42.2925 27.2971 47.1538 26.1105 51.7226 23.4826C54.4102 21.9368 57.8206 24.446 57.176 27.678C55.8059 32.758 55.8199 37.7571 57.2181 42.6755C57.7627 44.866 56.4593 46.3311 54.6922 46.9898C54.3664 47.3561 53.886 47.4537 53.1939 47.4941C47.2172 48.6069 41.8588 50.7946 36.7525 53.7316C34.065 55.2774 30.4428 52.7112 31.2991 49.5362C33.0521 43.8783 33.6899 38.1466 33.2691 32.1295C33.3833 31.7061 33.4974 31.2828 33.6116 30.8595ZM47.4572 58.6623C46.513 57.9536 46.1633 56.7239 46.5629 55.2422C47.6476 51.2206 53.265 52.2815 53.6787 55.799C53.7762 56.2795 53.6622 56.7028 53.5481 57.1261C52.7488 60.0895 49.2884 60.2915 47.4572 58.6623ZM66.9356 52.1083C66.8785 52.3199 66.9759 52.8003 66.8618 53.2237C66.6905 53.8587 66.3076 54.4367 65.9818 54.803C64.3526 56.6342 60.9087 55.9325 59.8837 53.8396C59.6317 53.0904 59.5914 52.3984 59.8198 51.5517C60.2194 50.07 61.3515 49.2401 62.5811 48.8905C64.5599 48.2889 66.8715 49.8203 66.9356 52.1083ZM25.3522 20.2304C27.4855 19.8975 29.8543 21.2176 29.9184 23.5056C29.8042 23.9289 29.9588 24.1976 29.8446 24.621C29.2737 26.7376 27.5066 27.3963 25.7562 27.1513C23.7941 26.8492 21.9628 25.22 22.6479 22.68C22.762 22.2567 22.8762 21.8333 23.1449 21.6787C23.7966 20.9462 24.603 20.4825 25.3522 20.2304ZM27.5026 73.7163C27.291 73.6592 27.1363 73.3905 26.9246 73.3334C24.8246 71.8587 23.3193 69.8633 21.2193 68.3887C19.1193 66.9141 16.9622 65.6509 14.8622 64.1762C14.6505 64.1191 14.7077 63.9076 14.496 63.8505C13.9181 63.4675 13.4543 62.6614 12.9906 61.8551C12.836 61.5864 12.6815 61.3176 12.7957 60.8942C12.6007 59.9334 12.8862 58.875 13.5949 57.9309C15.8758 55.3671 17.5786 52.4204 18.8583 49.3596C19.4696 47.935 20.5445 47.3169 21.7741 46.9673C24.1762 46.4798 26.9113 48.1255 26.055 51.3005C24.8729 54.8418 24.8633 58.2452 26.5066 61.4132C30.0074 61.9032 33.3703 61.2209 36.4407 59.0971C38.6478 57.6488 41.5375 59.5635 42.0821 61.7539C42.22 62.9264 42.146 64.0418 41.0139 64.8718C38.098 67.2643 35.3938 69.7139 33.2104 72.758C32.5016 73.7022 31.4266 74.3205 30.5228 74.3038C30.2541 74.4584 29.831 74.3442 29.6193 74.2871C28.8701 74.5392 28.0805 74.0992 27.5026 73.7163ZM33.1413 82.2759C41.3707 68.601 55.0366 60.0252 71.0117 58.8842C74.4721 58.6821 75.4427 55.0839 73.6281 52.5509C65.5803 41.9791 63.1027 29.2765 65.8929 16.4052C66.0642 15.7702 66.1784 15.347 66.1379 14.6549C65.943 13.6941 65.4792 12.8878 64.7467 12.2361C64.7467 12.2361 64.7467 12.2361 64.5351 12.179L64.3232 12.1219C63.5907 11.4702 62.5325 11.1847 61.5146 11.5914C61.0342 11.6889 60.5538 11.7865 60.0163 12.0956C48.4195 18.0505 35.2125 19.0297 22.9692 13.9111C19.9084 12.6315 16.8381 14.7553 17.5206 18.1182C20.3145 33.8579 15.7807 48.9839 4.71875 60.5325C2.82079 62.5183 3.50329 65.8813 6.25496 66.6234C12.8737 68.1814 23.4142 76.2467 26.5462 82.3138C28.1491 84.7897 31.8212 84.6447 33.1413 82.2759Z" fill="#FFF5F5"/>
</svg>
